<svg xmlns="http://www.w3.org/2000/svg" width="326.818" height="250.99" viewBox="0 0 326.818 250.99">
  <g id="Admin-rafiki" transform="translate(0 -53.57)">
    <g id="freepik--background-complete--inject-1" transform="translate(0 54.505)">
      <rect id="Rectangle_456" data-name="Rectangle 456" width="326.818" height="0.163" transform="translate(0 214.001)" fill="#ebebeb"/>
      <rect id="Rectangle_457" data-name="Rectangle 457" width="21.648" height="0.163" transform="translate(272.423 224.518)" fill="#ebebeb"/>
      <rect id="Rectangle_458" data-name="Rectangle 458" width="25.636" height="0.163" transform="translate(190.862 226.296)" fill="#ebebeb"/>
      <rect id="Rectangle_459" data-name="Rectangle 459" width="37.27" height="0.163" transform="translate(234.499 218.452)" fill="#ebebeb"/>
      <rect id="Rectangle_460" data-name="Rectangle 460" width="44.859" height="0.163" transform="translate(114.047 219.55)" fill="#ebebeb"/>
      <rect id="Rectangle_461" data-name="Rectangle 461" width="4.138" height="0.163" transform="translate(164.723 219.55)" fill="#ebebeb"/>
      <rect id="Rectangle_462" data-name="Rectangle 462" width="82.888" height="0.163" transform="translate(64.272 222.308)" fill="#ebebeb"/>
      <path id="Path_786" data-name="Path 786" d="M168.146,239.849H41.936a3.732,3.732,0,0,1-3.726-3.732V58.7A3.732,3.732,0,0,1,41.936,55H168.146a3.732,3.732,0,0,1,3.732,3.732V236.116A3.732,3.732,0,0,1,168.146,239.849ZM41.936,55.131A3.569,3.569,0,0,0,38.373,58.7V236.116a3.569,3.569,0,0,0,3.562,3.569H168.146a3.575,3.575,0,0,0,3.569-3.569V58.7a3.575,3.575,0,0,0-3.569-3.569Z" transform="translate(-13.235 -55)" fill="#ebebeb"/>
      <path id="Path_787" data-name="Path 787" d="M384.45,239.849H258.232a3.739,3.739,0,0,1-3.732-3.732V58.7a3.739,3.739,0,0,1,3.732-3.7H384.45a3.732,3.732,0,0,1,3.719,3.7V236.116A3.732,3.732,0,0,1,384.45,239.849ZM258.232,55.131a3.575,3.575,0,0,0-3.569,3.569V236.116a3.575,3.575,0,0,0,3.569,3.569H384.45a3.575,3.575,0,0,0,3.569-3.569V58.7a3.575,3.575,0,0,0-3.569-3.569Z" transform="translate(-88.149 -55)" fill="#ebebeb"/>
      <rect id="Rectangle_463" data-name="Rectangle 463" width="107.092" height="143.624" transform="translate(189.993 16.903) rotate(90)" fill="#ebebeb"/>
      <rect id="Rectangle_464" data-name="Rectangle 464" width="107.092" height="0.869" transform="translate(190.862 16.903) rotate(90)" fill="#e0e0e0"/>
      <rect id="Rectangle_465" data-name="Rectangle 465" width="129.407" height="92.875" transform="translate(182.881 116.877) rotate(180)" fill="#f5f5f5"/>
      <rect id="Rectangle_466" data-name="Rectangle 466" width="23.021" height="32.224" transform="translate(171.488 121.858) rotate(180)" fill="#fff"/>
      <path id="Path_788" data-name="Path 788" d="M175.48,207h23.015l1.654-32.224H177.134Z" transform="translate(-60.78 -96.487)" fill="#fff"/>
      <rect id="Rectangle_467" data-name="Rectangle 467" width="23.021" height="32.224" transform="translate(123.309 121.858) rotate(180)" fill="#fff"/>
      <path id="Path_789" data-name="Path 789" d="M101.77,207h23.021l1.654-32.224H103.43Z" transform="translate(-35.249 -96.487)" fill="#fff"/>
      <path id="Path_790" data-name="Path 790" d="M131.55,139.362l31.335,2.235,5.386-43.7L136.929,95.66Z" transform="translate(-45.564 -69.083)" fill="#fff"/>
      <path id="Path_791" data-name="Path 791" d="M246.79,119.284H269.8l1.66-32.224H248.444Z" transform="translate(-85.479 -66.104)" fill="#fff"/>
      <rect id="Rectangle_468" data-name="Rectangle 468" width="23.021" height="32.224" transform="translate(154.067 72.635) rotate(-177.49)" fill="#fff"/>
      <rect id="Rectangle_469" data-name="Rectangle 469" width="23.021" height="32.224" transform="translate(73.452 62.002) rotate(178.34)" fill="#fff"/>
      <rect id="Rectangle_470" data-name="Rectangle 470" width="58.474" height="85.992" transform="translate(278.495 111.975) rotate(180)" fill="#e0e0e0"/>
      <rect id="Rectangle_471" data-name="Rectangle 471" width="60.403" height="85.992" transform="translate(276.9 111.975) rotate(180)" fill="#f5f5f5"/>
      <rect id="Rectangle_472" data-name="Rectangle 472" width="72.443" height="50.284" transform="translate(221.557 105.203) rotate(-90)" fill="#fff"/>
      <path id="Path_792" data-name="Path 792" d="M380.367,159.257v5.51h0a12.511,12.511,0,0,1-12.517-12.511V146.74h0A12.517,12.517,0,0,1,380.367,159.257Z" transform="translate(-127.41 -86.775)" fill="#f5f5f5"/>
      <path id="Path_793" data-name="Path 793" d="M380.367,130.8v5.517h0A12.517,12.517,0,0,1,367.85,123.8v-5.51h0A12.511,12.511,0,0,1,380.367,130.8Z" transform="translate(-127.41 -76.921)" fill="#f5f5f5"/>
      <path id="Path_794" data-name="Path 794" d="M380.367,187.707v5.517h0a12.517,12.517,0,0,1-12.517-12.517V175.19h0a12.517,12.517,0,0,1,12.517,12.517Z" transform="translate(-127.41 -96.629)" fill="#f5f5f5"/>
      <rect id="Rectangle_473" data-name="Rectangle 473" width="18.348" height="68.246" transform="translate(188.372 209.674) rotate(180)" fill="#f0f0f0"/>
      <rect id="Rectangle_474" data-name="Rectangle 474" width="123.073" height="4.327" transform="translate(182.456 214.001) rotate(180)" fill="#f0f0f0"/>
      <rect id="Rectangle_475" data-name="Rectangle 475" width="116.543" height="68.246" transform="translate(53.481 141.434)" fill="#f5f5f5"/>
      <rect id="Rectangle_476" data-name="Rectangle 476" width="92.346" height="22.381" transform="translate(65.579 149.833)" fill="#f0f0f0"/>
      <rect id="Rectangle_477" data-name="Rectangle 477" width="92.346" height="22.381" transform="translate(65.579 178.894)" fill="#f0f0f0"/>
      <rect id="Rectangle_478" data-name="Rectangle 478" width="30.394" height="3.072" rx="1.536" transform="translate(126.949 172.952) rotate(180)" fill="#f5f5f5"/>
      <rect id="Rectangle_479" data-name="Rectangle 479" width="30.394" height="3.072" rx="1.536" transform="translate(126.949 202.02) rotate(180)" fill="#f5f5f5"/>
      <path id="Path_795" data-name="Path 795" d="M383.08,331.937c.046-15.811.438-37.375,3.092-45.179l3.634-1.477s-.9,1.464-2.856,25.721c-1.85,22.648-2.052,18.6-1.915,20.916,0,.32-.444.588-1.007.575h0C383.5,332.479,383.08,332.237,383.08,331.937Z" transform="translate(-132.685 -134.76)" fill="#e6e6e6"/>
      <path id="Path_796" data-name="Path 796" d="M364.106,277.893c-5.262-4.373-16.74-7.648-28.819-7.883-4.745-.092,9,10.334,18.3,15.36,6.909,3.739,14.53,7.131,16.406,11.112C369.5,288.155,369.407,282.259,364.106,277.893Z" transform="translate(-115.795 -129.471)" fill="#e6e6e6"/>
      <path id="Path_797" data-name="Path 797" d="M370.089,312.38c-3.667-3.046-11.667-5.327-20.086-5.491-3.307-.065,6.275,7.19,12.752,10.707,4.811,2.615,10.125,4.968,11.432,7.759C373.853,319.538,373.762,315.459,370.089,312.38Z" transform="translate(-120.994 -142.245)" fill="#e6e6e6"/>
      <path id="Path_798" data-name="Path 798" d="M392.648,294.469c6.027-4.843,18.955-8.4,32.525-8.55,5.321-.052-6.719,10.635-19.459,15.563-8.837,3.445-17.988,9.327-20.2,13.811C386.294,305.947,386.621,299.339,392.648,294.469Z" transform="translate(-133.526 -134.982)" fill="#e6e6e6"/>
      <path id="Path_799" data-name="Path 799" d="M389.356,270.73c3.954-4.046,12.844-7.844,22.335-9.256,3.726-.556-1.229,6.772-12.739,12.883-6.072,3.216-12.145,8.5-13.452,11.9C385.533,279.515,385.4,274.769,389.356,270.73Z" transform="translate(-133.523 -126.505)" fill="#e6e6e6"/>
      <path id="Path_800" data-name="Path 800" d="M369.09,352.59l.961,18.674a.856.856,0,0,0,.85.81h21.112a.856.856,0,0,0,.85-.81l.961-18.674Z" transform="translate(-127.839 -158.074)" fill="#f0f0f0"/>
      <path id="Path_801" data-name="Path 801" d="M394.154,354.809H366.217l-.8-7.249h29.538Z" transform="translate(-126.568 -156.332)" fill="#f0f0f0"/>
    </g>
    <g id="freepik--Shadow--inject-1" transform="translate(36.676 289.762)">
      <ellipse id="freepik--path--inject-1" cx="126.734" cy="7.399" rx="126.734" ry="7.399" fill="#f5f5f5"/>
    </g>
    <g id="freepik--Icons--inject-1" transform="translate(113.151 53.57)">
      <path id="Path_802" data-name="Path 802" d="M381.041,79.991l-.621-.209A11.328,11.328,0,0,0,381,76.2h.654A12.086,12.086,0,0,1,381.041,79.991Z" transform="translate(-244.915 -61.408)" fill="#ffc100"/>
      <path id="Path_803" data-name="Path 803" d="M376.8,66.857a11.6,11.6,0,0,0-7.138-7.543l.222-.614a12.223,12.223,0,0,1,7.536,7.974Z" transform="translate(-241.188 -55.347)" fill="#ffc100"/>
      <path id="Path_804" data-name="Path 804" d="M368.335,70.968a9.883,9.883,0,1,0-13.217,9.295l6.785,2.615-1.288-2.242A9.883,9.883,0,0,0,368.335,70.968Z" transform="translate(-233.882 -56.169)" fill="#ffc100"/>
      <path id="Path_805" data-name="Path 805" d="M340.34,82.039a7.242,7.242,0,1,1,9.687,6.811l-4.974,1.961L346,89.1A7.255,7.255,0,0,1,340.34,82.039Z" transform="translate(-231.032 -60.92)" fill="#263238"/>
      <path id="Path_806" data-name="Path 806" d="M392.821,118.41c-2.739,2.418-8.556,4.209-11.9,3.922-1.706,10.968,7.465,19.7,7.465,19.7s11.72-4.8,14.105-15.648C399.265,125.443,394.494,121.659,392.821,118.41Z" transform="translate(-245.014 -76.028)" fill="#ffc100"/>
      <path id="Path_807" data-name="Path 807" d="M383.23,125.2c-.516,7.582,4.451,13.936,6.386,16.1,2.615-1.307,9.517-5.432,11.765-12.681A22.91,22.91,0,0,1,393.244,122,22.937,22.937,0,0,1,383.23,125.2Z" transform="translate(-245.875 -77.272)" fill="#fff" opacity="0.3"/>
      <path id="Path_808" data-name="Path 808" d="M212.55,67.494l8.942-9.5,11.844,5.458Z" transform="translate(-186.771 -55.101)" fill="#ffc100"/>
      <rect id="Rectangle_480" data-name="Rectangle 480" width="24.694" height="15.236" rx="2.69" transform="translate(24.054 12.732) rotate(-11.01)" fill="#ffc100"/>
      <path id="Path_809" data-name="Path 809" d="M212.55,70.386l11.85,5.451,8.935-9.5Z" transform="translate(-186.771 -57.993)" opacity="0.4"/>
      <path id="Path_810" data-name="Path 810" d="M212.88,58.714l2.974,8.713,8.661,3.987L231.5,64,227.933,53.57Z" transform="translate(-186.885 -53.57)" fill="#ffc100"/>
      <g id="Group_21" data-name="Group 21" transform="translate(25.995)" opacity="0.7">
        <path id="Path_811" data-name="Path 811" d="M212.88,58.714l2.974,8.713,8.661,3.987L231.5,64,227.933,53.57Z" transform="translate(-212.88 -53.57)" fill="#fff"/>
      </g>
      <path id="Path_812" data-name="Path 812" d="M202.892,117.066,201.716,117h0a6.538,6.538,0,0,0-.843-1.052l.2-1.163-2.883-1.588-.876.784h0a7.139,7.139,0,0,0-1.346-.15h0l-.654-.961-3.164.915-.065,1.183a6.25,6.25,0,0,0-1.059.843l-1.157-.2-1.588,2.889.778.869h0a7.09,7.09,0,0,0-.15,1.353h0l-.954.654.915,3.164,1.17.065h0a7.059,7.059,0,0,0,.843,1.059h0l-.2,1.157,2.889,1.588.869-.784a7.151,7.151,0,0,0,1.353.15h0l.654.961,3.164-.915.059-1.177h0a7.445,7.445,0,0,0,1.059-.85h0l1.157.2,1.588-2.883-.791-.876a6.581,6.581,0,0,0,.157-1.307h0l.961-.654Zm-6.118,6.889a3.268,3.268,0,1,1,1.959-1.562A3.268,3.268,0,0,1,196.774,123.956Z" transform="translate(-178.25 -74.109)" fill="#ffc100"/>
      <path id="Path_813" data-name="Path 813" d="M182.3,115.355l-.719-.039h0a3.8,3.8,0,0,0-.516-.654l.124-.712-1.765-.974-.543.484h0a3.817,3.817,0,0,0-.817-.091h0l-.418-.588-1.961.562-.039.719a3.8,3.8,0,0,0-.654.516l-.712-.124-.974,1.765.477.536h0a4.888,4.888,0,0,0-.092.83h0l-.582.412.556,1.961.719.039h0a4.614,4.614,0,0,0,.523.654h0l-.124.706,1.765.974.536-.477a4.969,4.969,0,0,0,.83.092h0l.412.588,1.961-.562.039-.719h0a4.574,4.574,0,0,0,.654-.516h0l.706.118.974-1.765-.484-.536a4.3,4.3,0,0,0,.1-.824h0l.582-.418Zm-3.379,5.412a3.268,3.268,0,1,1,2.229-4.033,3.268,3.268,0,0,1-2.229,4.033Z" transform="translate(-173.11 -74.078)" fill="#263238"/>
    </g>
    <g id="freepik--Character--inject-1" transform="translate(126.386 72.722)">
      <path id="Path_814" data-name="Path 814" d="M291.244,96.326c-3.033-.569-4.321,1.307-4.222,3.987s-2,6.536.654,7.053S294.519,96.934,291.244,96.326Z" transform="translate(-225.559 -87.495)" fill="#263238"/>
      <path id="Path_815" data-name="Path 815" d="M263.657,274.148c9.086-25.949,15.968-59.7,15.968-59.7l-24.884-.405s-3.83,42.65-5.961,60.762c-2.229,18.831-9.85,60.605-9.85,60.605l10.922,3.085S262.121,297.581,263.657,274.148Z" transform="translate(-209.143 -128.302)" fill="#263238"/>
      <path id="Path_816" data-name="Path 816" d="M283.144,243.34s-.726,19.929-1.614,31.46c2.34-7.484,4.464-15.177,6.281-22.224Z" transform="translate(-223.898 -138.451)" opacity="0.2"/>
      <path id="Path_817" data-name="Path 817" d="M240.235,410.623l-.935,5.321a.987.987,0,0,1-1.222.752c-1.615-.458-2.281-.928-5.085-1.765-3.268-.987-6.19-1.353-10.033-2.5-2.327-.7-1.307-3.536.654-3.517,4.144.046,6.491-1.412,8.654-2.039,1.039-1.713,2.425-8.151,2.425-8.151l8.8,3.144A90.332,90.332,0,0,0,240.235,410.623Z" transform="translate(-203.147 -192.269)" fill="#ffc100"/>
      <path id="Path_818" data-name="Path 818" d="M238.682,399.335l9.994,2.994a.876.876,0,0,0,1.039-.484l1.477-3.222a.83.83,0,0,0-.49-1.15l-10.831-3.432a.889.889,0,0,0-1.124.693l-.654,3.66a.83.83,0,0,0,.588.941Z" transform="translate(-208.849 -190.636)" fill="#263238"/>
      <path id="Path_819" data-name="Path 819" d="M238.682,399.335l9.994,2.994a.876.876,0,0,0,1.039-.484l1.477-3.222a.83.83,0,0,0-.49-1.15l-10.831-3.432a.889.889,0,0,0-1.124.693l-.654,3.66a.83.83,0,0,0,.588.941Z" transform="translate(-208.849 -190.636)" fill="#fff" opacity="0.1"/>
      <path id="Path_820" data-name="Path 820" d="M309.978,416.091l-1.02-4.575c-.314-2.785-.1-9.236-.1-9.236l-8.785.222s.654,5.883.621,7.955c-1.686,1.183-3.379,2.837-7.033,3.922a1.826,1.826,0,0,0,.719,3.523c3.771.065,6.445-.373,9.661-.314,2.745.046,3.066.314,4.641.314a1.379,1.379,0,0,0,1.3-1.811Z" transform="translate(-227.698 -193.502)" fill="#ffc100"/>
      <path id="Path_821" data-name="Path 821" d="M301.635,272.7c-.758-26.845,2.255-42.29-1.7-58.017l-22.635-.34s6.059,42.591,9.033,60.331,7.19,62.534,7.19,62.534l11.112.137S305.923,293.469,301.635,272.7Z" transform="translate(-222.433 -128.406)" fill="#263238"/>
      <path id="Path_822" data-name="Path 822" d="M301.789,402.516l10.51.163a.9.9,0,0,0,.928-.791l.36-3.477a.811.811,0,0,0-.784-.909l-11.445-.353a.889.889,0,0,0-.9,1.013l.569,3.66A.81.81,0,0,0,301.789,402.516Z" transform="translate(-230.45 -191.725)" fill="#263238"/>
      <path id="Path_823" data-name="Path 823" d="M301.789,402.516l10.51.163a.9.9,0,0,0,.928-.791l.36-3.477a.811.811,0,0,0-.784-.909l-11.445-.353a.889.889,0,0,0-.9,1.013l.569,3.66A.81.81,0,0,0,301.789,402.516Z" transform="translate(-230.45 -191.725)" fill="#fff" opacity="0.1"/>
      <path id="Path_824" data-name="Path 824" d="M259.818,128.57h-.078l-10.6-.8q-4.471-.366-8.9-.85a18.827,18.827,0,0,1-.994-2.026,33.5,33.5,0,0,1-1.471-4.386c-.412-1.536-.752-3.131-1.039-4.745s-.529-3.268-.732-4.87v-.131a2.262,2.262,0,0,0-4.464-.124,39.689,39.689,0,0,0-.562,5.484,42.377,42.377,0,0,0,.124,5.53,33.624,33.624,0,0,0,.994,5.661,22.315,22.315,0,0,0,2.405,5.719,3.719,3.719,0,0,0,2.392,1.7l.32.065c1.83.392,3.667.771,5.5,1.065s3.673.595,5.517.83,3.687.431,5.536.595,3.673.281,5.6.333a4.53,4.53,0,0,0,.458-9.04Z" transform="translate(-206.376 -91.849)" fill="#ff8b7b"/>
      <path id="Path_825" data-name="Path 825" d="M275.709,138.885a130.856,130.856,0,0,0-17.348-2.1,27.655,27.655,0,0,0,.255,14.086s2.582,1.307,9.909.405C276.716,150.212,282.605,140.29,275.709,138.885Z" transform="translate(-215.6 -101.542)" fill="#ffc100"/>
      <path id="Path_826" data-name="Path 826" d="M296.084,142.4a92.7,92.7,0,0,0-18.714-2.464c-6.824-.137-12.164,3.235-13.465,9.942a149.683,149.683,0,0,0-2.111,40.754c.052,2.425,30.8,2.216,33.335,0,1.1-8.661-.111-17.942,5.569-37.329C301.862,149.318,300.084,143.356,296.084,142.4Z" transform="translate(-216.875 -102.635)" fill="#ffc100"/>
      <path id="Path_827" data-name="Path 827" d="M285.782,153.389c-.131.562-.477.961-.778.889s-.431-.582-.3-1.144.477-.961.778-.889S285.912,152.853,285.782,153.389Z" transform="translate(-224.98 -106.896)" fill="#fff"/>
      <path id="Path_828" data-name="Path 828" d="M347.36,125.252a41.065,41.065,0,0,0,.216-5.837,2.392,2.392,0,0,0-4.693-.549l-.039.137c-.451,1.608-.948,3.353-1.5,4.987s-1.144,3.268-1.817,4.811a35.579,35.579,0,0,1-2.2,4.379,20.4,20.4,0,0,1-1.353,1.961q-4.706-.163-9.452-.464l-11.229-.771h-.059a4.792,4.792,0,0,0-.882,9.543c2.026.242,3.922.386,5.915.51s3.922.19,5.883.216,3.922,0,5.883,0,3.954-.15,5.935-.281h.353a3.922,3.922,0,0,0,2.758-1.418,23.314,23.314,0,0,0,3.379-5.628,35.094,35.094,0,0,0,1.909-5.772,44.618,44.618,0,0,0,1-5.824Z" transform="translate(-233.757 -94.733)" fill="#ff8b7b"/>
      <path id="Path_829" data-name="Path 829" d="M305.205,142.082a138.425,138.425,0,0,1,18.491.438,29.224,29.224,0,0,1-2.405,14.72s-2.909.987-10.458-1.085C302.421,153.834,297.76,142.533,305.205,142.082Z" transform="translate(-230.807 -103.334)" fill="#ffc100"/>
      <path id="Path_830" data-name="Path 830" d="M363.731,120.445l5.125-3.771-5.948-4.824s-4.223,4.02-2.53,6.634Z" transform="translate(-251.069 -92.908)" fill="#ff8b7b"/>
      <path id="Path_831" data-name="Path 831" d="M371.512,108.162l-2.36-1.307a2.144,2.144,0,0,0-2.771.595l-1.961,2.562,5.948,4.824,1.961-3.556A2.294,2.294,0,0,0,371.512,108.162Z" transform="translate(-252.608 -91.083)" fill="#ff8b7b"/>
      <path id="Path_832" data-name="Path 832" d="M354.021,161.155a2.268,2.268,0,0,0-2.915-1.307h-.078c-1.543.582-3.17,1.2-4.752,1.758s-3.183,1.111-4.772,1.595-3.17.909-4.726,1.307c-.882.2-1.758.359-2.615.484q-3.268-3.026-6.536-6.183l-7.563-7.491-.046-.046a4.53,4.53,0,0,0-6.5,6.295c1.307,1.418,2.615,2.706,3.922,4.007s2.686,2.556,4.085,3.785,2.8,2.438,4.242,3.615,2.928,2.327,4.425,3.451l.288.222a3.654,3.654,0,0,0,2.824.654,34.793,34.793,0,0,0,5.654-1.562,51.334,51.334,0,0,0,5.111-2.229q2.451-1.242,4.752-2.68a52.943,52.943,0,0,0,4.49-3.092A2.268,2.268,0,0,0,354.021,161.155Z" transform="translate(-234.581 -106.132)" fill="#ff8b7b"/>
      <path id="Path_833" data-name="Path 833" d="M313.948,144.373a130.985,130.985,0,0,1,12.975,11.7,27.636,27.636,0,0,1-10.785,9.059s-2.693-1.085-6.811-7.19C304.718,151.073,308.333,140.111,313.948,144.373Z" transform="translate(-232.798 -103.841)" fill="#ffc100"/>
      <path id="Path_834" data-name="Path 834" d="M373.259,167.054l5.706-1.961-4.236-5.883s-4.843,2.615-3.922,5.458Z" transform="translate(-254.78 -109.311)" fill="#ff8b7b"/>
      <path id="Path_835" data-name="Path 835" d="M383.559,158.174l-1.824-1.791a2.02,2.02,0,0,0-2.667-.144l-2.4,1.863,4.347,5.791,2.556-2.68A2.17,2.17,0,0,0,383.559,158.174Z" transform="translate(-256.851 -108.132)" fill="#ff8b7b"/>
      <path id="Path_836" data-name="Path 836" d="M288,146.018a6.19,6.19,0,0,1,1.431,3.922c6.072-1.039,11.112-4.053,11.766-8.079-1.026-.967-1.706-.8-1.706-.8A26.056,26.056,0,0,1,288,146.018Z" transform="translate(-226.139 -103.022)" fill="#fff"/>
      <path id="Path_837" data-name="Path 837" d="M285.307,145.5a7.366,7.366,0,0,0-4.236,2.347c-2.333-2.268.706-7.131,2.569-8.046a6.027,6.027,0,0,1,2.51-.176S283.569,141.008,285.307,145.5Z" transform="translate(-223.446 -102.509)" fill="#fff"/>
      <path id="Path_838" data-name="Path 838" d="M299.125,119.44c-1.17,3.713-2.647,10.21-1.157,13.942a2.157,2.157,0,0,1-.752,2.562,14.027,14.027,0,0,1-9.628,2.811c-3.883-.32-4.124-2.333-3.347-4.039a3.2,3.2,0,0,1,2.144-1.732c3.922-.961,4.1-4.268,3.667-7.458Z" transform="translate(-224.714 -95.537)" fill="#ff8b7b"/>
      <path id="Path_839" data-name="Path 839" d="M298.7,123.24l-5.366,3.6a14.709,14.709,0,0,1,.15,2.438c1.876-.046,4.647-1.778,5.059-3.687A6.484,6.484,0,0,0,298.7,123.24Z" transform="translate(-227.985 -96.853)" opacity="0.2"/>
      <path id="Path_840" data-name="Path 840" d="M302.838,105.413c-1.863,5.667-2.667,9.072-6.334,11.321-5.517,3.386-11.9-.954-11.765-7.02.131-5.464,3.151-13.8,9.36-14.74a7.909,7.909,0,0,1,8.739,10.439Z" transform="translate(-225.009 -87.026)" fill="#ff8b7b"/>
      <path id="Path_841" data-name="Path 841" d="M286.627,108.017a2.379,2.379,0,0,1-.765-.131,2.8,2.8,0,0,1-1.686-2.039,6.072,6.072,0,0,1,2.137-6.033,2.575,2.575,0,0,1,4.281,1.516,5.7,5.7,0,0,1-.209,3.327C289.7,106.664,288.131,108.017,286.627,108.017Zm1.5-8.536a2.785,2.785,0,0,0-1.628.588,5.726,5.726,0,0,0-2.02,5.7,2.471,2.471,0,0,0,1.484,1.817c1.49.529,3.34-.83,4.124-3.039h0a5.419,5.419,0,0,0,.2-3.131,2.5,2.5,0,0,0-1.49-1.824,1.961,1.961,0,0,0-.647-.111Z" transform="translate(-224.766 -88.506)" fill="#263238"/>
      <path id="Path_842" data-name="Path 842" d="M296.848,111.647a2.19,2.19,0,0,1-.765-.131c-1.654-.588-2.32-2.994-1.477-5.36a5.667,5.667,0,0,1,1.928-2.713,2.615,2.615,0,0,1,4.281,1.516,5.7,5.7,0,0,1-.209,3.327C299.894,110.3,298.319,111.647,296.848,111.647Zm1.5-8.536a2.863,2.863,0,0,0-1.634.588,5.4,5.4,0,0,0-1.817,2.562c-.778,2.2-.2,4.432,1.307,4.961s3.34-.837,4.124-3.039h0a5.386,5.386,0,0,0,.2-3.137,2.5,2.5,0,0,0-1.484-1.824,2.137,2.137,0,0,0-.693-.111Z" transform="translate(-228.301 -89.776)" fill="#263238"/>
      <path id="Path_843" data-name="Path 843" d="M294.414,107.891a.176.176,0,0,1-.118-.052.771.771,0,0,0-.784-.288.161.161,0,0,1-.1-.307,1.111,1.111,0,0,1,1.124.386.163.163,0,0,1,0,.222A.15.15,0,0,1,294.414,107.891Z" transform="translate(-227.978 -91.302)" fill="#263238"/>
      <path id="Path_844" data-name="Path 844" d="M308.168,114.322a.157.157,0,0,1-.091,0c-3.32-2.4-4.576-2.68-4.576-2.68a.16.16,0,0,1,.059-.314c.052,0,1.307.275,4.713,2.739a.163.163,0,0,1,.039.222.17.17,0,0,1-.144.033Z" transform="translate(-231.463 -92.726)" fill="#263238"/>
      <path id="Path_845" data-name="Path 845" d="M300.455,106.061c-2.222-2.072-.078-4.386,1.307-5.229,1.523-.941-.771-2.033,1.1-4.321-7.582.183-5.961-3.327-9.961-2.915-2.183.222-4.366-1.706-4.092-4.785.516-5.817,8.837-7.131,10.158-4.948-3.131.556-2.471,2.477-1.1,2.615,3.569.294,2.883,2.111,4.778,3.817,2.693,2.418,6.007.327,5.589,5.379,5.294,1.307,2.36,7.19-1,8.759A23.146,23.146,0,0,1,300.455,106.061Z" transform="translate(-226.411 -82.87)" fill="#263238"/>
      <path id="Path_846" data-name="Path 846" d="M315.75,100.093A3.732,3.732,0,0,0,319.5,95.91C321.489,99.636,319.077,100.806,315.75,100.093Z" transform="translate(-235.751 -87.387)" fill="#263238"/>
      <path id="Path_847" data-name="Path 847" d="M310.488,118.184a5.791,5.791,0,0,1-3.765,1.739c-1.784.065-2-1.739-.935-3.268.961-1.4,3.052-3.118,4.575-2.445S311.782,116.883,310.488,118.184Z" transform="translate(-232.077 -93.673)" fill="#ff8b7b"/>
      <path id="Path_848" data-name="Path 848" d="M311.381,119.766a1.77,1.77,0,1,1,.366-2.778A2.014,2.014,0,0,1,311.381,119.766Z" transform="translate(-233.133 -94.543)" fill="#263238"/>
      <path id="Path_849" data-name="Path 849" d="M292.439,123.512a1.157,1.157,0,1,1,1.758-.5,1.307,1.307,0,0,1-1.758.5Z" transform="translate(-227.513 -96.223)" fill="#263238"/>
      <path id="Path_850" data-name="Path 850" d="M296.9,122.651a15.125,15.125,0,0,1-3.347-.346.335.335,0,0,1,.15-.654c3.209.765,8.4.255,10.275-1.543a.327.327,0,0,1,.464,0,.32.32,0,0,1,0,.458C303,121.965,299.827,122.651,296.9,122.651Z" transform="translate(-227.972 -95.735)" fill="#263238"/>
      <path id="Path_851" data-name="Path 851" d="M297.991,109.46c-.157.458-.523.752-.824.654s-.412-.543-.255-1,.529-.752.824-.654S298.148,108.97,297.991,109.46Z" transform="translate(-229.201 -91.727)" fill="#263238"/>
      <path id="Path_852" data-name="Path 852" d="M289.391,106.46c-.157.458-.523.752-.824.654s-.412-.543-.255-1,.529-.752.824-.654S289.574,106,289.391,106.46Z" transform="translate(-226.223 -90.688)" fill="#263238"/>
      <path id="Path_853" data-name="Path 853" d="M290.978,109.33a41.372,41.372,0,0,0-4.1,2.438c.327,1.1,2.046,1.5,2.046,1.5Z" transform="translate(-225.751 -92.035)" fill="#ff5652"/>
      <path id="Path_854" data-name="Path 854" d="M290.651,118.178a4.026,4.026,0,0,0,3.144-.288.141.141,0,1,0-.144-.242,3.817,3.817,0,0,1-3.451.046.144.144,0,0,0-.19.065.137.137,0,0,0,.059.19,5.087,5.087,0,0,0,.582.229Z" transform="translate(-226.83 -94.909)" fill="#263238"/>
      <path id="Path_855" data-name="Path 855" d="M301.829,107.6a.268.268,0,0,0,.144,0,.281.281,0,0,0,.183-.359,2.726,2.726,0,0,0-1.8-1.811.294.294,0,0,0-.353.209.281.281,0,0,0,.2.34h0a2.177,2.177,0,0,1,1.412,1.451A.281.281,0,0,0,301.829,107.6Z" transform="translate(-230.294 -90.68)" fill="#263238"/>
      <path id="Path_856" data-name="Path 856" d="M288.29,102.656a.281.281,0,0,0,.268,0,2.242,2.242,0,0,1,2.046-.1.288.288,0,0,0,.386-.118.268.268,0,0,0-.1-.379,2.8,2.8,0,0,0-2.615.1.281.281,0,0,0,0,.5Z" transform="translate(-226.181 -89.42)" fill="#263238"/>
      <path id="Path_857" data-name="Path 857" d="M231.08,110.764l-4.53-3.922,5.974-4.072s3.673,4.092,1.869,6.471Z" transform="translate(-204.855 -89.763)" fill="#ff8b7b"/>
      <path id="Path_858" data-name="Path 858" d="M225.082,98.566l2.32-1.072a2.033,2.033,0,0,1,2.562.771l1.621,2.569-5.974,4.072-1.575-3.49a2.157,2.157,0,0,1,1.046-2.85Z" transform="translate(-203.916 -87.872)" fill="#ff8b7b"/>
      <path id="Path_859" data-name="Path 859" d="M250.439,154.456a4.412,4.412,0,0,0-5.883-2.137l-.2.091-.994.464-1.078.49c-.732.314-1.471.654-2.216.935-1.484.654-2.994,1.17-4.51,1.7s-3.052.994-4.575,1.405c-1.346.366-2.7.654-4.059.915-1.177-.3-2.418-.7-3.66-1.15-1.562-.569-3.151-1.229-4.732-1.922s-3.177-1.425-4.765-2.17L209,150.809h-.046a2.209,2.209,0,0,0-2.425,3.634c1.4,1.262,2.824,2.386,4.294,3.5s2.987,2.164,4.575,3.17a55.831,55.831,0,0,0,4.889,2.837,35.467,35.467,0,0,0,5.53,2.32,3.268,3.268,0,0,0,1.19.124h.275a48.787,48.787,0,0,0,5.549-.719c.922-.157,1.811-.373,2.719-.569s1.784-.451,2.667-.719c1.771-.5,3.5-1.1,5.229-1.778.85-.34,1.706-.654,2.543-1.079.418-.2.843-.386,1.262-.595s.81-.412,1.307-.693A4.419,4.419,0,0,0,250.439,154.456Z" transform="translate(-197.67 -106.329)" fill="#ff8b7b"/>
      <path id="Path_860" data-name="Path 860" d="M265.1,147.86a128.06,128.06,0,0,0-15.687,6.674,27,27,0,0,0,7.072,11.766s2.83-.144,8.576-4.484C271.49,157.011,271.634,145.729,265.1,147.86Z" transform="translate(-212.773 -105.288)" fill="#ffc100"/>
      <path id="Path_861" data-name="Path 861" d="M205.757,153.58l-5.837-.562,2.425-6.628s5.229,1.163,5.157,4.079Z" transform="translate(-195.631 -104.871)" fill="#ff8b7b"/>
      <path id="Path_862" data-name="Path 862" d="M193.621,147.615l1.235-2.164a1.961,1.961,0,0,1,2.471-.843l2.745,1.111-2.425,6.628-3.216-1.876A2.111,2.111,0,0,1,193.621,147.615Z" transform="translate(-193.359 -104.2)" fill="#ff8b7b"/>
    </g>
    <g id="freepik--Desk--inject-1" transform="translate(57.86 134.49)">
      <path id="Path_863" data-name="Path 863" d="M297.932,239.709H90.206a1.686,1.686,0,0,1-1.686-1.686h0a1.686,1.686,0,0,1,1.686-1.693H297.932a1.686,1.686,0,0,1,1.686,1.693h0A1.686,1.686,0,0,1,297.932,239.709Z" transform="translate(-88.52 -197.791)" fill="#ffc100"/>
      <rect id="Rectangle_481" data-name="Rectangle 481" width="9.916" height="12.53" rx="1.32" transform="translate(164.298 26.015)" fill="#ffc100"/>
      <path id="Path_864" data-name="Path 864" d="M352.664,228.864a4.5,4.5,0,1,1,4.491-4.5A4.5,4.5,0,0,1,352.664,228.864Zm0-7.68a3.19,3.19,0,1,0,3.183,3.183,3.19,3.19,0,0,0-3.183-3.183Z" transform="translate(-178.45 -192.09)" fill="#ffc100"/>
      <path id="Path_865" data-name="Path 865" d="M377.409,239.709H319.673a1.693,1.693,0,0,1-1.693-1.686h0a1.693,1.693,0,0,1,1.693-1.693h57.736a1.686,1.686,0,0,1,1.686,1.693h0A1.686,1.686,0,0,1,377.409,239.709Z" transform="translate(-167.996 -197.791)" opacity="0.3"/>
      <rect id="Rectangle_482" data-name="Rectangle 482" width="6.373" height="50.984" transform="translate(177.358 41.918)" fill="#263238"/>
      <path id="Path_866" data-name="Path 866" d="M379.47,241.5h12.158v1.216a1.4,1.4,0,0,1-1.4,1.4h-9.36a1.4,1.4,0,0,1-1.4-1.4V241.5Z" transform="translate(-189.294 -199.582)" fill="#263238"/>
      <rect id="Rectangle_483" data-name="Rectangle 483" width="9.523" height="50.984" transform="translate(175.783 80.267)" fill="#263238"/>
      <rect id="Rectangle_484" data-name="Rectangle 484" width="12.726" height="50.984" transform="translate(174.181 111.688)" fill="#263238"/>
      <path id="Path_867" data-name="Path 867" d="M371.2,424.733H343.68a2.843,2.843,0,0,1,2.843-2.843h21.838a2.843,2.843,0,0,1,2.843,2.843Z" transform="translate(-176.898 -262.062)" fill="#263238"/>
      <rect id="Rectangle_485" data-name="Rectangle 485" width="6.373" height="50.984" transform="translate(27.368 41.918)" fill="#263238"/>
      <rect id="Rectangle_486" data-name="Rectangle 486" width="9.523" height="50.984" transform="translate(25.793 80.267)" fill="#263238"/>
      <rect id="Rectangle_487" data-name="Rectangle 487" width="12.726" height="50.984" transform="translate(24.191 111.688)" fill="#263238"/>
      <path id="Path_868" data-name="Path 868" d="M141.735,424.733H114.21a2.843,2.843,0,0,1,2.843-2.843h21.858a2.843,2.843,0,0,1,2.843,2.843Z" transform="translate(-97.418 -262.062)" fill="#263238"/>
      <path id="Path_869" data-name="Path 869" d="M214.246,233.22H135.953a1.02,1.02,0,0,0-1.013,1.02h0a1.02,1.02,0,0,0,1.013,1.013h78.293a1.02,1.02,0,0,0,1.02-1.013h0A1.02,1.02,0,0,0,214.246,233.22Z" transform="translate(-104.598 -196.714)" fill="#ffc100"/>
      <path id="Path_870" data-name="Path 870" d="M214.246,233.22H135.953a1.02,1.02,0,0,0-1.013,1.02h0a1.02,1.02,0,0,0,1.013,1.013h78.293a1.02,1.02,0,0,0,1.02-1.013h0A1.02,1.02,0,0,0,214.246,233.22Z" transform="translate(-104.598 -196.714)" opacity="0.3"/>
      <path id="Path_871" data-name="Path 871" d="M183.672,177.37H128.113a2.464,2.464,0,0,0-2.484,2.9l4.575,31.721a3.484,3.484,0,0,0,3.32,2.9h55.559a2.464,2.464,0,0,0,2.484-2.9l-4.575-31.721A3.484,3.484,0,0,0,183.672,177.37Z" transform="translate(-101.36 -177.369)" fill="#ffc100"/>
      <path id="Path_872" data-name="Path 872" d="M166.436,181.749a2.909,2.909,0,0,0-2.51-4.379H128.113a2.464,2.464,0,0,0-2.484,2.9l4.575,31.721a3.484,3.484,0,0,0,3.32,2.9h10.327a5.569,5.569,0,0,0,4.8-2.758Z" transform="translate(-101.36 -177.369)" fill="#fff" opacity="0.2"/>
    </g>
  </g>
</svg>