<svg xmlns="http://www.w3.org/2000/svg" width="458.002" height="341.266" viewBox="0 0 458.002 341.266">
  <g id="Blank_canvas-rafiki" data-name="Blank canvas-rafiki" transform="translate(0 -55)">
    <g id="freepik--background-complete--inject-35" transform="translate(0 55)">
      <rect id="Rectangle_988" data-name="Rectangle 988" width="458.002" height="0.229" transform="translate(0 299.9)" fill="#ebebeb"/>
      <rect id="Rectangle_989" data-name="Rectangle 989" width="30.338" height="0.229" transform="translate(48.054 308.62)" fill="#ebebeb"/>
      <rect id="Rectangle_990" data-name="Rectangle 990" width="38.958" height="0.229" transform="translate(156.765 306.138)" fill="#ebebeb"/>
      <rect id="Rectangle_991" data-name="Rectangle 991" width="17.578" height="0.229" transform="translate(85.619 311.835)" fill="#ebebeb"/>
      <rect id="Rectangle_992" data-name="Rectangle 992" width="13.951" height="0.229" transform="translate(398.159 315.591)" fill="#ebebeb"/>
      <rect id="Rectangle_993" data-name="Rectangle 993" width="31.41" height="0.229" transform="translate(358.588 315.591)" fill="#ebebeb"/>
      <rect id="Rectangle_994" data-name="Rectangle 994" width="21.828" height="0.229" transform="translate(282.129 308.996)" fill="#ebebeb"/>
      <path id="Path_1783" data-name="Path 1783" d="M220.3,314.046H43.431a5.23,5.23,0,0,1-5.221-5.23V60.185A5.23,5.23,0,0,1,43.431,55H220.3a5.23,5.23,0,0,1,5.23,5.23V308.816A5.23,5.23,0,0,1,220.3,314.046ZM43.431,55.183a5,5,0,0,0-4.992,5V308.816a5,5,0,0,0,4.992,5H220.3a5.011,5.011,0,0,0,5-5V60.185a5.011,5.011,0,0,0-5-5Z" transform="translate(-3.209 -55)" fill="#ebebeb"/>
      <path id="Path_1784" data-name="Path 1784" d="M436.611,314.046H259.73a5.24,5.24,0,0,1-5.23-5.23V60.185A5.24,5.24,0,0,1,259.73,55h176.88a5.23,5.23,0,0,1,5.212,5.185V308.816A5.23,5.23,0,0,1,436.611,314.046ZM259.73,55.183a5.011,5.011,0,0,0-5,5V308.816a5.011,5.011,0,0,0,5,5h176.88a5.011,5.011,0,0,0,5-5V60.185a5.011,5.011,0,0,0-5-5Z" transform="translate(-21.377 -55)" fill="#ebebeb"/>
      <path id="Path_1785" data-name="Path 1785" d="M52.607,274.83H48.54l.769,98.535h6.742Z" transform="translate(-4.077 -73.465)" fill="#e0e0e0"/>
      <path id="Path_1786" data-name="Path 1786" d="M51.11,272.92h70.4L129.346,373.2h-70.4Z" transform="translate(-4.293 -73.304)" fill="#f5f5f5"/>
      <path id="Path_1787" data-name="Path 1787" d="M50.861,272.92H48.15L55.982,373.2h2.711Z" transform="translate(-4.044 -73.304)" fill="#ebebeb"/>
      <path id="Path_1788" data-name="Path 1788" d="M173.49,167H312l15.416,197.307H188.906Z" transform="translate(-14.572 -64.408)" fill="#f5f5f5"/>
      <path id="Path_1789" data-name="Path 1789" d="M268.246,241.878c4.507,7.8,13.273,12.082,21.828,14.83,4.012,1.3,9.316,1.969,11.652-1.548,1.832-2.748.66-6.485,1.484-9.682,1.447-5.606,8.143-7.713,13.8-8.977a50.169,50.169,0,0,0,7.823-2.427l-3.591-45.983a10.121,10.121,0,0,0-1.576,3.233c-.916,2.895.678,6.156-.357,9-.916,2.611-3.884,4.04-6.659,4.214s-5.5-.641-8.244-1.172c-10.873-2.143-22.955.394-30.915,8.088S262.713,232.287,268.246,241.878Z" transform="translate(-22.29 -66.179)" fill="#f5f5f5"/>
      <path id="Path_1790" data-name="Path 1790" d="M173.49,167l7.8,100.293a70.141,70.141,0,0,0,5.423,5.5c5.011,4.58,10.736,8.583,17.221,10.653a30.816,30.816,0,0,0,6.76,1.347c-4.2,5.753-5.313,14.116-1.008,19.749,2.327,3.041,5.835,4.91,8.839,7.328s5.716,5.826,5.313,9.636c-.284,2.748-2.162,5.093-4.058,7.136-7.328,7.923-16.36,14.656-21.306,24.274-1.484,2.876-2.583,6.146-1.933,9.307a9.252,9.252,0,0,0,.7,2.1h66.493a34.735,34.735,0,0,0,.632-23.816c-4.424-12.824-15.865-22.561-28.717-27,5.5-5.1,13.016-7.328,20.28-9.27s14.8-3.737,20.821-8.244c9.984-7.456,12.421-28.35-4.681-27.59-4.965.22-9.352,3.087-14.555,3.215s-10.305,0-15.371.33a35.43,35.43,0,0,0,5.331-7.749c2.3-4.58,3.728-9.746,2.684-14.729-2.675-12.769-19.117-17.477-25.41-28.909-7.6-13.8,2.162-31.419-2.134-46.588A23.816,23.816,0,0,0,219.327,167Z" transform="translate(-14.572 -64.408)" fill="#f5f5f5"/>
      <path id="Path_1791" data-name="Path 1791" d="M173.49,167l7.8,100.293a70.146,70.146,0,0,0,5.423,5.5c5.011,4.58,10.736,8.583,17.221,10.653a30.816,30.816,0,0,0,6.76,1.347c11.56,1.035,23.523-4.113,31.364-12.879a35.431,35.431,0,0,0,5.331-7.749c2.3-4.58,3.728-9.746,2.684-14.729-2.675-12.769-19.117-17.477-25.41-28.909-7.6-13.8,2.162-31.419-2.134-46.588a23.816,23.816,0,0,0-3.279-6.962Z" transform="translate(-14.572 -64.405)" fill="#e6e6e6"/>
      <path id="Path_1792" data-name="Path 1792" d="M198.673,371.5a9.252,9.252,0,0,0,.7,2.1h66.456a34.735,34.735,0,0,0,.632-23.816c-4.424-12.824-15.865-22.561-28.717-27,5.5-5.1,13.016-7.328,20.28-9.27s14.8-3.737,20.821-8.244c9.984-7.456,12.421-28.35-4.681-27.59-4.965.22-9.352,3.087-14.555,3.215s-10.305,0-15.371.33a62.99,62.99,0,0,0-10.516,1.392c-7.41,1.658-14.922,4.58-19.9,10.287a11.241,11.241,0,0,0-.916,1.2c-4.2,5.753-5.313,14.116-1.008,19.749,2.327,3.041,5.835,4.91,8.839,7.328s5.716,5.826,5.313,9.636c-.284,2.748-2.162,5.093-4.058,7.136-7.328,7.923-16.36,14.656-21.306,24.274C199.122,365.074,198.041,368.344,198.673,371.5Z" transform="translate(-16.672 -73.702)" fill="#fff"/>
      <path id="Path_1793" data-name="Path 1793" d="M268.246,241.878c4.507,7.8,13.273,12.082,21.828,14.83,4.012,1.3,9.316,1.969,11.652-1.548,1.832-2.748.66-6.485,1.484-9.682,1.447-5.606,8.143-7.713,13.8-8.977a50.169,50.169,0,0,0,7.823-2.427l-3.591-45.983a10.121,10.121,0,0,0-1.576,3.233c-.916,2.895.678,6.156-.357,9-.916,2.611-3.884,4.04-6.659,4.214s-5.5-.641-8.244-1.172c-10.873-2.143-22.955.394-30.915,8.088S262.713,232.287,268.246,241.878Z" transform="translate(-22.29 -66.179)" fill="#f0f0f0"/>
      <path id="Path_1794" data-name="Path 1794" d="M171.558,170.6l-3.408-.769,4.891,194.715h12.329Z" transform="translate(-14.124 -64.645)" fill="#e0e0e0"/>
      <path id="Path_1795" data-name="Path 1795" d="M173,167h-5.34l15.416,197.307h5.34Z" transform="translate(-14.083 -64.408)" fill="#ebebeb"/>
      <path id="Path_1796" data-name="Path 1796" d="M315.89,218.11H421.533L433.294,368.6H327.652Z" transform="translate(-26.534 -68.701)" fill="#f5f5f5"/>
      <path id="Path_1797" data-name="Path 1797" d="M315.516,218.11H311.44l6.742,150.49h6.742Z" transform="translate(-26.16 -68.701)" fill="#e0e0e0"/>
      <path id="Path_1798" data-name="Path 1798" d="M315.516,218.11H311.44L323.2,368.6h4.076Z" transform="translate(-26.16 -68.701)" fill="#ebebeb"/>
      <rect id="Rectangle_995" data-name="Rectangle 995" width="20.335" height="56.179" transform="translate(93.542 74.911) rotate(180)" fill="#ebebeb"/>
      <rect id="Rectangle_996" data-name="Rectangle 996" width="276.862" height="56.179" transform="translate(370.404 74.911) rotate(180)" fill="#f5f5f5"/>
      <rect id="Rectangle_997" data-name="Rectangle 997" width="45.186" height="265.87" transform="translate(364.899 24.228) rotate(90)" fill="#e6e6e6"/>
      <rect id="Rectangle_998" data-name="Rectangle 998" width="45.186" height="23.001" transform="translate(170.423 24.219) rotate(90)" fill="#e0e0e0"/>
      <rect id="Rectangle_999" data-name="Rectangle 999" width="45.186" height="5.285" transform="translate(175.708 24.219) rotate(90)" fill="#f5f5f5"/>
      <rect id="Rectangle_1000" data-name="Rectangle 1000" width="32.976" height="30.53" rx="2.44" transform="translate(350.811 69.415) rotate(180)" fill="#fafafa"/>
      <rect id="Rectangle_1001" data-name="Rectangle 1001" width="26.363" height="3.765" rx="0.77" transform="translate(347.504 38.884) rotate(180)" fill="#fff"/>
      <path id="Path_1799" data-name="Path 1799" d="M0,0H25.245a1.218,1.218,0,0,1,1.218,1.218V15.059a1.218,1.218,0,0,1-1.218,1.218H0Z" transform="translate(350.811 62.288) rotate(180)" fill="#f0f0f0"/>
      <rect id="Rectangle_1002" data-name="Rectangle 1002" width="32.976" height="30.53" rx="2.44" transform="translate(311.936 69.415) rotate(180)" fill="#f5f5f5"/>
      <rect id="Rectangle_1003" data-name="Rectangle 1003" width="26.363" height="3.765" rx="0.77" transform="translate(308.629 38.884) rotate(180)" fill="#fff"/>
      <path id="Path_1800" data-name="Path 1800" d="M0,0H25.245a1.218,1.218,0,0,1,1.218,1.218V15.059a1.218,1.218,0,0,1-1.218,1.227H0Z" transform="translate(311.936 62.288) rotate(180)" fill="#ebebeb"/>
      <rect id="Rectangle_1004" data-name="Rectangle 1004" width="22.836" height="21.151" rx="1.69" transform="translate(283.934 69.415) rotate(180)" fill="#fafafa"/>
      <rect id="Rectangle_1005" data-name="Rectangle 1005" width="18.256" height="2.611" rx="0.53" transform="translate(281.644 48.264) rotate(180)" fill="#fff"/>
      <path id="Path_1801" data-name="Path 1801" d="M0,0H12.045a.843.843,0,0,1,.843.843v9.591a.843.843,0,0,1-.843.843H0Z" transform="translate(283.934 64.478) rotate(180)" fill="#f0f0f0"/>
      <rect id="Rectangle_1006" data-name="Rectangle 1006" width="22.836" height="21.151" rx="1.69" transform="translate(133.938 69.415) rotate(180)" fill="#f5f5f5"/>
      <rect id="Rectangle_1007" data-name="Rectangle 1007" width="18.256" height="2.611" rx="0.53" transform="translate(131.648 48.264) rotate(180)" fill="#fff"/>
      <rect id="Rectangle_1008" data-name="Rectangle 1008" width="18.329" height="11.276" rx="2.12" transform="translate(132.399 64.478) rotate(180)" fill="#ebebeb"/>
      <rect id="Rectangle_1009" data-name="Rectangle 1009" width="32.875" height="34.881" transform="translate(251.269 69.415) rotate(180)" fill="#f0f0f0"/>
      <rect id="Rectangle_1010" data-name="Rectangle 1010" width="32.875" height="4.608" transform="translate(251.269 39.141) rotate(180)" fill="#fff"/>
      <rect id="Rectangle_1011" data-name="Rectangle 1011" width="5.862" height="34.881" transform="translate(227.838 69.415) rotate(180)" fill="#e0e0e0" opacity="0.3"/>
      <rect id="Rectangle_1012" data-name="Rectangle 1012" width="2.931" height="34.881" transform="translate(233.37 69.415) rotate(180)" fill="#e0e0e0" opacity="0.3"/>
      <rect id="Rectangle_1013" data-name="Rectangle 1013" width="29.468" height="31.263" transform="translate(215.142 69.415) rotate(180)" fill="#e0e0e0"/>
      <rect id="Rectangle_1014" data-name="Rectangle 1014" width="29.468" height="4.131" transform="translate(215.142 42.283) rotate(180)" fill="#f0f0f0"/>
      <rect id="Rectangle_1015" data-name="Rectangle 1015" width="5.249" height="31.263" transform="translate(194.138 69.415) rotate(180)" fill="#f5f5f5" opacity="0.3"/>
      <rect id="Rectangle_1016" data-name="Rectangle 1016" width="2.629" height="31.263" transform="translate(199.093 69.415) rotate(180)" fill="#f5f5f5" opacity="0.3"/>
    </g>
    <g id="freepik--Shadow--inject-35" transform="translate(51.397 375.528)">
      <ellipse id="freepik--path--inject-35" cx="177.604" cy="10.369" rx="177.604" ry="10.369" fill="#f5f5f5"/>
    </g>
    <g id="freepik--Canvas--inject-35" transform="translate(114.152 76.828)">
      <path id="Path_1802" data-name="Path 1802" d="M154.36,386.1h5.285L170.372,90.33h-5.294Z" transform="translate(-127.118 -79.796)" fill="#ffc100"/>
      <path id="Path_1803" data-name="Path 1803" d="M246.544,386.1h-5.294L192.06,90.33h5.294Z" transform="translate(-130.285 -79.796)" fill="#ffc100"/>
      <path id="Path_1804" data-name="Path 1804" d="M124.62,385.133h5.294l50.966-306.3h-5.295Z" transform="translate(-124.62 -78.83)" fill="#ffc100"/>
      <rect id="Rectangle_1017" data-name="Rectangle 1017" width="23.834" height="3.783" transform="translate(64.642 18.448) rotate(180)" fill="#ffc100"/>
      <rect id="Rectangle_1018" data-name="Rectangle 1018" width="59.641" height="4.122" transform="translate(94.88 199.387) rotate(180)" fill="#ffc100"/>
      <rect id="Rectangle_1019" data-name="Rectangle 1019" width="0.916" height="4.223" transform="translate(2.579 50.867) rotate(-4.26)" fill="#ffc100"/>
      <rect id="Rectangle_1020" data-name="Rectangle 1020" width="0.916" height="15.096" transform="translate(1.093 30.943) rotate(-4.25)" fill="#ffc100"/>
      <path id="Path_1805" data-name="Path 1805" d="M139.67,252.655l1.814.018L130.034,97.548l-1.814-.018Z" transform="translate(-124.922 -80.401)" fill="#ffc100"/>
      <path id="Path_1806" data-name="Path 1806" d="M141.65,252.675l107.621,1.035L237.821,98.585,130.2,97.55Z" transform="translate(-125.089 -80.402)" fill="#ffc100"/>
      <path id="Path_1807" data-name="Path 1807" d="M141.65,252.675l107.621,1.035L237.821,98.585,130.2,97.55Z" transform="translate(-125.089 -80.402)" fill="#fff" opacity="0.8"/>
      <path id="Path_1808" data-name="Path 1808" d="M144.9,251.957l102.647.055-11.1-152.368L132.32,99.58Z" transform="translate(-125.267 -80.573)" fill="#fff"/>
      <path id="Path_1809" data-name="Path 1809" d="M191.936,268.522h27.48a2.116,2.116,0,0,0,2.1-1.9l.586-5.5H190.379l-.54,5.011a2.116,2.116,0,0,0,2.1,2.382Z" transform="translate(-130.097 -94.142)" fill="#ffc100"/>
    </g>
    <g id="freepik--Character--inject-35" transform="translate(255.253 99.468)">
      <path id="Path_1810" data-name="Path 1810" d="M313.157,171.385a18.208,18.208,0,0,1-2.959-1.456c-1.044-.632-2.125-1.319-3.188-2.07-2.134-1.5-4.259-3.16-6.366-4.864-4.186-3.435-6.22-4.891-10.278-8.565l-4.177,3.756a95.848,95.848,0,0,0,8.986,10.791c1.988,2.07,4.067,4.076,6.32,6.009,1.127.916,2.3,1.924,3.572,2.821a27.6,27.6,0,0,0,4.342,2.583,14.008,14.008,0,0,0,3.069,1.008,8.336,8.336,0,0,0,4.992-.5,7.53,7.53,0,0,0,2.583-1.951,8.115,8.115,0,0,0,.843-1.191c.2-.366.4-.769.55-1.118l.192-.522.137-.431.165-.55Z" transform="translate(-279.292 -107.819)" fill="#ffb573"/>
      <path id="Path_1811" data-name="Path 1811" d="M296.854,227.863c1.75-10.149,4.369-15.325,5.588-17.3.971-2.8,2.382-5.075,3.05-8.519-.678-12.632-.22-30.109,1.172-32.976.8-1.264,6.412-4.342,6.861-4.452.843-8.079,6.559-15.16,6.559-15.16a32.279,32.279,0,0,1,4.388,0c-5.661,7.53-6.412,12.394-6.861,14.39a73.529,73.529,0,0,1,18.109-.284c1.63-8.052,8.5-12.714,8.5-12.714a17.4,17.4,0,0,1,3.536.806c-5.872,6.339-6.962,10.268-7.685,12.458,2.464.366,5.267,5.093,5.267,5.093-4.012,16.342-6.962,30.576-7.035,34.085s1.337,2.748,1.832,5.917c4.8.6,5.23,1.521,5.23,1.521a7.676,7.676,0,0,1-.513,3.563,20.777,20.777,0,0,0-5.02-1.127c-4.516,24.036-10.836,47.1-11.3,70.322L278.69,282.1S290.076,238.883,296.854,227.863Z" transform="translate(-278.662 -107.395)" fill="#fff"/>
      <path id="Path_1812" data-name="Path 1812" d="M293.288,155.758l-1.392-5.7-7.9,4.223s2.446,6.513,6.11,5.917l2.235-1.713A2.647,2.647,0,0,0,293.288,155.758Z" transform="translate(-279.108 -107.452)" fill="#ffb573"/>
      <path id="Path_1813" data-name="Path 1813" d="M287.122,143.53l-4.672,7.053,1.4,3.151,7.914-4.223Z" transform="translate(-278.978 -106.904)" fill="#ffb573"/>
      <path id="Path_1814" data-name="Path 1814" d="M348.668,130.16c-2.18,5.4-5.285,15.325-2.253,19.236-3.545,2.748-8.088,5.89-14.555,5.679s-4.433-4.58-2.253-6.833c6.33-1.035,7.1-5.569,6.916-9.884Z" transform="translate(-282.761 -105.781)" fill="#ffb573"/>
      <path id="Path_1815" data-name="Path 1815" d="M331.283,116.312a.348.348,0,0,0,.339,0,2.748,2.748,0,0,1,2.556-.11.357.357,0,0,0,.348-.623,3.517,3.517,0,0,0-3.233.11.348.348,0,0,0-.147.476A.3.3,0,0,0,331.283,116.312Z" transform="translate(-283.065 -104.527)" fill="#263238"/>
      <path id="Path_1816" data-name="Path 1816" d="M331.365,120a21.6,21.6,0,0,1-3.875,4.461,3.49,3.49,0,0,0,2.748,1.118Z" transform="translate(-282.761 -104.927)" fill="#ed893e"/>
      <path id="Path_1817" data-name="Path 1817" d="M331.589,120.1c-.119.586-.54,1.008-.916.916s-.6-.632-.476-1.218.54-1.008.916-.916S331.718,119.5,331.589,120.1Z" transform="translate(-282.986 -104.832)" fill="#263238"/>
      <path id="Path_1818" data-name="Path 1818" d="M351.67,121.506c-1.969,7.163-2.748,11.45-7.191,14.409-6.687,4.452-14.94-.742-15.16-8.345-.192-6.852,3.05-17.4,10.754-18.806a10.122,10.122,0,0,1,11.6,12.742Z" transform="translate(-282.914 -103.969)" fill="#ffb573"/>
      <path id="Path_1819" data-name="Path 1819" d="M336.022,122.291a10.021,10.021,0,0,0,.256,9.059c1.475,3,2.62,4.836,8.3,5.789s3.765-6.861,6.412-9.966,12.055-12.824,2.537-15.261c2.043-7.181-3.114-9.572-9.691-7.585s-15.48,4.443-14.271.458c0,0-7.841,9.875,9.16,8.7C333.128,118.27,336.022,122.291,336.022,122.291Z" transform="translate(-282.784 -103.555)" fill="#263238"/>
      <path id="Path_1820" data-name="Path 1820" d="M340.049,105.263a18.375,18.375,0,0,1,9.719-1.612c5.313.44,9.49,3.206,10.992,10.607s.458,13.823-3.133,13.181c-1.182-1.493-6.046,2.473-6.046,2.473-1.017,2.024-7.96-3.124-10.937-9S335.735,105.95,340.049,105.263Z" transform="translate(-283.605 -103.545)" fill="#ffc100"/>
      <path id="Path_1821" data-name="Path 1821" d="M340.049,105.263a18.375,18.375,0,0,1,9.719-1.612c5.313.44,9.49,3.206,10.992,10.607s.458,13.823-3.133,13.181c-1.182-1.493-6.046,2.473-6.046,2.473-1.017,2.024-7.96-3.124-10.937-9S335.735,105.95,340.049,105.263Z" transform="translate(-283.605 -103.545)" fill="#fff" opacity="0.3"/>
      <path id="Path_1822" data-name="Path 1822" d="M336.868,105.833c-2.446.4-1.576,8.143,1.172,14.5s7.4,11.862,12.155,12.623a4.021,4.021,0,0,0,1.273-2.9c-1.319-.916-5.963-3.307-10.232-11.853s-1.319-12.824-1.319-12.824C339.781,104.825,336.868,105.833,336.868,105.833Z" transform="translate(-283.428 -103.685)" fill="#ffc100"/>
      <path id="Path_1823" data-name="Path 1823" d="M338.834,123.706a6.769,6.769,0,0,1-2.748,3.664c-1.722,1.108-2.922-.238-2.748-2.143.174-1.7,1.282-4.342,3.142-4.681S339.384,121.874,338.834,123.706Z" transform="translate(-283.251 -104.97)" fill="#ffb573"/>
      <path id="Path_1824" data-name="Path 1824" d="M319.424,406.311H311.94l1.493-17.331h7.484Z" transform="translate(-281.455 -127.521)" fill="#ffb573"/>
      <path id="Path_1825" data-name="Path 1825" d="M309.75,407h9.114a.65.65,0,0,1,.641.513l1.475,6.65a1.09,1.09,0,0,1-1.09,1.328c-2.94-.046-5.075-.22-8.775-.22-2.272,0-7.273.238-10.415.238s-3.545-3.105-2.263-3.389c5.762-1.264,8.244-3,10.076-4.662A1.832,1.832,0,0,1,309.75,407Z" transform="translate(-280.264 -129.034)" fill="#263238"/>
      <path id="Path_1826" data-name="Path 1826" d="M320.983,388.99H313.5l-.769,8.931h7.484Z" transform="translate(-281.521 -127.521)" opacity="0.2"/>
      <path id="Path_1827" data-name="Path 1827" d="M287.534,139.116c-.916.284-.751.769-.861,1.2l-.229,1.319-.458,2.638-.843,5.294q-.394,2.638-.76,5.3c-.2,1.777-.458,3.545-.623,5.331a.467.467,0,0,0,.916.156c.467-1.731.843-3.472,1.264-5.212s.769-3.49,1.127-5.24l1.044-5.249.486-2.638.247-1.31c0-.449.366-.843-.394-1.438A1.008,1.008,0,0,0,287.534,139.116Z" transform="translate(-279.088 -106.529)" fill="#263238"/>
      <path id="Path_1828" data-name="Path 1828" d="M288.012,138.933c.962.183,2.748-.412,2.189-2.849s-2.043-3.014-.128-4.754C286.437,133.428,284.8,138.292,288.012,138.933Z" transform="translate(-279.301 -105.879)" fill="#ffc100"/>
      <path id="Path_1829" data-name="Path 1829" d="M355.98,157.566c-10.452,27.26-8.418,54.96-9.664,60.823l-39.828-1.237c-1.053-34.982,4.745-57.214,8.336-63.864a4.8,4.8,0,0,1,3.453-2.492c1.053-.165,2.409-.348,3.93-.513,1.108-.119,2.3-.229,3.545-.3.678-.046,1.374-.073,2.079-.092a145.289,145.289,0,0,1,16.818,1.154c1.044.128,2.107.284,3.133.449s1.878.33,2.748.5c1.108.211,2.143.44,3.059.65a3.536,3.536,0,0,1,2.391,4.919Z" transform="translate(-280.986 -107.438)" fill="#ffc100"/>
      <path id="Path_1830" data-name="Path 1830" d="M310.375,168l-1.255,4.58c30.274,9.783,17.908-23.147,17.908-23.147a16.021,16.021,0,0,0-4.388,0C328.5,165.814,322.952,173.82,310.375,168Z" transform="translate(-281.218 -107.387)" fill="#fff"/>
      <path id="Path_1831" data-name="Path 1831" d="M327.563,161.92c7.145-.256,10.589,12.568,10.589,12.568l-.916.687,6.238,10.791-7.328,4.269L329.3,179.727l-1.74,1.292a26.748,26.748,0,0,1-7.191-8.436C316.415,165.181,318.9,162.213,327.563,161.92Z" transform="translate(-282.009 -108.448)" opacity="0.2"/>
      <path id="Path_1832" data-name="Path 1832" d="M345.834,187.124a9.433,9.433,0,0,0-.4-1.832,8.439,8.439,0,0,0-.3-.815l-.275-.614c-.522-1.163-1.035-2.345-1.612-3.472a71.619,71.619,0,0,0-3.783-6.632,73.851,73.851,0,0,0-4.433-6.192c-.806-.989-1.621-1.96-2.482-2.913-.421-.485-.87-.916-1.31-1.429l-.705-.705-.779-.76L321.918,170l1.008,1.09c.366.394.733.788,1.1,1.2.724.815,1.438,1.667,2.134,2.519,1.42,1.7,2.748,3.462,4.085,5.258s2.565,3.664,3.71,5.5c.568.87,1.072,1.768,1.594,2.666a12.285,12.285,0,0,1-2.143,1.255,39.828,39.828,0,0,1-6.018,2.143c-4.3,1.2-8.931,2.116-13.456,2.94l.229,5.615a78.493,78.493,0,0,0,14.867-.431,42.137,42.137,0,0,0,7.722-1.676,19.739,19.739,0,0,0,4.177-1.9,12.312,12.312,0,0,0,2.253-1.759,9.334,9.334,0,0,0,2.07-3.032,8.638,8.638,0,0,0,.586-4.269Z" transform="translate(-281.622 -108.435)" fill="#ffb573"/>
      <path id="Path_1833" data-name="Path 1833" d="M316.294,197l-5.844.6,3.114,8.4s6.788-1.53,6.7-5.24l-1.392-2.446A2.656,2.656,0,0,0,316.294,197Z" transform="translate(-281.33 -111.394)" fill="#ffb573"/>
      <path id="Path_1834" data-name="Path 1834" d="M304.7,200.421l1.182,7.786,7.2-2.1-3.114-8.409Z" transform="translate(-280.847 -111.454)" fill="#ffb573"/>
      <path id="Path_1835" data-name="Path 1835" d="M323.265,150.254c7.117.751,15.783,18.723,15.783,18.723l-11.908,7.969s-4.946-1.75-10.278-9.3C310.478,158.562,313.967,149.292,323.265,150.254Z" transform="translate(-281.595 -107.463)" fill="#ffc100"/>
      <path id="Path_1836" data-name="Path 1836" d="M320.834,223.8s-8.171,58.807-10.3,80.672c-2.336,23.981-1.328,76.734-1.328,76.734h13.74s3.847-52.753,8.162-76.138c4.91-26.628,19.236-66.529,15.462-80.462Z" transform="translate(-281.208 -113.646)" fill="#263238"/>
      <path id="Path_1837" data-name="Path 1837" d="M323.646,242.92c-.495.165-2.675.421-4.965.8-1.658,12.329-3.847,28.827-5.551,42.75C319.469,275.374,325.368,253.985,323.646,242.92Z" transform="translate(-281.555 -115.252)" opacity="0.2"/>
      <path id="Path_1838" data-name="Path 1838" d="M307.955,396.407h16.14l.66-4.818L307.9,390.81Z" transform="translate(-281.116 -127.674)" fill="#ffc100"/>
      <path id="Path_1839" data-name="Path 1839" d="M307.955,396.407h16.14l.66-4.818L307.9,390.81Z" transform="translate(-281.116 -127.674)" opacity="0.2"/>
      <path id="Path_1840" data-name="Path 1840" d="M320.55,400.6Z" transform="translate(-282.178 -128.497)" fill="#ffc100"/>
      <path id="Path_1841" data-name="Path 1841" d="M307.974,408.206a9.159,9.159,0,0,0,1.96-.266.174.174,0,0,0,.137-.147.183.183,0,0,0-.082-.183c-.275-.165-2.684-1.649-3.517-1.227a.577.577,0,0,0-.3.5,1.081,1.081,0,0,0,.366.916,2.263,2.263,0,0,0,1.438.4Zm1.447-.522a3.634,3.634,0,0,1-2.656-.128.742.742,0,0,1-.238-.641c0-.147.064-.192.11-.211C307.067,406.484,308.441,407.125,309.421,407.684Z" transform="translate(-280.97 -128.976)" fill="#ffc100"/>
      <path id="Path_1842" data-name="Path 1842" d="M310.037,407.779a.174.174,0,0,0,.174-.192c0-.092-.183-2.244-1.053-2.959a1.016,1.016,0,0,0-.76-.229h0a.577.577,0,0,0-.559.467c-.156.834,1.337,2.473,2.107,2.895Zm-1.511-3.032a.641.641,0,0,1,.4.156,4.3,4.3,0,0,1,.916,2.345c-.769-.586-1.722-1.832-1.63-2.318,0-.046,0-.147.257-.174h.082Z" transform="translate(-281.11 -128.815)" fill="#ffc100"/>
      <path id="Path_1843" data-name="Path 1843" d="M312.907,398.085l-7.246,2.528-3.911-16.525L309,381.56Z" transform="translate(-280.599 -126.897)" fill="#ffb573"/>
      <path id="Path_1844" data-name="Path 1844" d="M304.751,402.652c-.046-.073-.916-1.9-2.1-2.3a1.329,1.329,0,0,0-1.026.055c-.366.183-.458.4-.458.586a.45.45,0,0,0,0,.11c.174.843,2.409,1.74,3.4,1.832a.165.165,0,0,0,.119,0h0a.183.183,0,0,0,.064-.284Zm-3.224-1.612a.211.211,0,0,1,.1-.211.761.761,0,0,1,.156-.1.97.97,0,0,1,.412-.1,1.162,1.162,0,0,1,.348.064,4.159,4.159,0,0,1,1.722,1.832C303.212,402.313,301.628,401.544,301.527,401.04Z" transform="translate(-280.55 -128.469)" fill="#ffc100"/>
      <path id="Path_1845" data-name="Path 1845" d="M304.575,403.068a.183.183,0,0,0,.055-.174.174.174,0,0,0-.147-.137c-.385-.055-3.728-.44-4.406.348a.55.55,0,0,0-.11.55h0a1.008,1.008,0,0,0,.6.7c1.026.394,2.931-.632,3.975-1.273Zm-4.177.22c.458-.376,2.2-.357,3.508-.238-1.447.824-2.629,1.191-3.206.962a.632.632,0,0,1-.394-.458.193.193,0,0,1,0-.211.311.311,0,0,1,.119-.055Z" transform="translate(-280.447 -128.666)" fill="#ffc100"/>
      <path id="Path_1846" data-name="Path 1846" d="M304.331,401.507l7.658-2.83a.65.65,0,0,1,.779.257l3.664,5.725a1.09,1.09,0,0,1-.55,1.64c-2.748.971-6.833,2.29-10.305,3.572-4.067,1.5-4.04,1.685-8.812,3.444-2.876,1.072-4.754-1.548-3.664-2.253,5.047-3.233,6.036-3.664,9.691-8.363A3.454,3.454,0,0,1,304.331,401.507Z" transform="translate(-279.846 -128.331)" fill="#263238"/>
      <path id="Path_1847" data-name="Path 1847" d="M301.76,384.1l2.006,8.519,7.255-2.537-2.015-8.519Z" transform="translate(-280.6 -126.897)" opacity="0.2"/>
      <path id="Path_1848" data-name="Path 1848" d="M301.331,299.218c6.348-15.929,29.01-75.112,29.01-75.112l-26.179-.815s-17.4,48.878-24.247,71.393c-7.145,23.413,18.54,82.733,18.54,82.733l13.172-4.113S294.983,315.147,301.331,299.218Z" transform="translate(-278.66 -113.603)" fill="#263238"/>
      <path id="Path_1849" data-name="Path 1849" d="M299.428,392.19l14.876-5.24-1.072-4.571-15.462,4.644Z" transform="translate(-280.265 -126.966)" fill="#ffc100"/>
      <path id="Path_1850" data-name="Path 1850" d="M299.428,392.19l14.876-5.24-1.072-4.571-15.462,4.644Z" transform="translate(-280.265 -126.966)" opacity="0.2"/>
      <path id="Path_1851" data-name="Path 1851" d="M305.961,213.908,305.54,218c18.512.495,27.1,2.666,27.1,2.666a23.248,23.248,0,0,0,.412-3.737C326.3,214.339,313.473,213.762,305.961,213.908Z" transform="translate(-280.917 -112.814)" fill="#fff"/>
      <path id="Path_1852" data-name="Path 1852" d="M350.064,216.283l-.513,3.563a78,78,0,0,0-14.555.98,7.859,7.859,0,0,1,.485-3.737C343.038,215.193,347.819,215.752,350.064,216.283Z" transform="translate(-283.387 -112.972)" fill="#fff"/>
      <path id="Path_1853" data-name="Path 1853" d="M353.766,151.766l-3.536-.806c.6,14.006,4.809,21.755,4.809,21.755a14.508,14.508,0,0,0,1.649-5.5A33.2,33.2,0,0,1,353.766,151.766Z" transform="translate(-284.671 -107.528)" fill="#fff"/>
      <path id="Path_1854" data-name="Path 1854" d="M332.827,220.826c-.311,1.063,2.07.568,2.418.22s4.223-4.507,2.143-4.736-2.244.229-2.244.229a5.019,5.019,0,0,0-2.519-.769C331.178,215.752,333.477,218.655,332.827,220.826Z" transform="translate(-283.151 -112.972)" fill="#fff"/>
      <path id="Path_1855" data-name="Path 1855" d="M332.079,216.69c-1.585,1.237-6.073,7.154-6.339,13.3a29.2,29.2,0,0,1,3.554-1.429s.76-5.084,3.508-8.171Z" transform="translate(-282.614 -113.049)" fill="#fff"/>
      <path id="Path_1856" data-name="Path 1856" d="M337.008,217.18c1.429,1.969,5.423,10.14,5.56,16.909a41.944,41.944,0,0,0-3.224-2.94s-1.2-6.549-3.664-10.992Z" transform="translate(-283.449 -113.09)" fill="#fff"/>
      <path id="Path_1857" data-name="Path 1857" d="M320.019,247.29h-2.748L291.22,402.049h2.748Z" transform="translate(-279.715 -115.619)" fill="#ffc100"/>
      <path id="Path_1858" data-name="Path 1858" d="M354.248,247.29H351.5L325.44,402.049h2.748Z" transform="translate(-282.589 -115.619)" fill="#ffc100"/>
      <path id="Path_1859" data-name="Path 1859" d="M354.248,247.29H351.5L325.44,402.049h2.748Z" transform="translate(-282.589 -115.619)" opacity="0.2"/>
      <path id="Path_1860" data-name="Path 1860" d="M360.77,247.29h2.748l26.06,154.759H386.83Z" transform="translate(-285.557 -115.619)" fill="#ffc100"/>
      <path id="Path_1861" data-name="Path 1861" d="M326.55,247.29H329.3l26.06,154.759H352.61Z" transform="translate(-282.682 -115.619)" fill="#ffc100"/>
      <path id="Path_1862" data-name="Path 1862" d="M322.371,239.89h34.991a2.748,2.748,0,0,1,2.748,2.748v4.067H319.66v-4.067a2.748,2.748,0,0,1,2.712-2.748Z" transform="translate(-282.103 -114.998)" fill="#ffc100"/>
    </g>
  </g>
</svg>
