<svg xmlns="http://www.w3.org/2000/svg" width="377.825" height="281.525" viewBox="0 0 377.825 281.525">
  <g id="Blank_canvas-rafiki" data-name="Blank canvas-rafiki" transform="translate(0 -55)">
    <g id="freepik--background-complete--inject-35" transform="translate(0 55)">
      <rect id="Rectangle_988" data-name="Rectangle 988" width="377.825" height="0.189" transform="translate(0 247.4)" fill="#ebebeb"/>
      <rect id="Rectangle_989" data-name="Rectangle 989" width="25.027" height="0.189" transform="translate(39.641 254.594)" fill="#ebebeb"/>
      <rect id="Rectangle_990" data-name="Rectangle 990" width="32.138" height="0.189" transform="translate(129.322 252.546)" fill="#ebebeb"/>
      <rect id="Rectangle_991" data-name="Rectangle 991" width="14.501" height="0.189" transform="translate(70.631 257.246)" fill="#ebebeb"/>
      <rect id="Rectangle_992" data-name="Rectangle 992" width="11.509" height="0.189" transform="translate(328.459 260.344)" fill="#ebebeb"/>
      <rect id="Rectangle_993" data-name="Rectangle 993" width="25.911" height="0.189" transform="translate(295.814 260.344)" fill="#ebebeb"/>
      <rect id="Rectangle_994" data-name="Rectangle 994" width="18.007" height="0.189" transform="translate(232.74 254.904)" fill="#ebebeb"/>
      <path id="Path_1783" data-name="Path 1783" d="M188.426,268.7H42.517a4.315,4.315,0,0,1-4.307-4.315V59.277A4.315,4.315,0,0,1,42.517,55H188.426a4.315,4.315,0,0,1,4.315,4.315V264.383A4.315,4.315,0,0,1,188.426,268.7ZM42.517,55.151A4.126,4.126,0,0,0,38.4,59.277V264.383a4.126,4.126,0,0,0,4.118,4.126H188.426a4.133,4.133,0,0,0,4.126-4.126V59.277a4.133,4.133,0,0,0-4.126-4.126Z" transform="translate(-9.337 -55)" fill="#ebebeb"/>
      <path id="Path_1784" data-name="Path 1784" d="M404.731,268.7H258.815a4.322,4.322,0,0,1-4.315-4.315V59.277A4.322,4.322,0,0,1,258.815,55H404.731a4.315,4.315,0,0,1,4.3,4.277V264.383A4.315,4.315,0,0,1,404.731,268.7ZM258.815,55.151a4.133,4.133,0,0,0-4.126,4.126V264.383a4.133,4.133,0,0,0,4.126,4.126H404.731a4.133,4.133,0,0,0,4.126-4.126V59.277a4.133,4.133,0,0,0-4.126-4.126Z" transform="translate(-62.187 -55)" fill="#ebebeb"/>
      <path id="Path_1785" data-name="Path 1785" d="M51.9,274.83H48.54l.635,81.285h5.562Z" transform="translate(-11.861 -108.715)" fill="#e0e0e0"/>
      <path id="Path_1786" data-name="Path 1786" d="M51.11,272.92h58.079l6.461,82.729H57.571Z" transform="translate(-12.489 -108.249)" fill="#f5f5f5"/>
      <path id="Path_1787" data-name="Path 1787" d="M50.387,272.92H48.15l6.461,82.729h2.237Z" transform="translate(-11.765 -108.249)" fill="#ebebeb"/>
      <path id="Path_1788" data-name="Path 1788" d="M173.49,167H287.752l12.718,162.767H186.208Z" transform="translate(-42.392 -82.367)" fill="#f5f5f5"/>
      <path id="Path_1789" data-name="Path 1789" d="M267.742,232.462c3.718,6.438,10.949,9.967,18.007,12.234,3.31,1.073,7.685,1.625,9.612-1.277,1.511-2.267.544-5.35,1.224-7.987,1.194-4.625,6.718-6.363,11.38-7.405a41.391,41.391,0,0,0,6.453-2l-2.962-37.934a8.35,8.35,0,0,0-1.3,2.667c-.756,2.388.559,5.078-.295,7.421-.756,2.154-3.2,3.332-5.494,3.476s-4.534-.529-6.8-.967c-8.97-1.768-18.937.325-25.5,6.672S263.177,224.55,267.742,232.462Z" transform="translate(-64.842 -87.52)" fill="#f5f5f5"/>
      <path id="Path_1790" data-name="Path 1790" d="M173.49,167l6.431,82.736a57.857,57.857,0,0,0,4.473,4.534,39.194,39.194,0,0,0,14.206,8.788,25.423,25.423,0,0,0,5.577,1.111c-3.468,4.745-4.383,11.645-.831,16.292,1.919,2.509,4.813,4.05,7.292,6.045s4.715,4.806,4.383,7.949c-.234,2.267-1.783,4.2-3.348,5.887-6.045,6.536-13.5,12.09-17.576,20.025-1.224,2.373-2.131,5.07-1.594,7.677a7.633,7.633,0,0,0,.574,1.73h54.853a28.654,28.654,0,0,0,.521-19.647c-3.65-10.579-13.088-18.612-23.69-22.277,4.534-4.209,10.738-6.045,16.73-7.647s12.211-3.083,17.176-6.8c8.237-6.151,10.247-23.387-3.861-22.76-4.1.181-7.715,2.547-12.007,2.652s-8.5,0-12.68.272a29.228,29.228,0,0,0,4.4-6.393c1.9-3.778,3.076-8.04,2.214-12.151-2.206-10.534-15.77-14.418-20.962-23.848-6.272-11.388,1.783-25.919-1.761-38.432A19.647,19.647,0,0,0,211.3,167Z" transform="translate(-42.392 -82.367)" fill="#f5f5f5"/>
      <path id="Path_1791" data-name="Path 1791" d="M173.49,166.993l6.431,82.736a57.863,57.863,0,0,0,4.473,4.534,39.194,39.194,0,0,0,14.206,8.788,25.423,25.423,0,0,0,5.577,1.111c9.536.854,19.405-3.393,25.873-10.624a29.228,29.228,0,0,0,4.4-6.393c1.9-3.778,3.075-8.04,2.214-12.151-2.206-10.534-15.77-14.418-20.962-23.848-6.272-11.388,1.783-25.919-1.761-38.432a19.647,19.647,0,0,0-2.705-5.743Z" transform="translate(-42.392 -82.36)" fill="#e6e6e6"/>
      <path id="Path_1792" data-name="Path 1792" d="M198.641,355.076a7.633,7.633,0,0,0,.574,1.73h54.822a28.654,28.654,0,0,0,.521-19.647c-3.65-10.579-13.088-18.612-23.69-22.277,4.534-4.209,10.738-6.045,16.73-7.647s12.211-3.083,17.176-6.8c8.237-6.151,10.247-23.387-3.861-22.76-4.1.181-7.715,2.547-12.007,2.652s-8.5,0-12.68.272a51.959,51.959,0,0,0-8.675,1.149c-6.113,1.368-12.31,3.778-16.413,8.486a9.272,9.272,0,0,0-.756.99c-3.468,4.745-4.383,11.645-.831,16.292,1.919,2.509,4.813,4.05,7.292,6.045s4.715,4.806,4.383,7.949c-.234,2.267-1.783,4.2-3.348,5.887-6.045,6.536-13.5,12.09-17.576,20.025C199.011,349.771,198.12,352.469,198.641,355.076Z" transform="translate(-48.501 -109.406)" fill="#fff"/>
      <path id="Path_1793" data-name="Path 1793" d="M267.742,232.462c3.718,6.438,10.949,9.967,18.007,12.234,3.31,1.073,7.685,1.625,9.612-1.277,1.511-2.267.544-5.35,1.224-7.987,1.194-4.625,6.718-6.363,11.38-7.405a41.391,41.391,0,0,0,6.453-2l-2.962-37.934a8.35,8.35,0,0,0-1.3,2.667c-.756,2.388.559,5.078-.295,7.421-.756,2.154-3.2,3.332-5.494,3.476s-4.534-.529-6.8-.967c-8.97-1.768-18.937.325-25.5,6.672S263.177,224.55,267.742,232.462Z" transform="translate(-64.842 -87.52)" fill="#f0f0f0"/>
      <path id="Path_1794" data-name="Path 1794" d="M170.961,170.465l-2.811-.635,4.035,160.629h10.171Z" transform="translate(-41.087 -83.059)" fill="#e0e0e0"/>
      <path id="Path_1795" data-name="Path 1795" d="M172.065,167H167.66l12.718,162.767h4.405Z" transform="translate(-40.968 -82.367)" fill="#ebebeb"/>
      <path id="Path_1796" data-name="Path 1796" d="M315.89,218.11h87.149l9.7,124.146H325.593Z" transform="translate(-77.188 -94.856)" fill="#f5f5f5"/>
      <path id="Path_1797" data-name="Path 1797" d="M314.8,218.11H311.44L317,342.256h5.562Z" transform="translate(-76.1 -94.856)" fill="#e0e0e0"/>
      <path id="Path_1798" data-name="Path 1798" d="M314.8,218.11H311.44l9.7,124.146h3.363Z" transform="translate(-76.1 -94.856)" fill="#ebebeb"/>
      <rect id="Rectangle_995" data-name="Rectangle 995" width="16.775" height="46.344" transform="translate(77.167 61.797) rotate(180)" fill="#ebebeb"/>
      <rect id="Rectangle_996" data-name="Rectangle 996" width="228.395" height="46.344" transform="translate(305.562 61.797) rotate(180)" fill="#f5f5f5"/>
      <rect id="Rectangle_997" data-name="Rectangle 997" width="37.276" height="219.328" transform="translate(301.021 19.987) rotate(90)" fill="#e6e6e6"/>
      <rect id="Rectangle_998" data-name="Rectangle 998" width="37.276" height="18.974" transform="translate(140.589 19.979) rotate(90)" fill="#e0e0e0"/>
      <rect id="Rectangle_999" data-name="Rectangle 999" width="37.276" height="4.36" transform="translate(144.949 19.979) rotate(90)" fill="#f5f5f5"/>
      <rect id="Rectangle_1000" data-name="Rectangle 1000" width="27.203" height="25.186" rx="2.44" transform="translate(289.399 57.263) rotate(180)" fill="#fafafa"/>
      <rect id="Rectangle_1001" data-name="Rectangle 1001" width="21.748" height="3.106" rx="0.77" transform="translate(286.671 32.077) rotate(180)" fill="#fff"/>
      <path id="Path_1799" data-name="Path 1799" d="M0,0H20.826a1,1,0,0,1,1.005,1.005V12.423a1,1,0,0,1-1,1.005H0Z" transform="translate(289.399 51.384) rotate(180)" fill="#f0f0f0"/>
      <rect id="Rectangle_1002" data-name="Rectangle 1002" width="27.203" height="25.186" rx="2.44" transform="translate(257.329 57.263) rotate(180)" fill="#f5f5f5"/>
      <rect id="Rectangle_1003" data-name="Rectangle 1003" width="21.748" height="3.106" rx="0.77" transform="translate(254.601 32.077) rotate(180)" fill="#fff"/>
      <path id="Path_1800" data-name="Path 1800" d="M0,0H20.826a1,1,0,0,1,1,1.005V12.423a1,1,0,0,1-1,1.013H0Z" transform="translate(257.329 51.384) rotate(180)" fill="#ebebeb"/>
      <rect id="Rectangle_1004" data-name="Rectangle 1004" width="18.838" height="17.448" rx="1.69" transform="translate(234.229 57.263) rotate(180)" fill="#fafafa"/>
      <rect id="Rectangle_1005" data-name="Rectangle 1005" width="15.06" height="2.154" rx="0.53" transform="translate(232.34 39.815) rotate(180)" fill="#fff"/>
      <path id="Path_1801" data-name="Path 1801" d="M0,0H9.937a.7.7,0,0,1,.7.7V8.607a.7.7,0,0,1-.7.7H0Z" transform="translate(234.229 53.19) rotate(180)" fill="#f0f0f0"/>
      <rect id="Rectangle_1006" data-name="Rectangle 1006" width="18.838" height="17.448" rx="1.69" transform="translate(110.491 57.263) rotate(180)" fill="#f5f5f5"/>
      <rect id="Rectangle_1007" data-name="Rectangle 1007" width="15.06" height="2.154" rx="0.53" transform="translate(108.602 39.815) rotate(180)" fill="#fff"/>
      <rect id="Rectangle_1008" data-name="Rectangle 1008" width="15.121" height="9.302" rx="2.12" transform="translate(109.222 53.19) rotate(180)" fill="#ebebeb"/>
      <rect id="Rectangle_1009" data-name="Rectangle 1009" width="27.12" height="28.775" transform="translate(207.282 57.263) rotate(180)" fill="#f0f0f0"/>
      <rect id="Rectangle_1010" data-name="Rectangle 1010" width="27.12" height="3.801" transform="translate(207.282 32.289) rotate(180)" fill="#fff"/>
      <rect id="Rectangle_1011" data-name="Rectangle 1011" width="4.836" height="28.775" transform="translate(187.953 57.263) rotate(180)" fill="#e0e0e0" opacity="0.3"/>
      <rect id="Rectangle_1012" data-name="Rectangle 1012" width="2.418" height="28.775" transform="translate(192.517 57.263) rotate(180)" fill="#e0e0e0" opacity="0.3"/>
      <rect id="Rectangle_1013" data-name="Rectangle 1013" width="24.309" height="25.79" transform="translate(177.48 57.263) rotate(180)" fill="#e0e0e0"/>
      <rect id="Rectangle_1014" data-name="Rectangle 1014" width="24.309" height="3.408" transform="translate(177.48 34.881) rotate(180)" fill="#f0f0f0"/>
      <rect id="Rectangle_1015" data-name="Rectangle 1015" width="4.33" height="25.79" transform="translate(160.153 57.263) rotate(180)" fill="#f5f5f5" opacity="0.3"/>
      <rect id="Rectangle_1016" data-name="Rectangle 1016" width="2.169" height="25.79" transform="translate(164.241 57.263) rotate(180)" fill="#f5f5f5" opacity="0.3"/>
    </g>
    <g id="freepik--Shadow--inject-35" transform="translate(42.4 319.417)">
      <ellipse id="freepik--path--inject-35" cx="146.513" cy="8.554" rx="146.513" ry="8.554" fill="#f5f5f5"/>
    </g>
    <g id="freepik--Canvas--inject-35" transform="translate(94.169 73.007)">
      <path id="Path_1802" data-name="Path 1802" d="M154.36,334.322h4.36L167.569,90.33H163.2Z" transform="translate(-131.887 -81.64)" fill="#ffc100"/>
      <path id="Path_1803" data-name="Path 1803" d="M237.006,334.322h-4.368L192.06,90.33h4.368Z" transform="translate(-141.099 -81.64)" fill="#ffc100"/>
      <path id="Path_1804" data-name="Path 1804" d="M124.62,331.512h4.368L171.032,78.83h-4.368Z" transform="translate(-124.62 -78.83)" fill="#ffc100"/>
      <rect id="Rectangle_1017" data-name="Rectangle 1017" width="19.662" height="3.121" transform="translate(53.326 15.219) rotate(180)" fill="#ffc100"/>
      <rect id="Rectangle_1018" data-name="Rectangle 1018" width="49.2" height="3.4" transform="translate(78.27 164.482) rotate(180)" fill="#ffc100"/>
      <rect id="Rectangle_1019" data-name="Rectangle 1019" width="0.756" height="3.484" transform="translate(2.127 41.962) rotate(-4.26)" fill="#ffc100"/>
      <rect id="Rectangle_1020" data-name="Rectangle 1020" width="0.756" height="12.453" transform="translate(0.902 25.526) rotate(-4.25)" fill="#ffc100"/>
      <path id="Path_1805" data-name="Path 1805" d="M137.666,225.5l1.5.015L129.716,97.545l-1.5-.015Z" transform="translate(-125.5 -83.399)" fill="#ffc100"/>
      <path id="Path_1806" data-name="Path 1806" d="M139.646,225.519l88.781.854L218.981,98.4,130.2,97.55Z" transform="translate(-125.983 -83.404)" fill="#ffc100"/>
      <path id="Path_1807" data-name="Path 1807" d="M139.646,225.519l88.781.854L218.981,98.4,130.2,97.55Z" transform="translate(-125.983 -83.404)" fill="#fff" opacity="0.8"/>
      <path id="Path_1808" data-name="Path 1808" d="M142.7,225.282l84.678.045L218.215,99.633,132.32,99.58Z" transform="translate(-126.501 -83.9)" fill="#fff"/>
      <path id="Path_1809" data-name="Path 1809" d="M191.566,267.228h22.67a1.746,1.746,0,0,0,1.73-1.564l.484-4.534H190.281l-.446,4.133a1.746,1.746,0,0,0,1.73,1.965Z" transform="translate(-140.552 -123.375)" fill="#ffc100"/>
    </g>
    <g id="freepik--Character--inject-35" transform="translate(210.569 91.683)">
      <path id="Path_1810" data-name="Path 1810" d="M308.436,168.417a15.022,15.022,0,0,1-2.441-1.2c-.861-.521-1.753-1.088-2.63-1.708-1.761-1.239-3.514-2.607-5.252-4.012-3.453-2.834-5.131-4.035-8.478-7.065l-3.446,3.1a79.069,79.069,0,0,0,7.413,8.9c1.64,1.708,3.355,3.363,5.214,4.957.929.756,1.9,1.587,2.947,2.327a22.765,22.765,0,0,0,3.582,2.131,11.556,11.556,0,0,0,2.531.831,6.877,6.877,0,0,0,4.118-.416,6.212,6.212,0,0,0,2.131-1.61,6.7,6.7,0,0,0,.7-.982c.166-.3.332-.635.453-.922l.159-.431.113-.355.136-.453Z" transform="translate(-280.5 -115.979)" fill="#ffb573"/>
      <path id="Path_1811" data-name="Path 1811" d="M293.675,214.124c1.443-8.373,3.6-12.642,4.609-14.274.8-2.312,1.965-4.186,2.516-7.028-.559-10.42-.181-24.838.967-27.2.657-1.043,5.29-3.582,5.66-3.672.7-6.665,5.41-12.506,5.41-12.506a26.629,26.629,0,0,1,3.62,0c-4.67,6.211-5.29,10.224-5.66,11.871a60.657,60.657,0,0,1,14.939-.234c1.345-6.642,7.012-10.488,7.012-10.488a14.357,14.357,0,0,1,2.917.665c-4.844,5.229-5.743,8.471-6.34,10.277,2.033.3,4.345,4.2,4.345,4.2-3.31,13.481-5.743,25.224-5.8,28.118s1.1,2.267,1.511,4.882c3.96.5,4.315,1.254,4.315,1.254a6.333,6.333,0,0,1-.423,2.939A17.139,17.139,0,0,0,329.13,202c-3.725,19.828-8.939,38.856-9.325,58.011l-41.115-1.141S288.083,223.214,293.675,214.124Z" transform="translate(-278.667 -114.745)" fill="#fff"/>
      <path id="Path_1812" data-name="Path 1812" d="M291.662,154.76l-1.149-4.7L284,153.544s2.018,5.373,5.04,4.882l1.844-1.413A2.184,2.184,0,0,0,291.662,154.76Z" transform="translate(-279.965 -114.911)" fill="#ffb573"/>
      <path id="Path_1813" data-name="Path 1813" d="M286.3,143.53l-3.854,5.819,1.156,2.6,6.529-3.484Z" transform="translate(-279.586 -113.315)" fill="#ffb573"/>
      <path id="Path_1814" data-name="Path 1814" d="M344.96,130.16c-1.8,4.451-4.36,12.642-1.859,15.869-2.924,2.267-6.672,4.859-12.007,4.685s-3.657-3.778-1.859-5.637c5.222-.854,5.856-4.594,5.705-8.153Z" transform="translate(-290.591 -110.049)" fill="#ffb573"/>
      <path id="Path_1815" data-name="Path 1815" d="M331.252,116.124a.287.287,0,0,0,.28,0,2.267,2.267,0,0,1,2.108-.091.294.294,0,0,0,.287-.514,2.9,2.9,0,0,0-2.667.091.287.287,0,0,0-.121.393A.249.249,0,0,0,331.252,116.124Z" transform="translate(-291.474 -106.402)" fill="#263238"/>
      <path id="Path_1816" data-name="Path 1816" d="M330.686,120a17.819,17.819,0,0,1-3.2,3.68,2.879,2.879,0,0,0,2.267.922Z" transform="translate(-290.591 -107.566)" fill="#ed893e"/>
      <path id="Path_1817" data-name="Path 1817" d="M331.34,119.882c-.1.484-.446.831-.756.756s-.491-.521-.393-1.005.446-.831.756-.756S331.446,119.391,331.34,119.882Z" transform="translate(-291.245 -107.289)" fill="#263238"/>
      <path id="Path_1818" data-name="Path 1818" d="M347.756,119.245c-1.625,5.909-2.267,9.446-5.932,11.886-5.516,3.672-12.325-.612-12.506-6.884-.159-5.652,2.516-14.357,8.871-15.514a8.35,8.35,0,0,1,9.567,10.511Z" transform="translate(-291.036 -104.778)" fill="#ffb573"/>
      <path id="Path_1819" data-name="Path 1819" d="M334.576,119.029a8.267,8.267,0,0,0,.212,7.473c1.217,2.479,2.161,3.99,6.846,4.776s3.106-5.66,5.29-8.221,9.944-10.579,2.093-12.589c1.685-5.924-2.569-7.9-7.995-6.257s-12.771,3.665-11.773.378c0,0-6.468,8.146,7.556,7.179C332.188,115.712,334.576,119.029,334.576,119.029Z" transform="translate(-290.657 -103.572)" fill="#263238"/>
      <path id="Path_1820" data-name="Path 1820" d="M339.609,104.962a15.158,15.158,0,0,1,8.017-1.33c4.383.363,7.829,2.645,9.068,8.75s.378,11.4-2.584,10.874c-.975-1.232-4.987,2.04-4.987,2.04-.839,1.67-6.567-2.577-9.022-7.428S336.05,105.529,339.609,104.962Z" transform="translate(-293.045 -103.545)" fill="#ffc100"/>
      <path id="Path_1821" data-name="Path 1821" d="M339.609,104.962a15.158,15.158,0,0,1,8.017-1.33c4.383.363,7.829,2.645,9.068,8.75s.378,11.4-2.584,10.874c-.975-1.232-4.987,2.04-4.987,2.04-.839,1.67-6.567-2.577-9.022-7.428S336.05,105.529,339.609,104.962Z" transform="translate(-293.045 -103.545)" fill="#fff" opacity="0.3"/>
      <path id="Path_1822" data-name="Path 1822" d="M336.617,105.724c-2.018.332-1.3,6.718.967,11.962s6.106,9.786,10.027,10.413a3.317,3.317,0,0,0,1.05-2.4c-1.088-.756-4.919-2.728-8.441-9.778s-1.088-10.579-1.088-10.579C339.02,104.893,336.617,105.724,336.617,105.724Z" transform="translate(-292.532 -103.952)" fill="#ffc100"/>
      <path id="Path_1823" data-name="Path 1823" d="M337.869,123.145a5.584,5.584,0,0,1-2.267,3.023c-1.421.914-2.411-.2-2.267-1.768.144-1.406,1.058-3.582,2.592-3.861S338.323,121.634,337.869,123.145Z" transform="translate(-292.016 -107.689)" fill="#ffb573"/>
      <path id="Path_1824" data-name="Path 1824" d="M318.114,403.277H311.94l1.232-14.3h6.174Z" transform="translate(-286.792 -173.291)" fill="#ffb573"/>
      <path id="Path_1825" data-name="Path 1825" d="M307.65,407h7.519a.536.536,0,0,1,.529.423l1.217,5.486a.9.9,0,0,1-.9,1.1c-2.426-.038-4.186-.181-7.239-.181-1.874,0-6,.2-8.592.2s-2.924-2.562-1.866-2.8c4.753-1.043,6.8-2.471,8.312-3.846A1.511,1.511,0,0,1,307.65,407Z" transform="translate(-283.326 -177.694)" fill="#263238"/>
      <path id="Path_1826" data-name="Path 1826" d="M319.538,388.99h-6.174l-.635,7.368H318.9Z" transform="translate(-286.985 -173.294)" opacity="0.2"/>
      <path id="Path_1827" data-name="Path 1827" d="M286.873,139.107c-.756.234-.62.635-.71.99l-.189,1.088-.378,2.176-.7,4.368q-.325,2.176-.627,4.375c-.166,1.466-.378,2.924-.514,4.4a.385.385,0,0,0,.756.128c.385-1.428.7-2.864,1.043-4.3s.635-2.879.929-4.322l.861-4.33.4-2.176.2-1.081c0-.37.3-.7-.325-1.186A.831.831,0,0,0,286.873,139.107Z" transform="translate(-279.906 -112.225)" fill="#263238"/>
      <path id="Path_1828" data-name="Path 1828" d="M287.711,137.6c.793.151,2.267-.34,1.806-2.35s-1.685-2.486-.106-3.922C286.412,133.06,285.059,137.073,287.711,137.6Z" transform="translate(-280.525 -110.334)" fill="#ffc100"/>
      <path id="Path_1829" data-name="Path 1829" d="M347.294,156.222c-8.622,22.488-6.944,45.339-7.972,50.175l-32.856-1.02c-.869-28.858,3.914-47.2,6.876-52.684a3.96,3.96,0,0,1,2.849-2.055c.869-.136,1.987-.287,3.242-.423.914-.1,1.9-.189,2.924-.249.559-.038,1.134-.06,1.715-.076a119.854,119.854,0,0,1,13.874.952c.861.106,1.738.234,2.584.37s1.549.272,2.267.416c.914.174,1.768.363,2.524.537a2.917,2.917,0,0,1,1.972,4.058Z" transform="translate(-285.429 -114.87)" fill="#ffc100"/>
      <path id="Path_1830" data-name="Path 1830" d="M310.155,164.727l-1.035,3.778c24.974,8.07,14.773-19.1,14.773-19.1a13.216,13.216,0,0,0-3.62,0C325.11,162.921,320.53,169.525,310.155,164.727Z" transform="translate(-286.103 -114.722)" fill="#fff"/>
      <path id="Path_1831" data-name="Path 1831" d="M325.983,161.919c5.894-.212,8.735,10.368,8.735,10.368l-.756.567,5.146,8.9-6.045,3.521-5.645-8.667-1.436,1.065a22.065,22.065,0,0,1-5.932-6.96C316.787,164.609,318.835,162.161,325.983,161.919Z" transform="translate(-288.405 -117.808)" opacity="0.2"/>
      <path id="Path_1832" data-name="Path 1832" d="M340.249,182.684a7.783,7.783,0,0,0-.332-1.511,6.964,6.964,0,0,0-.249-.673l-.227-.506c-.431-.96-.854-1.934-1.33-2.864a59.083,59.083,0,0,0-3.121-5.471,60.914,60.914,0,0,0-3.657-5.108c-.665-.816-1.337-1.617-2.048-2.4-.348-.4-.718-.756-1.081-1.179l-.582-.582-.642-.627-6.461,6.8.831.9c.3.325.6.65.907.99.6.673,1.186,1.375,1.761,2.078,1.171,1.406,2.267,2.856,3.37,4.337s2.116,3.023,3.06,4.534c.468.718.884,1.458,1.315,2.2A10.134,10.134,0,0,1,330,184.634a32.859,32.859,0,0,1-4.965,1.768c-3.544.99-7.368,1.746-11.1,2.426l.189,4.632a64.751,64.751,0,0,0,12.264-.355,34.76,34.76,0,0,0,6.37-1.383,16.283,16.283,0,0,0,3.446-1.564,10.157,10.157,0,0,0,1.859-1.451,7.7,7.7,0,0,0,1.708-2.5,7.125,7.125,0,0,0,.484-3.521Z" transform="translate(-287.278 -117.77)" fill="#ffb573"/>
      <path id="Path_1833" data-name="Path 1833" d="M315.271,197l-4.821.5,2.569,6.929s5.6-1.262,5.524-4.322l-1.149-2.018A2.191,2.191,0,0,0,315.271,197Z" transform="translate(-286.428 -126.377)" fill="#ffb573"/>
      <path id="Path_1834" data-name="Path 1834" d="M304.7,199.944l.975,6.423,5.939-1.73-2.569-6.937Z" transform="translate(-285.023 -126.552)" fill="#ffb573"/>
      <path id="Path_1835" data-name="Path 1835" d="M321.575,150.242c5.871.62,13.02,15.446,13.02,15.446l-9.823,6.574s-4.081-1.443-8.478-7.67C311.026,157.1,313.905,149.448,321.575,150.242Z" transform="translate(-287.2 -114.942)" fill="#ffc100"/>
      <path id="Path_1836" data-name="Path 1836" d="M318.762,223.8s-6.74,48.513-8.494,66.55c-1.927,19.783-1.1,63.3-1.1,63.3h11.335s3.174-43.518,6.733-62.81c4.05-21.967,15.869-54.883,12.755-66.376Z" transform="translate(-286.072 -132.929)" fill="#263238"/>
      <path id="Path_1837" data-name="Path 1837" d="M321.8,242.92c-.408.136-2.207.348-4.1.657-1.368,10.171-3.174,23.78-4.579,35.266C318.359,269.693,323.225,252.048,321.8,242.92Z" transform="translate(-287.082 -137.601)" opacity="0.2"/>
      <path id="Path_1838" data-name="Path 1838" d="M307.945,395.427H321.26l.544-3.975-13.9-.642Z" transform="translate(-285.804 -173.738)" fill="#ffc100"/>
      <path id="Path_1839" data-name="Path 1839" d="M307.945,395.427H321.26l.544-3.975-13.9-.642Z" transform="translate(-285.804 -173.738)" opacity="0.2"/>
      <path id="Path_1840" data-name="Path 1840" d="M320.55,400.6Z" transform="translate(-288.895 -176.13)" fill="#ffc100"/>
      <path id="Path_1841" data-name="Path 1841" d="M307.657,407.874a7.556,7.556,0,0,0,1.617-.219.144.144,0,0,0,.113-.121.151.151,0,0,0-.068-.151c-.227-.136-2.214-1.36-2.9-1.013a.476.476,0,0,0-.249.416.892.892,0,0,0,.3.756,1.867,1.867,0,0,0,1.186.332Zm1.194-.431a3,3,0,0,1-2.191-.106.612.612,0,0,1-.2-.529c0-.121.053-.159.091-.174C306.909,406.453,308.043,406.982,308.851,407.443Z" transform="translate(-285.38 -177.525)" fill="#ffc100"/>
      <path id="Path_1842" data-name="Path 1842" d="M309.651,407.187a.144.144,0,0,0,.144-.159c0-.076-.151-1.851-.869-2.441a.838.838,0,0,0-.627-.189h0a.476.476,0,0,0-.461.385c-.128.688,1.1,2.04,1.738,2.388Zm-1.247-2.5a.529.529,0,0,1,.332.129,3.544,3.544,0,0,1,.756,1.934c-.635-.484-1.421-1.511-1.345-1.912,0-.038,0-.121.212-.144h.068Z" transform="translate(-285.787 -177.057)" fill="#ffc100"/>
      <path id="Path_1843" data-name="Path 1843" d="M310.954,395.192l-5.977,2.086-3.227-13.632,5.985-2.086Z" transform="translate(-284.302 -171.478)" fill="#ffb573"/>
      <path id="Path_1844" data-name="Path 1844" d="M304.124,402.236c-.038-.06-.756-1.564-1.73-1.9a1.1,1.1,0,0,0-.846.045c-.3.151-.378.332-.378.484a.372.372,0,0,0,0,.091c.144.7,1.987,1.436,2.8,1.511a.136.136,0,0,0,.1,0h0a.151.151,0,0,0,.053-.234Zm-2.66-1.33a.174.174,0,0,1,.083-.174.627.627,0,0,1,.128-.083.8.8,0,0,1,.34-.083.959.959,0,0,1,.287.053,3.431,3.431,0,0,1,1.421,1.511C302.854,401.956,301.547,401.322,301.464,400.906Z" transform="translate(-284.159 -176.051)" fill="#ffc100"/>
      <path id="Path_1845" data-name="Path 1845" d="M303.763,402.989a.151.151,0,0,0,.045-.144.144.144,0,0,0-.121-.113c-.317-.045-3.076-.363-3.635.287a.453.453,0,0,0-.091.453h0a.831.831,0,0,0,.5.574c.846.325,2.418-.521,3.28-1.05Zm-3.446.181a6.072,6.072,0,0,1,2.894-.2c-1.194.68-2.169.982-2.645.793a.521.521,0,0,1-.325-.378.159.159,0,0,1,0-.174.255.255,0,0,1,.1-.045Z" transform="translate(-283.858 -176.623)" fill="#ffc100"/>
      <path id="Path_1846" data-name="Path 1846" d="M302.311,401l6.317-2.335a.536.536,0,0,1,.642.212l3.023,4.723a.9.9,0,0,1-.453,1.353c-2.267.8-5.637,1.889-8.5,2.947-3.355,1.239-3.332,1.39-7.269,2.841-2.373.884-3.922-1.277-3.023-1.859,4.164-2.667,4.98-3.023,7.995-6.9A2.849,2.849,0,0,1,302.311,401Z" transform="translate(-282.112 -175.65)" fill="#263238"/>
      <path id="Path_1847" data-name="Path 1847" d="M301.76,383.653l1.655,7.028,5.985-2.093-1.662-7.028Z" transform="translate(-284.304 -171.478)" opacity="0.2"/>
      <path id="Path_1848" data-name="Path 1848" d="M297.362,285.926c5.237-13.141,23.931-61.963,23.931-61.963l-21.6-.673s-14.357,40.322-20,58.9c-5.894,19.314,15.294,68.25,15.294,68.25l10.866-3.393S292.126,299.067,297.362,285.926Z" transform="translate(-278.66 -132.805)" fill="#263238"/>
      <path id="Path_1849" data-name="Path 1849" d="M299.138,390.473l12.272-4.322-.884-3.771-12.755,3.831Z" transform="translate(-283.329 -171.678)" fill="#ffc100"/>
      <path id="Path_1850" data-name="Path 1850" d="M299.138,390.473l12.272-4.322-.884-3.771-12.755,3.831Z" transform="translate(-283.329 -171.678)" opacity="0.2"/>
      <path id="Path_1851" data-name="Path 1851" d="M305.888,213.9l-.348,3.378c15.272.408,22.36,2.2,22.36,2.2a19.179,19.179,0,0,0,.34-3.083C322.663,214.26,312.084,213.783,305.888,213.9Z" transform="translate(-285.228 -130.507)" fill="#fff"/>
      <path id="Path_1852" data-name="Path 1852" d="M347.417,216.194l-.423,2.939a64.343,64.343,0,0,0-12.007.809,6.483,6.483,0,0,1,.4-3.083C341.621,215.295,345.566,215.756,347.417,216.194Z" transform="translate(-292.413 -130.968)" fill="#fff"/>
      <path id="Path_1853" data-name="Path 1853" d="M353.147,151.625l-2.917-.665c.5,11.554,3.967,17.947,3.967,17.947a11.969,11.969,0,0,0,1.36-4.534A27.386,27.386,0,0,1,353.147,151.625Z" transform="translate(-296.148 -115.131)" fill="#fff"/>
      <path id="Path_1854" data-name="Path 1854" d="M332.706,219.941c-.257.877,1.708.469,1.995.181s3.484-3.718,1.768-3.907-1.851.189-1.851.189a4.141,4.141,0,0,0-2.078-.635C331.346,215.755,333.243,218.15,332.706,219.941Z" transform="translate(-291.727 -130.967)" fill="#fff"/>
      <path id="Path_1855" data-name="Path 1855" d="M330.969,216.69c-1.307,1.02-5.01,5.9-5.229,10.972a24.1,24.1,0,0,1,2.932-1.179s.627-4.194,2.894-6.74Z" transform="translate(-290.164 -131.192)" fill="#fff"/>
      <path id="Path_1856" data-name="Path 1856" d="M336.776,217.18c1.179,1.625,4.473,8.365,4.587,13.949a34.6,34.6,0,0,0-2.66-2.426,35.622,35.622,0,0,0-3.023-9.068Z" transform="translate(-292.592 -131.312)" fill="#fff"/>
      <path id="Path_1857" data-name="Path 1857" d="M314.978,247.29h-2.267L291.22,374.957h2.267Z" transform="translate(-281.729 -138.669)" fill="#ffc100"/>
      <path id="Path_1858" data-name="Path 1858" d="M349.205,247.29h-2.267l-21.5,127.667h2.267Z" transform="translate(-290.09 -138.669)" fill="#ffc100"/>
      <path id="Path_1859" data-name="Path 1859" d="M349.205,247.29h-2.267l-21.5,127.667h2.267Z" transform="translate(-290.09 -138.669)" opacity="0.2"/>
      <path id="Path_1860" data-name="Path 1860" d="M360.77,247.29h2.267l21.5,127.667h-2.267Z" transform="translate(-298.723 -138.669)" fill="#ffc100"/>
      <path id="Path_1861" data-name="Path 1861" d="M326.55,247.29h2.267l21.5,127.667h-2.267Z" transform="translate(-290.362 -138.669)" fill="#ffc100"/>
      <path id="Path_1862" data-name="Path 1862" d="M321.9,239.89h28.866a2.267,2.267,0,0,1,2.267,2.267v3.355H319.66v-3.355a2.267,2.267,0,0,1,2.237-2.267Z" transform="translate(-288.678 -136.861)" fill="#ffc100"/>
    </g>
  </g>
</svg>
