<svg xmlns="http://www.w3.org/2000/svg" width="344.536" height="256.721" viewBox="0 0 344.536 256.721">
  <g id="Blank_canvas-rafiki" data-name="Blank canvas-rafiki" transform="translate(0 -55)">
    <g id="freepik--background-complete--inject-35" transform="translate(0 55)">
      <rect id="Rectangle_988" data-name="Rectangle 988" width="344.536" height="0.172" transform="translate(0 225.602)" fill="#ebebeb"/>
      <rect id="Rectangle_989" data-name="Rectangle 989" width="22.822" height="0.172" transform="translate(36.149 232.162)" fill="#ebebeb"/>
      <rect id="Rectangle_990" data-name="Rectangle 990" width="29.306" height="0.172" transform="translate(117.928 230.295)" fill="#ebebeb"/>
      <rect id="Rectangle_991" data-name="Rectangle 991" width="13.223" height="0.172" transform="translate(64.408 234.581)" fill="#ebebeb"/>
      <rect id="Rectangle_992" data-name="Rectangle 992" width="10.495" height="0.172" transform="translate(299.519 237.406)" fill="#ebebeb"/>
      <rect id="Rectangle_993" data-name="Rectangle 993" width="23.628" height="0.172" transform="translate(269.751 237.406)" fill="#ebebeb"/>
      <rect id="Rectangle_994" data-name="Rectangle 994" width="16.421" height="0.172" transform="translate(212.234 232.445)" fill="#ebebeb"/>
      <path id="Path_1783" data-name="Path 1783" d="M175.191,249.87H42.138a3.935,3.935,0,0,1-3.928-3.935V58.9A3.935,3.935,0,0,1,42.138,55H175.191a3.935,3.935,0,0,1,3.935,3.935v187A3.935,3.935,0,0,1,175.191,249.87ZM42.138,55.138A3.762,3.762,0,0,0,38.382,58.9V245.935a3.762,3.762,0,0,0,3.755,3.762H175.191a3.769,3.769,0,0,0,3.762-3.762V58.9a3.769,3.769,0,0,0-3.762-3.762Z" transform="translate(-11.881 -55)" fill="#ebebeb"/>
      <path id="Path_1784" data-name="Path 1784" d="M391.494,249.87H258.435a3.941,3.941,0,0,1-3.935-3.935V58.9a3.942,3.942,0,0,1,3.935-3.9h133.06a3.935,3.935,0,0,1,3.921,3.9V245.935A3.935,3.935,0,0,1,391.494,249.87ZM258.435,55.138a3.769,3.769,0,0,0-3.762,3.762V245.935a3.769,3.769,0,0,0,3.762,3.762h133.06a3.769,3.769,0,0,0,3.762-3.762V58.9a3.769,3.769,0,0,0-3.762-3.762Z" transform="translate(-79.131 -55)" fill="#ebebeb"/>
      <path id="Path_1785" data-name="Path 1785" d="M51.6,274.83H48.54l.579,74.124H54.19Z" transform="translate(-15.092 -123.351)" fill="#e0e0e0"/>
      <path id="Path_1786" data-name="Path 1786" d="M51.11,272.92h52.962l5.892,75.44H57Z" transform="translate(-15.891 -122.757)" fill="#f5f5f5"/>
      <path id="Path_1787" data-name="Path 1787" d="M50.19,272.92H48.15l5.892,75.44h2.04Z" transform="translate(-14.971 -122.757)" fill="#ebebeb"/>
      <path id="Path_1788" data-name="Path 1788" d="M173.49,167H277.685l11.6,148.426H185.087Z" transform="translate(-53.943 -89.824)" fill="#f5f5f5"/>
      <path id="Path_1789" data-name="Path 1789" d="M267.532,228.552c3.39,5.871,9.985,9.089,16.421,11.156,3.018.978,7.008,1.482,8.765-1.165,1.378-2.067.5-4.879,1.116-7.284,1.089-4.217,6.126-5.8,10.377-6.753a37.74,37.74,0,0,0,5.885-1.826l-2.7-34.591a7.614,7.614,0,0,0-1.185,2.432c-.689,2.177.51,4.631-.269,6.767-.689,1.964-2.922,3.039-5.01,3.17a24.86,24.86,0,0,1-6.2-.882c-8.179-1.612-17.268.3-23.256,6.085S263.37,221.338,267.532,228.552Z" transform="translate(-82.509 -96.381)" fill="#f5f5f5"/>
      <path id="Path_1790" data-name="Path 1790" d="M173.49,167l5.864,75.447a52.773,52.773,0,0,0,4.079,4.134,35.74,35.74,0,0,0,12.955,8.014,23.184,23.184,0,0,0,5.085,1.013c-3.163,4.327-4,10.619-.758,14.856,1.75,2.288,4.389,3.693,6.65,5.513s4.3,4.382,4,7.249c-.214,2.067-1.626,3.831-3.053,5.368-5.513,5.96-12.307,11.025-16.028,18.26-1.116,2.164-1.943,4.624-1.454,7a6.962,6.962,0,0,0,.524,1.578h50.02a26.13,26.13,0,0,0,.475-17.916c-3.328-9.647-11.935-16.972-21.6-20.314,4.134-3.838,9.792-5.513,15.256-6.973s11.135-2.811,15.663-6.2c7.511-5.609,9.344-21.327-3.521-20.755-3.735.165-7.035,2.322-10.949,2.419s-7.752,0-11.563.248a26.653,26.653,0,0,0,4.01-5.83c1.73-3.445,2.8-7.332,2.019-11.08-2.012-9.606-14.381-13.148-19.115-21.747-5.719-10.384,1.626-23.635-1.606-35.046A17.916,17.916,0,0,0,207.971,167Z" transform="translate(-53.943 -89.824)" fill="#f5f5f5"/>
      <path id="Path_1791" data-name="Path 1791" d="M173.49,166.991l5.864,75.447a52.779,52.779,0,0,0,4.079,4.134,35.74,35.74,0,0,0,12.955,8.014,23.179,23.179,0,0,0,5.085,1.013c8.7.779,17.7-3.094,23.594-9.688a26.653,26.653,0,0,0,4.01-5.83c1.73-3.445,2.8-7.332,2.019-11.08-2.012-9.606-14.381-13.148-19.115-21.747-5.719-10.384,1.626-23.635-1.606-35.046a17.916,17.916,0,0,0-2.467-5.237Z" transform="translate(-53.943 -89.815)" fill="#e6e6e6"/>
      <path id="Path_1792" data-name="Path 1792" d="M198.628,348.255a6.959,6.959,0,0,0,.524,1.578h49.992a26.13,26.13,0,0,0,.475-17.916c-3.328-9.647-11.935-16.972-21.6-20.314,4.134-3.838,9.792-5.513,15.256-6.973s11.135-2.811,15.663-6.2c7.511-5.609,9.344-21.327-3.521-20.755-3.735.165-7.035,2.322-10.949,2.419s-7.752,0-11.563.248a47.383,47.383,0,0,0-7.911,1.047c-5.575,1.247-11.225,3.445-14.967,7.738a8.459,8.459,0,0,0-.689.9c-3.163,4.327-4,10.619-.758,14.856,1.75,2.288,4.389,3.693,6.65,5.513s4.3,4.383,4,7.249c-.214,2.067-1.626,3.831-3.053,5.368-5.513,5.96-12.307,11.025-16.028,18.26A10.52,10.52,0,0,0,198.628,348.255Z" transform="translate(-61.716 -124.23)" fill="#fff"/>
      <path id="Path_1793" data-name="Path 1793" d="M267.532,228.552c3.39,5.871,9.985,9.089,16.421,11.156,3.018.978,7.008,1.482,8.765-1.165,1.378-2.067.5-4.879,1.116-7.284,1.089-4.217,6.126-5.8,10.377-6.753a37.74,37.74,0,0,0,5.885-1.826l-2.7-34.591a7.614,7.614,0,0,0-1.185,2.432c-.689,2.177.51,4.631-.269,6.767-.689,1.964-2.922,3.039-5.01,3.17a24.86,24.86,0,0,1-6.2-.882c-8.179-1.612-17.268.3-23.256,6.085S263.37,221.338,267.532,228.552Z" transform="translate(-82.509 -96.381)" fill="#f0f0f0"/>
      <path id="Path_1794" data-name="Path 1794" d="M170.713,170.409l-2.563-.579,3.68,146.476H181.1Z" transform="translate(-52.282 -90.704)" fill="#e0e0e0"/>
      <path id="Path_1795" data-name="Path 1795" d="M171.677,167H167.66l11.6,148.426h4.017Z" transform="translate(-52.13 -89.824)" fill="#ebebeb"/>
      <path id="Path_1796" data-name="Path 1796" d="M315.89,218.11h79.471l8.848,113.208H324.738Z" transform="translate(-98.219 -105.715)" fill="#f5f5f5"/>
      <path id="Path_1797" data-name="Path 1797" d="M314.506,218.11H311.44l5.072,113.208h5.072Z" transform="translate(-96.835 -105.715)" fill="#e0e0e0"/>
      <path id="Path_1798" data-name="Path 1798" d="M314.506,218.11H311.44l8.848,113.208h3.066Z" transform="translate(-96.835 -105.715)" fill="#ebebeb"/>
      <rect id="Rectangle_995" data-name="Rectangle 995" width="15.297" height="42.261" transform="translate(70.368 56.352) rotate(180)" fill="#ebebeb"/>
      <rect id="Rectangle_996" data-name="Rectangle 996" width="208.272" height="42.261" transform="translate(278.64 56.352) rotate(180)" fill="#f5f5f5"/>
      <rect id="Rectangle_997" data-name="Rectangle 997" width="33.992" height="200.003" transform="translate(274.499 18.226) rotate(90)" fill="#e6e6e6"/>
      <rect id="Rectangle_998" data-name="Rectangle 998" width="33.992" height="17.303" transform="translate(128.202 18.219) rotate(90)" fill="#e0e0e0"/>
      <rect id="Rectangle_999" data-name="Rectangle 999" width="33.992" height="3.976" transform="translate(132.178 18.219) rotate(90)" fill="#f5f5f5"/>
      <rect id="Rectangle_1000" data-name="Rectangle 1000" width="24.807" height="22.967" rx="2.44" transform="translate(263.901 52.218) rotate(180)" fill="#fafafa"/>
      <rect id="Rectangle_1001" data-name="Rectangle 1001" width="19.832" height="2.832" rx="0.77" transform="translate(261.413 29.251) rotate(180)" fill="#fff"/>
      <path id="Path_1799" data-name="Path 1799" d="M0,0H18.991a.916.916,0,0,1,.916.916V11.328a.916.916,0,0,1-.916.916H0Z" transform="translate(263.901 46.857) rotate(180)" fill="#f0f0f0"/>
      <rect id="Rectangle_1002" data-name="Rectangle 1002" width="24.807" height="22.967" rx="2.44" transform="translate(234.657 52.218) rotate(180)" fill="#f5f5f5"/>
      <rect id="Rectangle_1003" data-name="Rectangle 1003" width="19.832" height="2.832" rx="0.77" transform="translate(232.169 29.251) rotate(180)" fill="#fff"/>
      <path id="Path_1800" data-name="Path 1800" d="M0,0H18.991a.916.916,0,0,1,.916.916V11.328a.916.916,0,0,1-.916.923H0Z" transform="translate(234.657 46.857) rotate(180)" fill="#ebebeb"/>
      <rect id="Rectangle_1004" data-name="Rectangle 1004" width="17.179" height="15.911" rx="1.69" transform="translate(213.592 52.218) rotate(180)" fill="#fafafa"/>
      <rect id="Rectangle_1005" data-name="Rectangle 1005" width="13.733" height="1.964" rx="0.53" transform="translate(211.869 36.307) rotate(180)" fill="#fff"/>
      <path id="Path_1801" data-name="Path 1801" d="M0,0H9.061A.634.634,0,0,1,9.7.634V7.849a.634.634,0,0,1-.634.634H0Z" transform="translate(213.592 48.504) rotate(180)" fill="#f0f0f0"/>
      <rect id="Rectangle_1006" data-name="Rectangle 1006" width="17.179" height="15.911" rx="1.69" transform="translate(100.756 52.218) rotate(180)" fill="#f5f5f5"/>
      <rect id="Rectangle_1007" data-name="Rectangle 1007" width="13.733" height="1.964" rx="0.53" transform="translate(99.034 36.307) rotate(180)" fill="#fff"/>
      <rect id="Rectangle_1008" data-name="Rectangle 1008" width="13.788" height="8.482" rx="2.12" transform="translate(99.599 48.504) rotate(180)" fill="#ebebeb"/>
      <rect id="Rectangle_1009" data-name="Rectangle 1009" width="24.731" height="26.24" transform="translate(189.019 52.218) rotate(180)" fill="#f0f0f0"/>
      <rect id="Rectangle_1010" data-name="Rectangle 1010" width="24.731" height="3.466" transform="translate(189.019 29.444) rotate(180)" fill="#fff"/>
      <rect id="Rectangle_1011" data-name="Rectangle 1011" width="4.41" height="26.24" transform="translate(171.393 52.218) rotate(180)" fill="#e0e0e0" opacity="0.3"/>
      <rect id="Rectangle_1012" data-name="Rectangle 1012" width="2.205" height="26.24" transform="translate(175.555 52.218) rotate(180)" fill="#e0e0e0" opacity="0.3"/>
      <rect id="Rectangle_1013" data-name="Rectangle 1013" width="22.167" height="23.518" transform="translate(161.842 52.218) rotate(180)" fill="#e0e0e0"/>
      <rect id="Rectangle_1014" data-name="Rectangle 1014" width="22.167" height="3.108" transform="translate(161.842 31.808) rotate(180)" fill="#f0f0f0"/>
      <rect id="Rectangle_1015" data-name="Rectangle 1015" width="3.948" height="23.518" transform="translate(146.042 52.218) rotate(180)" fill="#f5f5f5" opacity="0.3"/>
      <rect id="Rectangle_1016" data-name="Rectangle 1016" width="1.978" height="23.518" transform="translate(149.77 52.218) rotate(180)" fill="#f5f5f5" opacity="0.3"/>
    </g>
    <g id="freepik--Shadow--inject-35" transform="translate(38.664 296.12)">
      <ellipse id="freepik--path--inject-35" cx="133.604" cy="7.8" rx="133.604" ry="7.8" fill="#f5f5f5"/>
    </g>
    <g id="freepik--Canvas--inject-35" transform="translate(85.872 71.421)">
      <path id="Path_1802" data-name="Path 1802" d="M154.36,312.825h3.976L166.4,90.33h-3.983Z" transform="translate(-133.867 -82.406)" fill="#ffc100"/>
      <path id="Path_1803" data-name="Path 1803" d="M233.046,312.825h-3.983l-37-222.495h3.983Z" transform="translate(-145.589 -82.406)" fill="#ffc100"/>
      <path id="Path_1804" data-name="Path 1804" d="M124.62,309.249H128.6L166.943,78.83H162.96Z" transform="translate(-124.62 -78.83)" fill="#ffc100"/>
      <rect id="Rectangle_1017" data-name="Rectangle 1017" width="17.93" height="2.846" transform="translate(48.628 13.878) rotate(180)" fill="#ffc100"/>
      <rect id="Rectangle_1018" data-name="Rectangle 1018" width="44.866" height="3.101" transform="translate(71.374 149.99) rotate(180)" fill="#ffc100"/>
      <rect id="Rectangle_1019" data-name="Rectangle 1019" width="0.689" height="3.177" transform="translate(1.94 38.265) rotate(-4.26)" fill="#ffc100"/>
      <rect id="Rectangle_1020" data-name="Rectangle 1020" width="0.689" height="11.356" transform="translate(0.822 23.277) rotate(-4.25)" fill="#ffc100"/>
      <path id="Path_1805" data-name="Path 1805" d="M136.833,214.224l1.364.014L129.584,97.544l-1.364-.014Z" transform="translate(-125.739 -84.644)" fill="#ffc100"/>
      <path id="Path_1806" data-name="Path 1806" d="M138.813,214.244l80.959.779L211.159,98.329,130.2,97.55Z" transform="translate(-126.355 -84.651)" fill="#ffc100"/>
      <path id="Path_1807" data-name="Path 1807" d="M138.813,214.244l80.959.779L211.159,98.329,130.2,97.55Z" transform="translate(-126.355 -84.651)" fill="#fff" opacity="0.8"/>
      <path id="Path_1808" data-name="Path 1808" d="M141.781,214.207l77.217.041-8.352-114.62L132.32,99.58Z" transform="translate(-127.014 -85.282)" fill="#fff"/>
      <path id="Path_1809" data-name="Path 1809" d="M191.412,266.691h20.672a1.592,1.592,0,0,0,1.578-1.426l.441-4.134H190.241l-.407,3.769a1.592,1.592,0,0,0,1.578,1.792Z" transform="translate(-144.893 -135.512)" fill="#ffc100"/>
    </g>
    <g id="freepik--Character--inject-35" transform="translate(192.017 88.451)">
      <path id="Path_1810" data-name="Path 1810" d="M306.476,167.185a13.7,13.7,0,0,1-2.226-1.1c-.785-.475-1.6-.992-2.4-1.557-1.605-1.13-3.2-2.377-4.789-3.659-3.149-2.584-4.679-3.68-7.731-6.443l-3.142,2.825a72.106,72.106,0,0,0,6.76,8.117c1.5,1.557,3.06,3.066,4.755,4.52.848.689,1.73,1.447,2.687,2.122a20.76,20.76,0,0,0,3.266,1.943,10.537,10.537,0,0,0,2.308.758,6.271,6.271,0,0,0,3.755-.379,5.664,5.664,0,0,0,1.943-1.468,6.11,6.11,0,0,0,.634-.9c.152-.276.3-.579.413-.841l.145-.393.1-.324.124-.413Z" transform="translate(-281.001 -119.367)" fill="#ffb573"/>
      <path id="Path_1811" data-name="Path 1811" d="M292.354,208.419c1.316-7.635,3.287-11.528,4.2-13.017.73-2.109,1.792-3.817,2.295-6.408-.51-9.5-.165-22.65.882-24.807.6-.951,4.823-3.266,5.161-3.349.634-6.078,4.934-11.4,4.934-11.4a24.284,24.284,0,0,1,3.3,0c-4.258,5.664-4.824,9.323-5.161,10.825a55.311,55.311,0,0,1,13.623-.214c1.227-6.057,6.395-9.564,6.395-9.564a13.092,13.092,0,0,1,2.66.606c-4.417,4.768-5.237,7.725-5.781,9.371,1.854.276,3.962,3.831,3.962,3.831-3.018,12.293-5.237,23-5.292,25.64s1.006,2.067,1.378,4.451c3.611.455,3.935,1.144,3.935,1.144a5.774,5.774,0,0,1-.386,2.68,15.63,15.63,0,0,0-3.776-.848c-3.4,18.081-8.152,35.432-8.5,52.9l-37.492-1.04S287.255,216.709,292.354,208.419Z" transform="translate(-278.669 -117.796)" fill="#fff"/>
      <path id="Path_1812" data-name="Path 1812" d="M290.987,154.346l-1.047-4.286L284,153.237s1.84,4.9,4.6,4.451l1.681-1.289A1.991,1.991,0,0,0,290.987,154.346Z" transform="translate(-280.32 -118.008)" fill="#ffb573"/>
      <path id="Path_1813" data-name="Path 1813" d="M285.964,143.53l-3.514,5.306,1.054,2.37,5.954-3.177Z" transform="translate(-279.838 -115.978)" fill="#ffb573"/>
      <path id="Path_1814" data-name="Path 1814" d="M343.421,130.16c-1.64,4.059-3.976,11.528-1.7,14.471-2.667,2.067-6.084,4.431-10.949,4.272s-3.335-3.445-1.7-5.14c4.761-.779,5.34-4.19,5.2-7.435Z" transform="translate(-293.842 -111.82)" fill="#ffb573"/>
      <path id="Path_1815" data-name="Path 1815" d="M331.239,116.046a.262.262,0,0,0,.255,0,2.067,2.067,0,0,1,1.923-.083.268.268,0,0,0,.262-.469,2.646,2.646,0,0,0-2.432.083.262.262,0,0,0-.11.358A.228.228,0,0,0,331.239,116.046Z" transform="translate(-294.966 -107.181)" fill="#263238"/>
      <path id="Path_1816" data-name="Path 1816" d="M330.4,120a16.248,16.248,0,0,1-2.915,3.356,2.625,2.625,0,0,0,2.067.841Z" transform="translate(-293.842 -108.661)" fill="#ed893e"/>
      <path id="Path_1817" data-name="Path 1817" d="M331.236,119.792c-.09.441-.406.758-.689.689s-.448-.475-.358-.916.407-.758.689-.689S331.333,119.344,331.236,119.792Z" transform="translate(-294.674 -108.309)" fill="#263238"/>
      <path id="Path_1818" data-name="Path 1818" d="M346.131,118.306c-1.482,5.389-2.067,8.613-5.409,10.839-5.03,3.349-11.239-.558-11.4-6.277-.145-5.154,2.295-13.092,8.09-14.147a7.614,7.614,0,0,1,8.724,9.585Z" transform="translate(-294.409 -105.114)" fill="#ffb573"/>
      <path id="Path_1819" data-name="Path 1819" d="M333.975,117.675a7.539,7.539,0,0,0,.193,6.815c1.109,2.26,1.971,3.638,6.243,4.355s2.832-5.161,4.823-7.5,9.068-9.647,1.909-11.48c1.537-5.4-2.343-7.2-7.29-5.706s-11.645,3.342-10.736.345c0,0-5.9,7.428,6.891,6.546C331.8,114.65,333.975,117.675,333.975,117.675Z" transform="translate(-293.926 -103.58)" fill="#263238"/>
      <path id="Path_1820" data-name="Path 1820" d="M339.426,104.837a13.823,13.823,0,0,1,7.311-1.213c4,.331,7.139,2.412,8.269,7.979s.345,10.4-2.357,9.916c-.889-1.123-4.548,1.86-4.548,1.86-.765,1.523-5.988-2.35-8.228-6.774S336.181,105.354,339.426,104.837Z" transform="translate(-296.965 -103.545)" fill="#ffc100"/>
      <path id="Path_1821" data-name="Path 1821" d="M339.426,104.837a13.823,13.823,0,0,1,7.311-1.213c4,.331,7.139,2.412,8.269,7.979s.345,10.4-2.357,9.916c-.889-1.123-4.548,1.86-4.548,1.86-.765,1.523-5.988-2.35-8.228-6.774S336.181,105.354,339.426,104.837Z" transform="translate(-296.965 -103.545)" fill="#fff" opacity="0.3"/>
      <path id="Path_1822" data-name="Path 1822" d="M336.513,105.679c-1.84.3-1.185,6.126.882,10.908s5.568,8.923,9.144,9.5a3.025,3.025,0,0,0,.958-2.184c-.992-.689-4.486-2.488-7.7-8.917s-.992-9.647-.992-9.647C338.7,104.921,336.513,105.679,336.513,105.679Z" transform="translate(-296.312 -104.063)" fill="#ffc100"/>
      <path id="Path_1823" data-name="Path 1823" d="M337.469,122.912a5.092,5.092,0,0,1-2.067,2.756c-1.3.834-2.2-.179-2.067-1.612.131-1.282.965-3.266,2.364-3.521S337.882,121.534,337.469,122.912Z" transform="translate(-295.655 -108.818)" fill="#ffb573"/>
      <path id="Path_1824" data-name="Path 1824" d="M317.57,402.017h-5.63l1.123-13.037h5.63Z" transform="translate(-289.007 -192.295)" fill="#ffb573"/>
      <path id="Path_1825" data-name="Path 1825" d="M306.778,407h6.856a.489.489,0,0,1,.482.386l1.109,5a.82.82,0,0,1-.82,1c-2.212-.034-3.817-.165-6.6-.165-1.709,0-5.471.179-7.835.179s-2.667-2.336-1.7-2.55c4.334-.951,6.2-2.253,7.58-3.507A1.378,1.378,0,0,1,306.778,407Z" transform="translate(-284.597 -197.898)" fill="#263238"/>
      <path id="Path_1826" data-name="Path 1826" d="M318.939,388.99h-5.63l-.579,6.718h5.63Z" transform="translate(-289.253 -192.298)" opacity="0.2"/>
      <path id="Path_1827" data-name="Path 1827" d="M286.6,139.1c-.689.214-.565.579-.648.9l-.172.992-.345,1.985-.634,3.983q-.3,1.985-.572,3.99c-.152,1.337-.345,2.667-.469,4.01a.351.351,0,0,0,.689.117c.351-1.3.634-2.612.951-3.921s.579-2.625.848-3.941l.786-3.948.365-1.985.186-.985c0-.338.276-.634-.3-1.082A.758.758,0,0,0,286.6,139.1Z" transform="translate(-280.245 -114.59)" fill="#263238"/>
      <path id="Path_1828" data-name="Path 1828" d="M287.586,137.049c.724.138,2.067-.31,1.647-2.143s-1.537-2.267-.1-3.576C286.4,132.908,285.168,136.567,287.586,137.049Z" transform="translate(-281.033 -112.184)" fill="#ffc100"/>
      <path id="Path_1829" data-name="Path 1829" d="M343.688,155.664c-7.862,20.507-6.333,41.344-7.27,45.754l-29.961-.93c-.792-26.316,3.569-43.039,6.271-48.042a3.611,3.611,0,0,1,2.6-1.874c.792-.124,1.812-.262,2.956-.386.834-.09,1.73-.172,2.667-.227.51-.034,1.034-.055,1.564-.069a109.3,109.3,0,0,1,12.651.868c.786.1,1.585.214,2.357.338s1.413.248,2.067.379c.834.158,1.612.331,2.3.489a2.66,2.66,0,0,1,1.8,3.7Z" transform="translate(-287.273 -117.955)" fill="#ffc100"/>
      <path id="Path_1830" data-name="Path 1830" d="M310.064,163.366l-.944,3.445c22.774,7.359,13.471-17.413,13.471-17.413a12.052,12.052,0,0,0-3.3,0C323.7,161.719,319.525,167.742,310.064,163.366Z" transform="translate(-288.131 -117.767)" fill="#fff"/>
      <path id="Path_1831" data-name="Path 1831" d="M325.328,161.919c5.375-.193,7.966,9.454,7.966,9.454l-.689.517,4.693,8.117-5.513,3.211-5.147-7.9-1.309.972a20.121,20.121,0,0,1-5.409-6.346C316.942,164.372,318.809,162.139,325.328,161.919Z" transform="translate(-291.06 -121.694)" opacity="0.2"/>
      <path id="Path_1832" data-name="Path 1832" d="M337.93,180.84a7.1,7.1,0,0,0-.3-1.378,6.365,6.365,0,0,0-.227-.613l-.207-.462c-.393-.875-.779-1.764-1.213-2.612a53.909,53.909,0,0,0-2.846-4.989,55.543,55.543,0,0,0-3.335-4.658c-.606-.744-1.22-1.475-1.867-2.191-.317-.365-.655-.689-.985-1.075l-.531-.531-.586-.572-5.892,6.2.758.82c.276.3.551.593.827.9.544.613,1.082,1.254,1.605,1.895,1.068,1.282,2.067,2.6,3.073,3.955s1.929,2.756,2.791,4.134c.427.655.806,1.33,1.2,2.005a9.242,9.242,0,0,1-1.612.944,29.959,29.959,0,0,1-4.527,1.612c-3.232.9-6.718,1.592-10.122,2.212l.172,4.224a59.048,59.048,0,0,0,11.184-.324,31.7,31.7,0,0,0,5.809-1.261,14.851,14.851,0,0,0,3.142-1.426,9.26,9.26,0,0,0,1.7-1.323,7.021,7.021,0,0,0,1.557-2.281A6.5,6.5,0,0,0,337.93,180.84Z" transform="translate(-289.626 -121.646)" fill="#ffb573"/>
      <path id="Path_1833" data-name="Path 1833" d="M314.846,197l-4.4.455,2.343,6.319s5.106-1.151,5.037-3.942l-1.047-1.84a2,2,0,0,0-1.936-.992Z" transform="translate(-288.544 -132.598)" fill="#ffb573"/>
      <path id="Path_1834" data-name="Path 1834" d="M304.7,199.747l.889,5.857L311,204.026l-2.343-6.326Z" transform="translate(-286.756 -132.821)" fill="#ffb573"/>
      <path id="Path_1835" data-name="Path 1835" d="M320.874,150.237c5.354.565,11.873,14.085,11.873,14.085l-8.958,5.995s-3.721-1.316-7.731-6.994C311.254,156.486,313.88,149.513,320.874,150.237Z" transform="translate(-289.527 -118.047)" fill="#ffc100"/>
      <path id="Path_1836" data-name="Path 1836" d="M317.9,223.8s-6.147,44.238-7.745,60.687c-1.757,18.04-1,57.724-1,57.724h10.336s2.894-39.684,6.14-57.276c3.693-20.031,14.471-50.047,11.632-60.528Z" transform="translate(-288.091 -140.936)" fill="#263238"/>
      <path id="Path_1837" data-name="Path 1837" d="M321.04,242.92c-.372.124-2.012.317-3.735.6-1.247,9.275-2.894,21.685-4.176,32.159C317.9,267.334,322.336,251.244,321.04,242.92Z" transform="translate(-289.377 -146.881)" opacity="0.2"/>
      <path id="Path_1838" data-name="Path 1838" d="M307.941,395.02h12.141l.5-3.625L307.9,390.81Z" transform="translate(-287.751 -192.864)" fill="#ffc100"/>
      <path id="Path_1839" data-name="Path 1839" d="M307.941,395.02h12.141l.5-3.625L307.9,390.81Z" transform="translate(-287.751 -192.864)" opacity="0.2"/>
      <path id="Path_1840" data-name="Path 1840" d="M320.55,400.6Z" transform="translate(-291.684 -195.908)" fill="#ffc100"/>
      <path id="Path_1841" data-name="Path 1841" d="M307.526,407.736a6.889,6.889,0,0,0,1.475-.2.131.131,0,0,0,.1-.11.138.138,0,0,0-.062-.138c-.207-.124-2.019-1.24-2.646-.923a.434.434,0,0,0-.227.379.813.813,0,0,0,.276.689,1.7,1.7,0,0,0,1.082.3Zm1.089-.393a2.734,2.734,0,0,1-2-.1.558.558,0,0,1-.179-.482c0-.11.048-.145.083-.159C306.844,406.44,307.877,406.923,308.615,407.343Z" transform="translate(-287.212 -197.682)" fill="#ffc100"/>
      <path id="Path_1842" data-name="Path 1842" d="M309.49,406.941a.131.131,0,0,0,.131-.145c0-.069-.138-1.688-.792-2.226a.765.765,0,0,0-.572-.172h0a.434.434,0,0,0-.42.351c-.117.627,1.006,1.861,1.585,2.178Zm-1.137-2.281a.482.482,0,0,1,.3.117,3.231,3.231,0,0,1,.689,1.764c-.579-.441-1.3-1.378-1.227-1.743,0-.034,0-.11.193-.131h.062Z" transform="translate(-287.729 -197.087)" fill="#ffc100"/>
      <path id="Path_1843" data-name="Path 1843" d="M310.143,393.991l-5.451,1.9-2.942-12.431,5.458-1.9Z" transform="translate(-285.839 -189.988)" fill="#ffb573"/>
      <path id="Path_1844" data-name="Path 1844" d="M303.863,402.063c-.034-.055-.689-1.426-1.578-1.73a1,1,0,0,0-.772.041c-.276.138-.345.3-.345.441a.338.338,0,0,0,0,.083c.131.634,1.812,1.309,2.556,1.378a.124.124,0,0,0,.09,0h0a.138.138,0,0,0,.048-.214Zm-2.426-1.213a.158.158,0,0,1,.076-.159.572.572,0,0,1,.117-.076.729.729,0,0,1,.31-.076.875.875,0,0,1,.262.048,3.129,3.129,0,0,1,1.3,1.378C302.705,401.808,301.513,401.229,301.438,400.85Z" transform="translate(-285.657 -195.807)" fill="#ffc100"/>
      <path id="Path_1845" data-name="Path 1845" d="M303.425,402.956a.138.138,0,0,0,.041-.131.131.131,0,0,0-.11-.1c-.289-.041-2.8-.331-3.314.262a.413.413,0,0,0-.083.413h0a.758.758,0,0,0,.455.524c.772.3,2.205-.475,2.991-.958Zm-3.142.165a5.535,5.535,0,0,1,2.639-.179,3.583,3.583,0,0,1-2.412.723.475.475,0,0,1-.3-.344.145.145,0,0,1,0-.158.232.232,0,0,1,.09-.041Z" transform="translate(-285.275 -196.534)" fill="#ffc100"/>
      <path id="Path_1846" data-name="Path 1846" d="M301.472,400.795l5.761-2.129a.489.489,0,0,1,.586.193l2.756,4.307a.82.82,0,0,1-.413,1.233c-2.067.73-5.141,1.723-7.752,2.687-3.06,1.13-3.039,1.268-6.629,2.591-2.164.806-3.576-1.165-2.756-1.7,3.8-2.432,4.541-2.756,7.29-6.291A2.6,2.6,0,0,1,301.472,400.795Z" transform="translate(-283.052 -195.296)" fill="#263238"/>
      <path id="Path_1847" data-name="Path 1847" d="M301.76,383.469l1.509,6.408,5.458-1.909-1.516-6.408Z" transform="translate(-285.842 -189.988)" opacity="0.2"/>
      <path id="Path_1848" data-name="Path 1848" d="M295.714,280.407c4.775-11.983,21.823-56.5,21.823-56.5l-19.694-.613S284.751,260.059,279.6,277c-5.375,17.613,13.947,62.237,13.947,62.237l9.909-3.094S290.939,292.39,295.714,280.407Z" transform="translate(-278.66 -140.777)" fill="#263238"/>
      <path id="Path_1849" data-name="Path 1849" d="M299.017,389.76l11.191-3.941-.806-3.439-11.632,3.494Z" transform="translate(-284.602 -190.243)" fill="#ffc100"/>
      <path id="Path_1850" data-name="Path 1850" d="M299.017,389.76l11.191-3.941-.806-3.439-11.632,3.494Z" transform="translate(-284.602 -190.243)" opacity="0.2"/>
      <path id="Path_1851" data-name="Path 1851" d="M305.857,213.9l-.317,3.08c13.926.372,20.39,2.005,20.39,2.005a17.488,17.488,0,0,0,.31-2.811C321.154,214.227,311.507,213.793,305.857,213.9Z" transform="translate(-287.017 -137.854)" fill="#fff"/>
      <path id="Path_1852" data-name="Path 1852" d="M346.318,216.157l-.386,2.68a58.672,58.672,0,0,0-10.949.737,5.912,5.912,0,0,1,.365-2.811C341.033,215.337,344.63,215.757,346.318,216.157Z" transform="translate(-296.16 -138.44)" fill="#fff"/>
      <path id="Path_1853" data-name="Path 1853" d="M352.89,151.566l-2.66-.606c.455,10.536,3.618,16.365,3.618,16.365a10.914,10.914,0,0,0,1.24-4.134A24.972,24.972,0,0,1,352.89,151.566Z" transform="translate(-300.913 -118.288)" fill="#fff"/>
      <path id="Path_1854" data-name="Path 1854" d="M332.656,219.574c-.234.8,1.557.427,1.819.165s3.177-3.39,1.612-3.562-1.688.172-1.688.172a3.776,3.776,0,0,0-1.895-.579C331.416,215.756,333.145,217.941,332.656,219.574Z" transform="translate(-295.287 -138.439)" fill="#fff"/>
      <path id="Path_1855" data-name="Path 1855" d="M330.508,216.69A16.344,16.344,0,0,0,325.74,226.7a21.968,21.968,0,0,1,2.674-1.075,13.738,13.738,0,0,1,2.639-6.147Z" transform="translate(-293.298 -138.725)" fill="#fff"/>
      <path id="Path_1856" data-name="Path 1856" d="M336.679,217.18c1.075,1.481,4.079,7.628,4.183,12.72a31.552,31.552,0,0,0-2.425-2.212,32.486,32.486,0,0,0-2.756-8.269Z" transform="translate(-296.389 -138.877)" fill="#fff"/>
      <path id="Path_1857" data-name="Path 1857" d="M312.884,247.29h-2.067l-19.6,116.419h2.067Z" transform="translate(-282.565 -148.239)" fill="#ffc100"/>
      <path id="Path_1858" data-name="Path 1858" d="M347.111,247.29h-2.067l-19.6,116.419h2.067Z" transform="translate(-293.205 -148.239)" fill="#ffc100"/>
      <path id="Path_1859" data-name="Path 1859" d="M347.111,247.29h-2.067l-19.6,116.419h2.067Z" transform="translate(-293.205 -148.239)" opacity="0.2"/>
      <path id="Path_1860" data-name="Path 1860" d="M360.77,247.29h2.067l19.6,116.419h-2.067Z" transform="translate(-304.19 -148.239)" fill="#ffc100"/>
      <path id="Path_1861" data-name="Path 1861" d="M326.55,247.29h2.067l19.6,116.419h-2.067Z" transform="translate(-293.55 -148.239)" fill="#ffc100"/>
      <path id="Path_1862" data-name="Path 1862" d="M321.7,239.89h26.323a2.067,2.067,0,0,1,2.067,2.067v3.059H319.66v-3.059a2.067,2.067,0,0,1,2.04-2.067Z" transform="translate(-291.408 -145.939)" fill="#ffc100"/>
    </g>
  </g>
</svg>
