<svg xmlns="http://www.w3.org/2000/svg" width="230.489" height="201.493" viewBox="0 0 230.489 201.493">
  <g id="Classroom-rafiki" transform="translate(-52.612 -76.056)">
    <g id="freepik--background-simple--inject-1" transform="translate(55.234 76.056)">
      <path id="Path_105" data-name="Path 105" d="M248.659,167.89c-2.058-22.276-50.255-74-85.847-86.466-46.162-16.171-94.09,4.918-104.127,53.528-9.326,45.159,26.111,81.513,72.456,86.059C172.414,225.064,252.477,194.631,248.659,167.89Z" transform="translate(-57.187 -76.056)" fill="#ffc100"/>
      <path id="Path_106" data-name="Path 106" d="M248.659,167.89c-2.058-22.276-50.255-74-85.847-86.466-46.162-16.171-94.09,4.918-104.127,53.528-9.326,45.159,26.111,81.513,72.456,86.059C172.414,225.064,252.477,194.631,248.659,167.89Z" transform="translate(-57.187 -76.056)" fill="#fff" opacity="0.9"/>
    </g>
    <g id="freepik--Shadow--inject-1" transform="translate(54.617 264.571)">
      <ellipse id="freepik--path--inject-1" cx="111.144" cy="6.489" rx="111.144" ry="6.489" fill="#f5f5f5"/>
    </g>
    <g id="freepik--Board--inject-1" transform="translate(163.067 96.087)">
      <rect id="Rectangle_61" data-name="Rectangle 61" width="110.507" height="80.499" transform="translate(4.764 0.814)" fill="#263238"/>
      <path id="Path_107" data-name="Path 107" d="M294.2,155.89a4.133,4.133,0,0,1-1.622-.447,5.561,5.561,0,0,0-1.06-.367,5.9,5.9,0,0,0-1.146-.069,4.138,4.138,0,0,1-1.639-.2,4.248,4.248,0,0,1-1.318-1.032,6.394,6.394,0,0,0-.843-.757,6.6,6.6,0,0,0-1.032-.5,4.1,4.1,0,0,1-1.445-.82,4.161,4.161,0,0,1-.82-1.439,5.372,5.372,0,0,0-.5-1.032,5.431,5.431,0,0,0-.757-.848,4.082,4.082,0,0,1-1.026-1.318,4.209,4.209,0,0,1-.206-1.634,5.938,5.938,0,0,0-.063-1.146,5.406,5.406,0,0,0-.373-1.055,3.176,3.176,0,0,1,0-3.25,5.6,5.6,0,0,0,.373-1.06,5.849,5.849,0,0,0,.063-1.146,4.254,4.254,0,0,1,.206-1.639,4.123,4.123,0,0,1,1.026-1.313,5.431,5.431,0,0,0,.757-.848,5.537,5.537,0,0,0,.5-1.032,4.242,4.242,0,0,1,.82-1.445,4.339,4.339,0,0,1,1.445-.82,5.538,5.538,0,0,0,1.032-.5,5.673,5.673,0,0,0,.843-.745,4.385,4.385,0,0,1,1.318-1.026,4.138,4.138,0,0,1,1.639-.2,5.9,5.9,0,0,0,1.146-.069,5.561,5.561,0,0,0,1.061-.367,4.133,4.133,0,0,1,1.622-.447,4.185,4.185,0,0,1,1.628.447,5.376,5.376,0,0,0,1.055.367,5.9,5.9,0,0,0,1.146.069,4.138,4.138,0,0,1,1.639.2,4.315,4.315,0,0,1,1.318,1.026,4.059,4.059,0,0,0,1.874,1.255,3.124,3.124,0,0,1,2.293,2.293,5.541,5.541,0,0,0,.5,1.032,5.437,5.437,0,0,0,.757.848,4.121,4.121,0,0,1,1.026,1.313,4.253,4.253,0,0,1,.206,1.639,5.852,5.852,0,0,0,.063,1.146,5.6,5.6,0,0,0,.373,1.06,3.176,3.176,0,0,1,0,3.25,5.41,5.41,0,0,0-.373,1.055,5.938,5.938,0,0,0-.063,1.146,4.207,4.207,0,0,1-.206,1.634,4.081,4.081,0,0,1-1.026,1.318,5.432,5.432,0,0,0-.757.848,5.369,5.369,0,0,0-.5,1.032,3.1,3.1,0,0,1-2.293,2.259,6.605,6.605,0,0,0-1.032.5,6.4,6.4,0,0,0-.843.757,4.247,4.247,0,0,1-1.318,1.032,4.139,4.139,0,0,1-1.639.2,5.9,5.9,0,0,0-1.146.069,5.375,5.375,0,0,0-1.055.367A4.184,4.184,0,0,1,294.2,155.89Zm-3.606-1.146a5.094,5.094,0,0,1,.98.069,5.7,5.7,0,0,1,1.112.39,2.912,2.912,0,0,0,3.027,0,5.7,5.7,0,0,1,1.112-.39,6.157,6.157,0,0,1,1.215-.069,3.864,3.864,0,0,0,1.525-.183,3.91,3.91,0,0,0,1.221-.963,5.812,5.812,0,0,1,.889-.791,5.914,5.914,0,0,1,1.083-.527,4.012,4.012,0,0,0,1.347-.757,3.851,3.851,0,0,0,.757-1.347,6.307,6.307,0,0,1,.527-1.083,5.859,5.859,0,0,1,.8-.894,4.013,4.013,0,0,0,.963-1.221,3.87,3.87,0,0,0,.178-1.525,6.068,6.068,0,0,1,.075-1.21,6.132,6.132,0,0,1,.384-1.146,2.9,2.9,0,0,0,0-3.021,6.3,6.3,0,0,1-.384-1.146,6.093,6.093,0,0,1-.075-1.21,3.869,3.869,0,0,0-.178-1.525,4.012,4.012,0,0,0-.963-1.221,5.86,5.86,0,0,1-.8-.894,6.306,6.306,0,0,1-.527-1.083,2.838,2.838,0,0,0-2.1-2.1,5.913,5.913,0,0,1-1.083-.527,6.093,6.093,0,0,1-.889-.791,3.824,3.824,0,0,0-1.221-.963,3.864,3.864,0,0,0-1.525-.183,4.282,4.282,0,0,1-2.327-.459,2.912,2.912,0,0,0-3.027,0,4.282,4.282,0,0,1-2.327.459,4.013,4.013,0,0,0-1.525.178,3.927,3.927,0,0,0-1.221.969,5.812,5.812,0,0,1-.889.791,5.915,5.915,0,0,1-1.083.527,3.892,3.892,0,0,0-1.347.757,3.854,3.854,0,0,0-.757,1.347,6.108,6.108,0,0,1-.527,1.083,5.859,5.859,0,0,1-.8.894,3.927,3.927,0,0,0-.963,1.221,3.869,3.869,0,0,0-.178,1.525,6.1,6.1,0,0,1-.075,1.21,6.3,6.3,0,0,1-.384,1.146,2.9,2.9,0,0,0,0,3.021,4.637,4.637,0,0,1,.459,2.356,3.869,3.869,0,0,0,.178,1.525,4.013,4.013,0,0,0,.963,1.221,5.858,5.858,0,0,1,.8.894,6.3,6.3,0,0,1,.527,1.083,3.9,3.9,0,0,0,.757,1.347,4.013,4.013,0,0,0,1.347.757,5.916,5.916,0,0,1,1.083.527,5.813,5.813,0,0,1,.888.791,3.91,3.91,0,0,0,1.221.963,3.972,3.972,0,0,0,1.525.183Z" transform="translate(-260.066 -117.965)" fill="#fff"/>
      <circle id="Ellipse_4" data-name="Ellipse 4" cx="8.042" cy="8.042" r="8.042" transform="translate(26.088 15.58)" fill="#fff"/>
      <path id="Path_108" data-name="Path 108" d="M314.75,133.522a.138.138,0,0,1-.1-.04.143.143,0,0,1,0-.206l6.306-6.306a.138.138,0,0,1,.1-.04H333.5a.143.143,0,0,1,0,.287H321.113l-6.283,6.265a.126.126,0,0,1-.08.04Z" transform="translate(-274.877 -117.798)" fill="#fff"/>
      <path id="Path_109" data-name="Path 109" d="M278.192,186.868H265.753a.143.143,0,0,1,0-.287h12.382l6.243-6.242a.143.143,0,0,1,.2.2l-6.306,6.306A.166.166,0,0,1,278.192,186.868Z" transform="translate(-253.968 -140.579)" fill="#fff"/>
      <path id="Path_110" data-name="Path 110" d="M360.122,126.693a.115.115,0,0,1-.1-.052.126.126,0,0,1,0-.172,12.662,12.662,0,0,1,1.548-.946,1.765,1.765,0,0,1,.808-.246h0a1.794,1.794,0,0,1,.785.229,3.047,3.047,0,0,0,.287.12,4.406,4.406,0,0,0,2.665-.178,5.841,5.841,0,0,1,2.574-.287q.291.072.573.172l.355.109a8.833,8.833,0,0,0,3.651-.063l.768-.109a7.452,7.452,0,0,1,3.927.287c.16.069.321.149.476.229a3.187,3.187,0,0,0,1.187.413,3.474,3.474,0,0,0,1.4-.275l.459-.149a11.892,11.892,0,0,1,4.4-.12h.269a71.294,71.294,0,0,0,12.118.086.12.12,0,0,1,.132.109.126.126,0,0,1-.109.138,71.828,71.828,0,0,1-12.164-.086h-.269a11.631,11.631,0,0,0-4.3.115c-.149.04-.3.092-.447.143a3.789,3.789,0,0,1-1.5.287,3.439,3.439,0,0,1-1.272-.441c-.155-.08-.3-.155-.464-.224a7.274,7.274,0,0,0-3.8-.269l-.757.115a9.172,9.172,0,0,1-3.76.057l-.361-.115a4.287,4.287,0,0,0-.573-.16,5.566,5.566,0,0,0-2.465.281,4.736,4.736,0,0,1-2.82.172l-.3-.132a1.868,1.868,0,0,0-.688-.206,1.542,1.542,0,0,0-.694.218,11.975,11.975,0,0,0-1.513.929A.183.183,0,0,1,360.122,126.693Z" transform="translate(-294.247 -117.028)" fill="#fff"/>
      <path id="Path_111" data-name="Path 111" d="M381.848,132.779a4.631,4.631,0,0,1-1.479-.344,4.512,4.512,0,0,0-1.519-.35,4.585,4.585,0,0,0-1.066.189,6.561,6.561,0,0,1-.7.166,7.686,7.686,0,0,1-1.886,0h-.08c-2.8-.269-5.664-.373-8.438-.476-.957-.034-2.029.12-2.161.654a.115.115,0,0,1-.1.092.126.126,0,0,1-.126-.063,2.1,2.1,0,0,0-1.9-.694,6.988,6.988,0,0,0-2.213.636.12.12,0,0,1-.16-.069.126.126,0,0,1,.069-.16,7.279,7.279,0,0,1,2.293-.654,2.585,2.585,0,0,1,2.006.631c.4-.613,1.72-.642,2.293-.619,2.78.1,5.652.206,8.461.476h.075a7.192,7.192,0,0,0,1.823,0,6.447,6.447,0,0,0,.676-.155,4.586,4.586,0,0,1,1.146-.2,5.038,5.038,0,0,1,1.6.361,3.17,3.17,0,0,0,1.834.281,2.789,2.789,0,0,0,.573-.235l.3-.143a6.736,6.736,0,0,1,3.044-.252,12.71,12.71,0,0,0,1.806.034.12.12,0,0,1,.132.109.126.126,0,0,1-.109.138,13.231,13.231,0,0,1-1.846-.034,6.472,6.472,0,0,0-2.929.235c-.1.04-.189.092-.281.138a3.2,3.2,0,0,1-.608.246A1.858,1.858,0,0,1,381.848,132.779Z" transform="translate(-294.253 -119.83)" fill="#fff"/>
      <path id="Path_112" data-name="Path 112" d="M360.131,139a.126.126,0,0,1-.046-.241,21.98,21.98,0,0,1,2.935-.963,5.187,5.187,0,0,1,1.639-.2,5.466,5.466,0,0,1,.986.206,5.5,5.5,0,0,0,.952.195,5.98,5.98,0,0,0,1.146-.069,3.726,3.726,0,0,1,1.72.052,2.9,2.9,0,0,1,.464.224,2.471,2.471,0,0,0,.447.218,3.147,3.147,0,0,0,2.293-.441,4.42,4.42,0,0,1,2.236-.573,3.852,3.852,0,0,1,1.456.573,2.98,2.98,0,0,0,1.571.5,3.439,3.439,0,0,0,.768-.166h.075a17.277,17.277,0,0,1,6.432-.648h.115a4.35,4.35,0,0,0,.906,0,4.587,4.587,0,0,0,.545-.115l.4-.1a6.558,6.558,0,0,1,2.494.178l.47.092a15.54,15.54,0,0,0,6.443-.206.126.126,0,0,1,.057.241,15.811,15.811,0,0,1-6.541.206l-.482-.092a6.306,6.306,0,0,0-2.4-.172,1.774,1.774,0,0,0-.384.086,4.716,4.716,0,0,1-.573.126,4.853,4.853,0,0,1-.957,0h-.115a17.157,17.157,0,0,0-6.34.636h-.074a3.442,3.442,0,0,1-.82.178,3.25,3.25,0,0,1-1.72-.533,3.726,3.726,0,0,0-1.364-.522,4.19,4.19,0,0,0-2.1.573,3.322,3.322,0,0,1-2.459.453,2.956,2.956,0,0,1-.487-.235,3,3,0,0,0-.43-.212,3.531,3.531,0,0,0-1.594-.034,6.374,6.374,0,0,1-1.192.069,5.492,5.492,0,0,1-1-.206,5.482,5.482,0,0,0-.94-.195,4.947,4.947,0,0,0-1.565.195,21.74,21.74,0,0,0-2.9.952Z" transform="translate(-294.255 -122.271)" fill="#fff"/>
      <path id="Path_113" data-name="Path 113" d="M360.127,145.02a.126.126,0,0,1-.12-.1.12.12,0,0,1,.092-.149,18.636,18.636,0,0,1,3.439-.527,2.745,2.745,0,0,1,1.015.069,1.716,1.716,0,0,1,.218.086,1.53,1.53,0,0,0,.287.1,2.018,2.018,0,0,0,.665,0,18.148,18.148,0,0,1,3.1-.224.132.132,0,0,1,.12.126.12.12,0,0,1-.126.12,17.2,17.2,0,0,0-3.027.218,2.247,2.247,0,0,1-.78.029,1.891,1.891,0,0,1-.333-.115l-.195-.075a2.5,2.5,0,0,0-.929-.057,18.7,18.7,0,0,0-3.439.522Z" transform="translate(-294.252 -125.18)" fill="#fff"/>
      <path id="Path_114" data-name="Path 114" d="M383.666,144.635a.126.126,0,1,1,0-.246h2.11c4.924,0,9.911,0,14.829-.069h0a.126.126,0,0,1,.12.126.12.12,0,0,1-.12.12c-4.918.057-9.911.08-14.835.069h-2.1Z" transform="translate(-304.285 -125.22)" fill="#fff"/>
      <g id="Group_4" data-name="Group 4" transform="translate(53.574 29.235)" opacity="0.1">
        <path id="Path_115" data-name="Path 115" d="M380.772,183c0,1.376-.952,2.643-1.209,3.944s.126,2.866-.384,4.1-1.886,2.058-2.631,3.176-.974,2.688-1.932,3.64-2.517,1.146-3.64,1.926-1.915,2.109-3.17,2.631-2.763.12-4.1.384-2.562,1.21-3.938,1.21-2.637-.952-3.938-1.21-2.866.126-4.1-.384-2.058-1.886-3.17-2.631-2.688-.974-3.64-1.926-1.181-2.516-1.932-3.64-2.109-1.92-2.625-3.176-.126-2.763-.39-4.1-1.2-2.568-1.2-3.944.946-2.637,1.2-3.938-.12-2.866.39-4.1,1.88-2.058,2.625-3.176.98-2.688,1.932-3.64,2.516-1.175,3.64-1.932,1.92-2.1,3.17-2.625,2.763-.12,4.1-.384,2.562-1.2,3.938-1.2,2.643.952,3.938,1.21,2.866-.126,4.1.384,2.058,1.88,3.176,2.631,2.683.974,3.64,1.926,1.175,2.516,1.926,3.64,2.109,1.92,2.631,3.176.12,2.763.384,4.1S380.772,181.627,380.772,183Z" transform="translate(-338.76 -162)" fill="#fff"/>
      </g>
      <rect id="Rectangle_62" data-name="Rectangle 62" width="12.886" height="4.167" rx="1.93" transform="translate(11.436 75.151)" fill="#ffc100"/>
      <rect id="Rectangle_63" data-name="Rectangle 63" width="12.886" height="1.731" rx="0.866" transform="translate(11.436 73.419)" fill="#fff"/>
      <rect id="Rectangle_64" data-name="Rectangle 64" width="1.731" height="91.006" transform="translate(59.152 80.831)" fill="#263238"/>
      <rect id="Rectangle_65" data-name="Rectangle 65" width="6.73" height="3.199" rx="1.599" transform="translate(56.652 143.514)" fill="#263238"/>
      <path id="Path_116" data-name="Path 116" d="M318.831,390.88H317.1l17.994-26.73h1.731Z" transform="translate(-275.942 -219.037)" fill="#263238"/>
      <path id="Path_117" data-name="Path 117" d="M366.484,390.88h1.731l-17.994-26.73H348.49Z" transform="translate(-289.338 -219.037)" fill="#263238"/>
      <path id="Path_118" data-name="Path 118" d="M363.6,112.634H252.39a.82.82,0,0,1-.82-.82h0a.82.82,0,0,1,.82-.814H363.6a.814.814,0,0,1,.814.814h0a.814.814,0,0,1-.814.82Z" transform="translate(-247.976 -111)" fill="#e0e0e0"/>
      <path id="Path_119" data-name="Path 119" d="M365.335,249.37H245.3l2.8,3.032h114.44Z" transform="translate(-245.3 -170.052)" fill="#e0e0e0"/>
    </g>
    <g id="freepik--character-1--inject-1" transform="translate(52.612 145.978)">
      <rect id="Rectangle_66" data-name="Rectangle 66" width="55.024" height="1.347" transform="translate(29.366 55.71)" fill="#ffc100"/>
      <rect id="Rectangle_67" data-name="Rectangle 67" width="14.589" height="1.347" transform="translate(69.801 55.71)" fill="#263238"/>
      <path id="Path_120" data-name="Path 120" d="M142.485,383.167h-.831L138.18,347.6c-.287-2.952-2.213-5.159-4.465-5.159H126.87c-2.293,0-4.179,2.224-4.465,5.159l-3.474,35.569H118.1l3.485-35.729c.338-3.491,2.608-6.128,5.285-6.128h6.844c2.671,0,4.947,2.637,5.285,6.128Z" transform="translate(-80.56 -259.18)" fill="#263238"/>
      <path id="Path_121" data-name="Path 121" d="M97.315,383.167h-.843L93.033,347.6c-.287-2.952-2.207-5.159-4.465-5.159H81.7c-2.259,0-4.179,2.224-4.465,5.159l-3.474,35.569H72.93l3.48-35.729c.338-3.491,2.614-6.128,5.285-6.128h6.844c2.677,0,4.947,2.637,5.285,6.128Z" transform="translate(-61.283 -259.18)" fill="#263238"/>
      <path id="Path_122" data-name="Path 122" d="M108.953,213.938c.126.355.418.573.659.516s.327-.424.2-.785-.418-.573-.653-.516S108.81,213.577,108.953,213.938Z" transform="translate(-76.63 -204.482)" fill="#263238"/>
      <path id="Path_123" data-name="Path 123" d="M109.57,215a12.1,12.1,0,0,0,2.5,2.018,1.84,1.84,0,0,1-1.336.808Z" transform="translate(-76.92 -205.274)" fill="#ed893e"/>
      <path id="Path_124" data-name="Path 124" d="M106.109,211.112a.253.253,0,0,1-.115,0,.218.218,0,0,1-.178-.258,2.138,2.138,0,0,1,1.2-1.611.224.224,0,0,1,.166.413,1.72,1.72,0,0,0-.934,1.278.229.229,0,0,1-.143.178Z" transform="translate(-75.316 -202.814)" fill="#263238"/>
      <path id="Path_125" data-name="Path 125" d="M89.63,224.27l3.68,3.485,4.878,2.74a4.248,4.248,0,0,0-.04,1.794,2.866,2.866,0,0,0,2.012,2.643c.573.246,1.146.573,1.255,1.112.115.665-.373,1.49-3.1,1.886a14.412,14.412,0,0,1-7.7-1.083c-1.146-.47-.952-.986-.665-2.075A23.01,23.01,0,0,0,89.63,224.27Z" transform="translate(-68.41 -209.231)" fill="#ffb573"/>
      <path id="Path_126" data-name="Path 126" d="M87.07,241.364a31.683,31.683,0,0,0,1.393-4.477s7.452-.545,9.934.43,4.013,5.2,4.013,5.2Z" transform="translate(-67.318 -214.55)" fill="#263238"/>
      <path id="Path_127" data-name="Path 127" d="M87.823,214.278c1.76,4.2,2.574,6.747,5.5,8.157,4.4,2.121,8.983-1.783,8.507-6.443-.43-4.2-3.233-10.353-8.025-10.525a6.306,6.306,0,0,0-5.979,8.811Z" transform="translate(-67.417 -201.205)" fill="#ffb573"/>
      <path id="Path_128" data-name="Path 128" d="M93.333,210.889c1.657-1.892.5-5.159-.963-6.437,1.422-.052,5.1-.373,4.013-3.543s-4.878-3.543-5.979-1.978c-3.13-1.72-6.879-.229-5.979,2.161-3.68-.573-4.735,3.078-3.216,4.551-1.932,1.611-2.625,4.781-.1,5.979s2.58,4.185,5.159,5.732S94.76,216.266,93.333,210.889Z" transform="translate(-64.076 -198.034)" fill="#263238"/>
      <path id="Path_129" data-name="Path 129" d="M99.682,219.59a4.156,4.156,0,0,0,2.367,1.766c1.267.338,1.88-1.066,1.41-2.293-.424-1.078-1.72-2.293-2.923-2.115S99.005,218.518,99.682,219.59Z" transform="translate(-72.552 -206.098)" fill="#ffb573"/>
      <path id="Path_130" data-name="Path 130" d="M81.109,249.77l-3.726,7.452c-.625,1.244-1.232,2.482-1.823,3.726s-1.181,2.465-1.691,3.68c-.275.613-.5,1.2-.751,1.8l-.315.854-.04.109v.08h0v-.057a2.724,2.724,0,0,0,.075-.734,1.192,1.192,0,0,0-.1-.527c-.046-.08,0,.075.034.258a4.864,4.864,0,0,0,.281.671c.246.5.573,1.038.883,1.594,1.347,2.224,2.992,4.586,4.483,6.925l.04.057a2.23,2.23,0,0,1-3.1,3.067,36.989,36.989,0,0,1-3.617-2.637,36.419,36.419,0,0,1-3.359-3.073,19.634,19.634,0,0,1-1.611-1.869q-.43-.553-.8-1.146a7.842,7.842,0,0,1-.791-1.72,5.733,5.733,0,0,1-.269-1.576,4.855,4.855,0,0,1,.138-1.267l.092-.367.3-1.187c.229-.74.441-1.508.694-2.213.487-1.45,1.02-2.826,1.559-4.2s1.146-2.711,1.72-4.013c1.215-2.66,2.471-5.234,3.9-7.813a4.414,4.414,0,0,1,7.813,4.11Z" transform="translate(-57.859 -217.345)" fill="#ffb573"/>
      <path id="Path_131" data-name="Path 131" d="M80.984,241.567c4.8.172,6.988,3.766,3,10.163-3.439,5.5-3.892,5.612-3.892,5.612l-8.7-4.311C74.323,247.465,76.072,241.383,80.984,241.567Z" transform="translate(-60.63 -216.611)" fill="#ffc100"/>
      <g id="Group_5" data-name="Group 5" transform="translate(10.77 24.952)" opacity="0.3">
        <path id="Path_132" data-name="Path 132" d="M80.984,241.567c4.8.172,6.988,3.766,3,10.163-3.439,5.5-3.892,5.612-3.892,5.612l-8.7-4.311C74.323,247.465,76.072,241.383,80.984,241.567Z" transform="translate(-71.4 -241.563)"/>
      </g>
      <path id="Path_133" data-name="Path 133" d="M87.675,300.081l-.487-.545c-1.5-1.393-2.144-1.221-3.864-1.221l-2.1,1.576c1.273,3.5,3.846,3.342,3.846,3.342l.745.694A1.347,1.347,0,0,0,88,303.388l.218-.619a2.706,2.706,0,0,0-.539-2.688Z" transform="translate(-64.821 -240.828)" fill="#ffb573"/>
      <path id="Path_134" data-name="Path 134" d="M177.194,383.044l4.11-2.31L176.93,370.72l-4.11,2.3Z" transform="translate(-103.913 -271.731)" fill="#ffb573"/>
      <path id="Path_135" data-name="Path 135" d="M174.941,377.88l4.173-2.155-2.184-5-4.11,2.3Z" transform="translate(-103.913 -271.731)" opacity="0.2"/>
      <path id="Path_136" data-name="Path 136" d="M182.52,384.519l-5.274.373a.344.344,0,0,0-.327.35l.04,4.185a.843.843,0,0,0,.883.78c1.829-.161,2.574-.619,4.872-.946a61.148,61.148,0,0,0,6.724-.929c1.909-.527,1.594-2.293.034-2.213a11.63,11.63,0,0,1-6.128-1.364A1.33,1.33,0,0,0,182.52,384.519Z" transform="translate(-105.663 -277.619)" fill="#263238"/>
      <path id="Path_137" data-name="Path 137" d="M111.344,307.957s24.007-1.433,26.036,7.876c4.127,18.917,8.111,29.424,8.111,29.424l-6.351,3.279s-9.355-13.1-12.112-26.529c-9.779-1.467-26.873,3.709-30.954-3.634-3.611-6.478-.441-11.132-.441-11.132Z" transform="translate(-70.422 -244.64)" fill="#263238"/>
      <path id="Path_138" data-name="Path 138" d="M171.535,377.335l7.395-3.583-.831-3.032-8.128,3.818Z" transform="translate(-102.697 -271.731)" fill="#ffc100"/>
      <path id="Path_139" data-name="Path 139" d="M188.68,384.833a6.193,6.193,0,0,1-1.261-.08.109.109,0,0,1-.052-.195c.143-.115,1.4-1.118,1.995-.934a.419.419,0,0,1,.275.292.619.619,0,0,1-.092.608A1.318,1.318,0,0,1,188.68,384.833Zm-.974-.264c.854.109,1.467.04,1.674-.195a.4.4,0,0,0,.052-.4.218.218,0,0,0-.132-.143c-.321-.1-1.072.35-1.588.734Z" transform="translate(-110.103 -277.228)" fill="#ffc100"/>
      <path id="Path_140" data-name="Path 140" d="M187.407,384a.086.086,0,0,1-.052,0,.1.1,0,0,1-.063-.08c0-.057-.212-1.4.229-1.892a.573.573,0,0,1,.453-.183.43.43,0,0,1,.424.3c.143.5-.487,1.531-.934,1.846A.1.1,0,0,1,187.407,384Zm.51-1.949a.326.326,0,0,0-.229.115,2.469,2.469,0,0,0-.206,1.513,2.236,2.236,0,0,0,.705-1.485c0-.063-.057-.132-.218-.143Z" transform="translate(-110.068 -276.48)" fill="#ffc100"/>
      <path id="Path_141" data-name="Path 141" d="M133.19,398.831l4.666-.224.762-11.017-4.666.224Z" transform="translate(-87 -278.931)" fill="#ffb573"/>
      <path id="Path_142" data-name="Path 142" d="M137.664,404.106l-5.279-.166a.344.344,0,0,0-.361.31l-.384,4.167a.831.831,0,0,0,.8.866c1.84,0,2.614-.206,4.936-.132,1.427.046,4.013.275,6.42.275s1.439-1.949.155-2.132a12.553,12.553,0,0,1-5.48-2.866,1.307,1.307,0,0,0-.8-.321Z" transform="translate(-86.338 -285.908)" fill="#263238"/>
      <path id="Path_143" data-name="Path 143" d="M144.009,404.877a6.381,6.381,0,0,1-1.25-.206.11.11,0,0,1-.029-.2c.149-.1,1.513-.969,2.075-.722a.413.413,0,0,1,.246.315.573.573,0,0,1-.155.573,1.25,1.25,0,0,1-.888.241Zm-.946-.355c.837.189,1.456.183,1.685-.029a.4.4,0,0,0,.092-.384.2.2,0,0,0-.12-.161c-.292-.132-1.083.241-1.645.573Z" transform="translate(-91.049 -285.807)" fill="#ffc100"/>
      <path id="Path_144" data-name="Path 144" d="M142.8,403.831h-.046a.1.1,0,0,1-.057-.092c0-.057-.069-1.41.424-1.857a.573.573,0,0,1,.47-.138.424.424,0,0,1,.384.344c.092.516-.642,1.479-1.146,1.72a.093.093,0,0,1-.029.023Zm.705-1.886a.344.344,0,0,0-.241.092,2.43,2.43,0,0,0-.355,1.485c.418-.332.911-1.066.848-1.4,0-.063-.04-.143-.2-.166Z" transform="translate(-91.056 -284.968)" fill="#ffc100"/>
      <path id="Path_145" data-name="Path 145" d="M134.2,387.824l4.666-.224-.441,6.3-4.649-.006Z" transform="translate(-87.252 -278.935)" opacity="0.2"/>
      <path id="Path_146" data-name="Path 146" d="M93.369,307.155s29.143,5.428,28.576,13.614c-1.015,14.738-5.956,35.8-5.956,35.8l-7,.1s-.957-21.9-.092-32.565c-8.742,0-25.944-.3-29.309-4.8-3.72-4.964.1-12.766.1-12.766Z" transform="translate(-63.43 -244.337)" fill="#263238"/>
      <path id="Path_147" data-name="Path 147" d="M130.787,393.968l8.833-.126.418-2.872-9.619.281Z" transform="translate(-85.818 -280.373)" fill="#ffc100"/>
      <path id="Path_148" data-name="Path 148" d="M100.032,241.826c-2.866-.573-15.775-.4-15.775-.4A5.159,5.159,0,0,0,79,246.016c-.453,3.978.883,12.789.974,17.329.109,5.572.229,7.922.12,15.42l30.054,1.576c1.146-13.666-3.308-20.258-5.962-33.855C103.793,244.406,102.893,242.382,100.032,241.826Z" transform="translate(-63.834 -216.543)" fill="#ffc100"/>
      <path id="Path_149" data-name="Path 149" d="M100.032,241.826c-2.866-.573-15.775-.4-15.775-.4A5.159,5.159,0,0,0,79,246.016c-.453,3.978.883,12.789.974,17.329.109,5.572.229,7.922.12,15.42l30.054,1.576c1.146-13.666-3.308-20.258-5.962-33.855C103.793,244.406,102.893,242.382,100.032,241.826Z" transform="translate(-63.834 -216.543)" opacity="0.3"/>
      <path id="Path_150" data-name="Path 150" d="M115.96,248.107c1.353,2.408,2.746,4.936,4.15,7.349.694,1.221,1.41,2.419,2.132,3.588s1.467,2.293,2.213,3.382l.573.774c.189.264.373.47.573.705l.138.178.069.086h0l-.046-.046-.1-.075h0s-.029,0,0,.034a5.062,5.062,0,0,0,.539.39c.98.636,2.253,1.284,3.485,1.938,2.5,1.3,5.113,2.591,7.647,4.013h.034a2.224,2.224,0,0,1-1.422,4.162,60.472,60.472,0,0,1-8.822-1.72,35.8,35.8,0,0,1-4.517-1.519,11.8,11.8,0,0,1-1.359-.694c-.115-.063-.281-.178-.43-.281l-.235-.172-.3-.258-.149-.132-.1-.1-.115-.115-.229-.229c-.292-.3-.625-.619-.889-.923l-.82-.917a69.533,69.533,0,0,1-5.406-7.492c-1.605-2.562-3.084-5.1-4.448-7.836a4.414,4.414,0,0,1,7.79-4.144Z" transform="translate(-76.104 -218.428)" fill="#ffb573"/>
      <path id="Path_151" data-name="Path 151" d="M107.471,245c2.585-4.047,6.793-4.1,10.284,2.574,3,5.732,2.866,6.2,2.866,6.2l-8.123,5.314C109.174,253.744,104.823,249.147,107.471,245Z" transform="translate(-75.675 -216.887)" fill="#ffc100"/>
      <g id="Group_6" data-name="Group 6" transform="translate(30.979 25.324)" opacity="0.3">
        <path id="Path_152" data-name="Path 152" d="M107.471,245c2.585-4.047,6.793-4.1,10.284,2.574,3,5.732,2.866,6.2,2.866,6.2l-8.123,5.314C109.174,253.744,104.823,249.147,107.471,245Z" transform="translate(-106.654 -242.211)"/>
      </g>
      <path id="Path_153" data-name="Path 153" d="M159.272,288.014l-.711-.132c-2.046-.189-2.442.344-3.806,1.393l-.705,2.534c3.147,1.989,5.09.292,5.09.292l1.015.1a1.341,1.341,0,0,0,1.393-1.76l-.206-.625a2.689,2.689,0,0,0-2.069-1.8Z" transform="translate(-95.903 -236.362)" fill="#ffb573"/>
      <path id="Path_154" data-name="Path 154" d="M52.938,295.382a20.952,20.952,0,0,1,.407-9.172l.573.155a20.355,20.355,0,0,0-.39,8.914Z" transform="translate(-52.612 -235.665)" fill="#ffc100"/>
      <rect id="Rectangle_68" data-name="Rectangle 68" width="0.573" height="3.256" transform="matrix(0.986, -0.168, 0.168, 0.986, 0.735, 62.056)" fill="#ffc100"/>
      <path id="Path_155" data-name="Path 155" d="M113.714,308.206,100.9,307.7l-3.359-19.748C95.818,277.773,87,269.53,77.87,269.53H69.8c-9.132,0-15.128,8.243-13.4,18.418L58.7,301.579c.854,5.044,5.222,9.137,9.745,9.137H119.2a.516.516,0,0,0,.195-.957A13.792,13.792,0,0,0,113.714,308.206Z" transform="translate(-54.105 -228.546)" fill="#ffc100"/>
      <path id="Path_156" data-name="Path 156" d="M158.84,321.731h-4.07v-1.049h4.07c10.232,0,18.561-9.3,18.561-20.74V296.4h1.049v3.543C178.45,311.957,169.651,321.731,158.84,321.731Z" transform="translate(-96.21 -240.013)" fill="#263238"/>
    </g>
    <g id="freepik--character-2--inject-1" transform="translate(116.418 149.645)">
      <rect id="Rectangle_69" data-name="Rectangle 69" width="55.024" height="1.347" transform="translate(27.36 52.043)" fill="#ffc100"/>
      <rect id="Rectangle_70" data-name="Rectangle 70" width="18.424" height="0.676" transform="translate(45.657 51.372)" fill="#e0e0e0"/>
      <rect id="Rectangle_71" data-name="Rectangle 71" width="14.589" height="1.347" transform="translate(67.796 52.043)" fill="#263238"/>
      <path id="Path_157" data-name="Path 157" d="M250.291,383.167h-.831L245.992,347.6c-.292-2.952-2.213-5.159-4.465-5.159h-6.879c-2.259,0-4.173,2.224-4.465,5.159l-3.439,35.569H225.9l3.5-35.729c.338-3.491,2.608-6.128,5.279-6.128h6.879c2.671,0,4.941,2.637,5.285,6.128Z" transform="translate(-190.372 -262.847)" fill="#263238"/>
      <path id="Path_158" data-name="Path 158" d="M205.108,383.167h-.831L200.8,347.6c-.287-2.952-2.207-5.159-4.465-5.159H189.47c-2.259,0-4.179,2.224-4.465,5.159l-3.474,35.569H180.7l3.508-35.729c.338-3.491,2.608-6.128,5.285-6.128h6.856c2.671,0,4.947,2.637,5.285,6.128Z" transform="translate(-171.082 -262.847)" fill="#263238"/>
      <path id="Path_159" data-name="Path 159" d="M198.084,270.148l-1.106,8.134c-.35,2.711-.711,5.423-.974,8.088l-.086.992-.04.5a1.363,1.363,0,0,0,0-.246,1.492,1.492,0,0,0-.057-.229,1.147,1.147,0,0,0-.138-.281c-.086-.109-.1-.092-.075-.069a.816.816,0,0,0,.166.138,4.449,4.449,0,0,0,.642.372,25.385,25.385,0,0,0,3.56,1.324c2.545.791,5.216,1.433,7.853,2.092l-.3,2.293a59.69,59.69,0,0,1-8.409-.871,24.177,24.177,0,0,1-4.322-1.146,8.829,8.829,0,0,1-1.2-.573,5.039,5.039,0,0,1-.676-.459,3.783,3.783,0,0,1-.78-.826,3.341,3.341,0,0,1-.367-.745,3.949,3.949,0,0,1-.115-.481,4.008,4.008,0,0,1,0-.5v-1.611c.115-2.832.373-5.6.671-8.363s.648-5.509,1.083-8.26Z" transform="translate(-175.757 -232.167)" fill="#ffc3bd"/>
      <path id="Path_160" data-name="Path 160" d="M224.094,309.1l-1.783,1.628a1.37,1.37,0,0,1-1.525.224l-1.966-.946s-2.912-.12-3.33-1.9l.757-1.381,4.511-.5a2.144,2.144,0,0,1,1.336.3l1.857,1.146a.911.911,0,0,1,.143,1.439Z" transform="translate(-185.929 -247.867)" fill="#ffc3bd"/>
      <path id="Path_161" data-name="Path 161" d="M211.066,241.53c.459,2.792.848,7.893-1.146,9.682a26.087,26.087,0,0,1,8.071,7c3.439-2.706.573-6.747.573-6.747-3.073-.831-2.923-3.124-2.322-5.262Z" transform="translate(-183.552 -220.264)" fill="#ffc3bd"/>
      <path id="Path_162" data-name="Path 162" d="M197.317,259.607c-3.514,1.146-4.271,5.853-3.955,9.516l7.091,4.362s1.72-5.348,1.72-8.209C202.144,262.232,199.7,258.833,197.317,259.607Z" transform="translate(-176.457 -227.931)" fill="#263238"/>
      <path id="Path_163" data-name="Path 163" d="M221.1,265.946a204.017,204.017,0,0,1-3.4,22.264l-18.985-.573c.5-7.011-.252-12.233-1.972-24.5a4.013,4.013,0,0,1,3.548-4.517c1.215-.126,2.6-.229,4.013-.258a60.894,60.894,0,0,1,8.6.258c.929.115,1.88.258,2.792.413A6.518,6.518,0,0,1,221.1,265.946Z" transform="translate(-177.91 -227.426)" fill="#263238"/>
      <path id="Path_164" data-name="Path 164" d="M227.18,231.109c.115.361.4.573.636.516s.332-.43.218-.785-.4-.573-.636-.516S227.054,230.753,227.18,231.109Z" transform="translate(-190.895 -215.477)" fill="#263238"/>
      <path id="Path_165" data-name="Path 165" d="M227.43,230.027l.78-.527S227.986,230.32,227.43,230.027Z" transform="translate(-191.025 -215.13)" fill="#263238"/>
      <path id="Path_166" data-name="Path 166" d="M227.64,232.65a9.98,9.98,0,0,0,2.018,1.88,1.622,1.622,0,0,1-1.2.653Z" transform="translate(-191.114 -216.474)" fill="#ed847e"/>
      <path id="Path_167" data-name="Path 167" d="M225.274,225.832a.218.218,0,0,0,0-.218.224.224,0,0,0-.31-.046,2.19,2.19,0,0,0-.934,1.794.212.212,0,0,0,.229.206.218.218,0,0,0,.212-.229h0a1.72,1.72,0,0,1,.757-1.41A.189.189,0,0,0,225.274,225.832Z" transform="translate(-189.574 -213.434)" fill="#263238"/>
      <path id="Path_168" data-name="Path 168" d="M204.714,229.383c1.72,4.322,2.293,6.185,5.274,7.733,4.448,2.327,9.384-.7,9.017-5.44-.327-4.265-3.038-10.616-7.922-10.983a6.306,6.306,0,0,0-6.369,8.69Z" transform="translate(-181.126 -211.361)" fill="#ffc3bd"/>
      <path id="Path_169" data-name="Path 169" d="M211.469,226.585c.837-.241,2.293-1.909-.247-5.268,1.359-.247,2.465-2.74-1.261-4.167s-7.79-.734-10.255,2.683c0,0-7.859,2.322-1.456,10.41S212.781,235.034,211.469,226.585Z" transform="translate(-177.499 -209.561)" fill="#263238"/>
      <path id="Path_170" data-name="Path 170" d="M197.58,219.186a1.353,1.353,0,0,0,.625,1.146,2.241,2.241,0,0,0,2.671.161,12.5,12.5,0,0,0,2.367-2.023,2.293,2.293,0,0,0-.172-3.279,2.828,2.828,0,0,0-.332-.241S198.239,215.082,197.58,219.186Z" transform="translate(-178.285 -208.92)" fill="#ffc100"/>
      <path id="Path_171" data-name="Path 171" d="M189.582,214.158a5.371,5.371,0,0,0,4.093-3.084c-.573-1.513-8.025-11.132-14.377-4.1-6.707,7.452,6.42,14.944,1.72,23.915C189.186,228.145,195.847,222.493,189.582,214.158Z" transform="translate(-169.651 -204.431)" fill="#263238"/>
      <path id="Path_172" data-name="Path 172" d="M219.771,233.858a3.64,3.64,0,0,0,2.115,1.811c1.215.384,1.869-.694,1.565-1.863-.269-1.055-1.227-2.528-2.465-2.4a1.634,1.634,0,0,0-1.215,2.453Z" transform="translate(-187.659 -215.939)" fill="#ffc3bd"/>
      <path id="Path_173" data-name="Path 173" d="M271.281,393.085l4.483-.424-3.021-11.04-4.483.424Z" transform="translate(-208.449 -280.05)" fill="#ffc3bd"/>
      <path id="Path_174" data-name="Path 174" d="M283.063,402.433c-2.74-.808-2.654-2.012-5.388-4.236a1.783,1.783,0,0,0-.98-.447l-4.46-.31a.361.361,0,0,0-.355.31l-.631,3.09a1.685,1.685,0,0,0,1.37,2.132c1.485.057,3.307.115,4.93.224,2.367.166,2.4,1.364,5.159,1.232C284.41,404.347,284,402.708,283.063,402.433Z" transform="translate(-209.707 -286.801)" fill="#263238"/>
      <path id="Path_175" data-name="Path 175" d="M298.277,369.128l3.038-2.637-5.085-7.721-3.8,3.6Z" transform="translate(-218.764 -270.298)" fill="#ffc3bd"/>
      <path id="Path_176" data-name="Path 176" d="M303.718,367.049,300.1,370.4a.407.407,0,0,0-.063.516l1.72,2.66a1.794,1.794,0,0,0,2.671.287c1.187-.917,1.857-2.528,3.262-3.846,2.046-1.915,2.413-1.863,3.68-4.54.86-1.8-1.015-1.806-1.674-1.25-1.657,1.41-1,1.467-4.861,2.293A2.293,2.293,0,0,0,303.718,367.049Z" transform="translate(-221.981 -272.489)" fill="#263238"/>
      <path id="Path_177" data-name="Path 177" d="M211.752,308.927s30.737-4.551,33.918,3.33c5.537,13.706,13.551,29.149,13.551,29.149l-3.611,3.313s-13.758-12.33-18.527-26.1c-5.692,1.846-23.812,7.773-30.45,7.773-7.085,0-9.98-6.042-7.418-16.05a2.012,2.012,0,0,1,1.966-1.513C205.641,308.823,211.752,308.927,211.752,308.927Z" transform="translate(-178.591 -248.469)" fill="#ffc100"/>
      <path id="Path_178" data-name="Path 178" d="M211.752,308.927s30.737-4.551,33.918,3.33c5.537,13.706,13.551,29.149,13.551,29.149l-3.611,3.313s-13.758-12.33-18.527-26.1c-5.692,1.846-23.812,7.773-30.45,7.773-7.085,0-9.98-6.042-7.418-16.05a2.012,2.012,0,0,1,1.966-1.513C205.641,308.823,211.752,308.927,211.752,308.927Z" transform="translate(-178.591 -248.469)" fill="#fff" opacity="0.5"/>
      <path id="Path_179" data-name="Path 179" d="M216.5,313.709s25.222-.762,25.44,8.174c.35,14.784,4.884,35.924,4.884,35.924l-4.97.464s-7.532-16.847-9.51-31.31c-8.988.573-17.271.183-23.909.183-7.452,0-8.025-8.169-.808-17.7C212.052,309.473,216.5,313.709,216.5,313.709Z" transform="translate(-180.393 -249.25)" fill="#ffc100"/>
      <path id="Path_180" data-name="Path 180" d="M216.5,313.709s25.222-.762,25.44,8.174c.35,14.784,4.884,35.924,4.884,35.924l-4.97.464s-7.532-16.847-9.51-31.31c-8.988.573-17.271.183-23.909.183-7.452,0-8.025-8.169-.808-17.7C212.052,309.473,216.5,313.709,216.5,313.709Z" transform="translate(-180.393 -249.25)" fill="#fff" opacity="0.5"/>
      <path id="Path_181" data-name="Path 181" d="M199.356,307.406l-.539,1.685c-.069.132.08.269.3.275l19.536.573c.172,0,.315-.075.332-.178l.218-1.72c0-.115-.126-.224-.315-.229l-19.226-.573A.327.327,0,0,0,199.356,307.406Z" transform="translate(-178.806 -248.306)" fill="#fff"/>
      <path id="Path_182" data-name="Path 182" d="M203.648,309.6h-.516c-.1,0-.178-.057-.172-.126l.31-2.2c0-.063.1-.115.2-.109h.516c.1,0,.178.057.172.12l-.31,2.2C203.843,309.55,203.751,309.6,203.648,309.6Z" transform="translate(-180.581 -248.272)" fill="#263238"/>
      <path id="Path_183" data-name="Path 183" d="M230.4,310.4h-.516c-.1,0-.178-.057-.172-.12l.31-2.2c0-.063.1-.115.2-.115h.516c.1,0,.178.057.172.126l-.31,2.2C230.593,310.35,230.5,310.4,230.4,310.4Z" transform="translate(-191.997 -248.614)" fill="#263238"/>
      <path id="Path_184" data-name="Path 184" d="M217.021,310h-.51c-.1,0-.183-.057-.172-.12l.3-2.2c0-.063.1-.115.206-.109h.516c.1,0,.178.063.166.126l-.3,2.2C217.216,309.954,217.125,310.006,217.021,310Z" transform="translate(-186.291 -248.447)" fill="#263238"/>
      <path id="Path_185" data-name="Path 185" d="M237.055,275.43c.075.407.183.934.281,1.4s.218.975.344,1.456q.37,1.444.831,2.866a28.743,28.743,0,0,0,1.072,2.7,16.47,16.47,0,0,0,1.37,2.4l.092.143-.034-.046a.494.494,0,0,0-.08-.074,1.067,1.067,0,0,0-.155-.126,1.083,1.083,0,0,0-.476-.195h.057a4.859,4.859,0,0,0,1.146-.264,26.145,26.145,0,0,0,2.729-1.118c1.852-.866,3.737-1.84,5.589-2.809l1.347,1.9a44.046,44.046,0,0,1-5.2,4.013,23.724,23.724,0,0,1-3,1.691,9.026,9.026,0,0,1-1.92.659,4.156,4.156,0,0,1-1.531.046,3.026,3.026,0,0,1-1.21-.493,2.589,2.589,0,0,1-.31-.252l-.143-.149-.109-.115-.143-.183a21.261,21.261,0,0,1-3.479-6.156,31.917,31.917,0,0,1-1.038-3.25c-.143-.573-.269-1.1-.39-1.657s-.212-1.089-.3-1.72Z" transform="translate(-193.146 -234.731)" fill="#ffc3bd"/>
      <path id="Path_186" data-name="Path 186" d="M232.33,263.147c3.325,2.562,3.325,10.095,3.325,10.095l-5.732,1.588s-4.122-4.993-3.078-7.36C227.939,265,230.536,261.777,232.33,263.147Z" transform="translate(-190.702 -229.35)" fill="#263238"/>
      <path id="Path_187" data-name="Path 187" d="M267.758,279.384a.293.293,0,0,1-.247-.149l-4.534-8.684a.275.275,0,0,1,.12-.373.281.281,0,0,1,.373.115l4.54,8.684a.275.275,0,0,1-.12.373A.264.264,0,0,1,267.758,279.384Z" transform="translate(-206.182 -232.477)" fill="#263238"/>
      <path id="Path_188" data-name="Path 188" d="M264.27,277.528l-1.72,1.055a2.293,2.293,0,0,0-.946,1.146L260,283.914l-.739,2.66c1.72.619,4.838-3.439,4.838-3.439l1.96-1.473a.98.98,0,0,0,.355-1.038l-.671-2.5a.98.98,0,0,0-1.473-.6Z" transform="translate(-204.609 -235.563)" fill="#ffc3bd"/>
      <path id="Path_189" data-name="Path 189" d="M221.524,308.193l-12.846-.527-3.359-19.748c-1.72-10.175-10.53-18.418-19.662-18.418h-8.042c-9.132,0-15.128,8.243-13.4,18.418l2.293,13.631c.86,5.044,5.228,9.137,9.745,9.137h50.765a.516.516,0,0,0,.189-.957A13.757,13.757,0,0,0,221.524,308.193Z" transform="translate(-163.921 -232.201)" fill="#ffc100"/>
      <path id="Path_190" data-name="Path 190" d="M266.65,321.731h-4.07v-1.049h4.07c10.232,0,18.561-9.3,18.561-20.74V296.4h1.043v3.543C286.254,311.957,277.461,321.731,266.65,321.731Z" transform="translate(-206.025 -243.681)" fill="#263238"/>
    </g>
    <g id="freepik--character-3--inject-1" transform="translate(201.055 120.527)">
      <path id="Path_191" data-name="Path 191" d="M380.32,392.8l7.343-1.559,1.382,8.77-6.134,1.313Z" transform="translate(-340.911 -255.037)" fill="#b55b52"/>
      <path id="Path_192" data-name="Path 192" d="M380.32,392.8l7.349-1.559.774,4.913-6.672,1.422Z" transform="translate(-340.911 -255.037)" opacity="0.2"/>
      <path id="Path_193" data-name="Path 193" d="M374.42,310.227c2.442-11.373,7.492-23.245,2.717-34.079l-20.957-.069s1.6,24.907,2.333,35.4c.768,10.891,11.82,35.638,11.82,35.638l8.4-1.846S376.341,322.409,374.42,310.227Z" transform="translate(-330.608 -205.891)" fill="#263238"/>
      <path id="Path_194" data-name="Path 194" d="M386.964,317.223c1.5-6.581,3.737-13.316,4.322-19.9C383.341,288.659,384.344,306.331,386.964,317.223Z" transform="translate(-342.934 -213.97)" opacity="0.2"/>
      <path id="Path_195" data-name="Path 195" d="M388.161,407.963l-1.932.43-.573-.573-.705.843-3.56,1.542a10.37,10.37,0,0,1-4.133.86h-2.923a4.466,4.466,0,0,1,.47-2.259,6.9,6.9,0,0,0,4.276-2.837.969.969,0,0,1,.831-.367c1.347-.034,4.89-.235,6.655-1.393a.31.31,0,0,1,.459.195A23.378,23.378,0,0,0,388.161,407.963Z" transform="translate(-338.353 -260.553)" fill="#263238"/>
      <path id="Path_196" data-name="Path 196" d="M410,395.85l7.515.075.327,8.862-6.277-.052Z" transform="translate(-353.577 -257.005)" fill="#b55b52"/>
      <path id="Path_197" data-name="Path 197" d="M410,395.86l7.521.069.183,4.964-6.827-.057Z" transform="translate(-353.577 -257.009)" opacity="0.2"/>
      <path id="Path_198" data-name="Path 198" d="M405.064,310.227c.608-11.373,1.433-28.392-2.379-33.62l-23.4-.527s6.506,24.907,8.937,35.4c2.522,10.891,8.713,36.687,8.713,36.687h8.123S408.119,323.211,405.064,310.227Z" transform="translate(-340.467 -205.891)" fill="#263238"/>
      <path id="Path_199" data-name="Path 199" d="M351.018,208.12l-.35.31-.264.224-.51.407c-.332.252-.665.487-1,.717a20.973,20.973,0,0,1-2.052,1.238,24.252,24.252,0,0,1-4.4,1.829,21.63,21.63,0,0,1-2.333.573c-.785.149-1.588.264-2.39.344a22.689,22.689,0,0,1-4.832-.063l-.608-.075a3.663,3.663,0,0,1-1.571-.573,15.6,15.6,0,0,1-3.491-3.164,22.6,22.6,0,0,1-2.293-3.393A27.738,27.738,0,0,1,323.3,203c-.224-.573-.418-1.192-.608-1.794s-.321-1.192-.476-1.892a2.763,2.763,0,0,1,4.637-2.574l.287.287c.332.332.722.774,1.083,1.146s.739.791,1.1,1.181c.739.774,1.462,1.525,2.2,2.2a20.377,20.377,0,0,0,2.173,1.874,8.109,8.109,0,0,0,1.886,1.066l-2.173-.636a18.225,18.225,0,0,0,2.809-.413,19.894,19.894,0,0,0,2.717-.854,23.6,23.6,0,0,0,2.6-1.255c.424-.235.831-.493,1.227-.739.2-.126.39-.258.573-.378l.258-.178.1-.075h.006a5.483,5.483,0,1,1,7.3,8.18Z" transform="translate(-316.086 -171.688)" fill="#b65b52"/>
      <path id="Path_200" data-name="Path 200" d="M319.211,197.574l2.184-2.293c1.29-3.061-2.935-4.041-2.935-4.041l-2.631-1.92a1.685,1.685,0,0,0-2.144.338l-1.536,1.594a1.72,1.72,0,0,0-.143,2.431l2.2,2a3.439,3.439,0,0,0,1.456.854Z" transform="translate(-311.57 -168.76)" fill="#b55b52"/>
      <path id="Path_201" data-name="Path 201" d="M367.343,195.322c-5.079-.3-12.519,5.543-12.519,5.543-.705,1.943,1.032,9.172,4.139,12.324,0,0,3.566.848,6.684-2.912C369.04,206.179,372.726,195.631,367.343,195.322Z" transform="translate(-329.963 -171.421)" fill="#ffc100"/>
      <path id="Path_202" data-name="Path 202" d="M368.208,194.685a94.8,94.8,0,0,1,20.883.332,7.039,7.039,0,0,1,5.864,8.392c-3.244,16.349-.82,34.6-2.918,38.257,0,0-23.164.4-36.687-.527-3.7-17.77,3.577-28.61,7.228-42.471C363.227,196.325,365.772,194.966,368.208,194.685Z" transform="translate(-329.819 -170.974)" fill="#ffc100"/>
      <path id="Path_203" data-name="Path 203" d="M420.811,205.143l.516.648.459.573c.292.39.573.791.848,1.187.573.791,1.078,1.611,1.582,2.436a41.487,41.487,0,0,1,2.694,5.251,30.154,30.154,0,0,1,1.892,5.956,19.629,19.629,0,0,1,.246,7l-.069.47a3.233,3.233,0,0,1-.384,1.095A30.141,30.141,0,0,1,426.3,233.2a35.354,35.354,0,0,1-2.585,2.992c-.911.929-1.846,1.811-2.832,2.643a30.932,30.932,0,0,1-3.136,2.333,2.78,2.78,0,0,1-4.013-3.571l.126-.224c.493-.986,1.089-2.035,1.622-3.044s1.083-2.018,1.588-3.021.98-1.995,1.444-2.958.82-1.938,1.175-2.866l-.453,1.559a12.038,12.038,0,0,0-.573-3.388,19.777,19.777,0,0,0-.705-1.926c-.264-.653-.573-1.318-.9-1.983-.671-1.324-1.422-2.666-2.247-3.978-.4-.665-.843-1.313-1.267-1.96l-.654-.957-.6-.854-.2-.287a5.474,5.474,0,1,1,8.754-6.575Z" transform="translate(-354.002 -174.679)" fill="#b65b52"/>
      <path id="Path_204" data-name="Path 204" d="M414.909,196.5c4.792,1.72,9.309,9.825,9.309,9.825-.2,2.952-4.9,9.636-8.226,11.1a16.412,16.412,0,0,1-4.964-7.5C409.5,204.812,412.444,197.234,414.909,196.5Z" transform="translate(-353.837 -171.928)" fill="#ffc100"/>
      <path id="Path_205" data-name="Path 205" d="M383.86,191.174a4.431,4.431,0,0,1,2.1-1.989,4.1,4.1,0,0,0,.075-2.751l10.272-3.273c-.831,3.4-1.485,6.088-.218,7.739-2.023,1.238-5.732,3.439-9.745,3.336S383.2,192.6,383.86,191.174Z" transform="translate(-342.18 -166.235)" fill="#b55b52"/>
      <path id="Path_206" data-name="Path 206" d="M388.2,189.093l7.721-.453c-2.413,2.58-6.071,3.548-7.744,2.5A4.012,4.012,0,0,0,388.2,189.093Z" transform="translate(-344.265 -168.574)" opacity="0.2"/>
      <path id="Path_207" data-name="Path 207" d="M388.18,201.41l1.674-1.41,2.241,1.146A3.594,3.594,0,0,1,388.18,201.41Z" transform="translate(-344.265 -173.422)" fill="#ffc100"/>
      <path id="Path_208" data-name="Path 208" d="M388.18,201.41l1.674-1.41,2.241,1.146A3.594,3.594,0,0,1,388.18,201.41Z" transform="translate(-344.265 -173.422)" opacity="0.3"/>
      <path id="Path_209" data-name="Path 209" d="M392.134,161.908c-.126-3.159-3.176-4.586-5.818-2.941s-2.866,6.73-.923,9.384S392.134,161.908,392.134,161.908Z" transform="translate(-342.527 -155.616)" fill="#f5f5f5"/>
      <path id="Path_210" data-name="Path 210" d="M398.518,168.243c-1.227,4.425-2.167,7.406-5.36,8.834-6.357,2.826-9.172-.172-9.418-4.85-.2-4.208,1.84-10.737,6.942-11.688S399.745,163.812,398.518,168.243Z" transform="translate(-342.364 -156.524)" fill="#b55b52"/>
      <path id="Path_211" data-name="Path 211" d="M402.484,169.494c-1.37,1.3-1.915,7.056.155,6.959a29.972,29.972,0,0,0,4.2-.539s2.631-1,1.192-4.941S402.484,169.494,402.484,169.494Z" transform="translate(-349.85 -160.078)" fill="#e0e0e0"/>
      <path id="Path_212" data-name="Path 212" d="M397,173.086a2.293,2.293,0,0,1,1.72.235,4.546,4.546,0,0,1-1.72-.235Z" transform="translate(-348.029 -161.905)" opacity="0.2"/>
      <path id="Path_213" data-name="Path 213" d="M396.9,173.858a1.88,1.88,0,0,1,1.456.573A3.669,3.669,0,0,1,396.9,173.858Z" transform="translate(-347.986 -162.264)" opacity="0.2"/>
      <path id="Path_214" data-name="Path 214" d="M390.2,165a20.687,20.687,0,0,1,4.322.436C392.109,165.264,390.2,165,390.2,165Z" transform="translate(-345.127 -158.485)" opacity="0.2"/>
      <path id="Path_215" data-name="Path 215" d="M389,165.66a21.2,21.2,0,0,1,4.832,1.072A38.445,38.445,0,0,1,389,165.66Z" transform="translate(-344.615 -158.767)" opacity="0.2"/>
      <path id="Path_216" data-name="Path 216" d="M407.452,180.435a4.666,4.666,0,0,1-3.25,1.485c-1.645.04-2.081-1.531-1.3-2.866.705-1.21,2.408-2.688,3.9-2.087a2.115,2.115,0,0,1,.654,3.468Z" transform="translate(-350.387 -163.533)" fill="#b55b52"/>
      <ellipse id="Ellipse_5" data-name="Ellipse 5" cx="0.728" cy="0.476" rx="0.728" ry="0.476" transform="matrix(0.177, -0.984, 0.984, 0.177, 46.45, 11.666)" fill="#263238"/>
      <path id="Path_217" data-name="Path 217" d="M386.633,171.3c-.069.39-.338.671-.573.619s-.407-.407-.332-.8.338-.676.573-.625S386.707,170.908,386.633,171.3Z" transform="translate(-343.211 -160.828)" fill="#263238"/>
      <path id="Path_218" data-name="Path 218" d="M388.073,172.89l-.573,3.325a3.829,3.829,0,0,1-1.175-.166.441.441,0,0,1-.1-.774A7.876,7.876,0,0,0,388.073,172.89Z" transform="translate(-343.35 -161.852)" fill="#a02724"/>
      <path id="Path_219" data-name="Path 219" d="M397.185,170.548a.172.172,0,0,0,.115,0,.229.229,0,0,0,.1-.315,2.362,2.362,0,0,0-1.72-1.324.235.235,0,0,0-.264.206.247.247,0,0,0,.206.264h0a1.892,1.892,0,0,1,1.341,1.06.224.224,0,0,0,.218.109Z" transform="translate(-347.354 -160.152)" fill="#263238"/>
      <path id="Path_220" data-name="Path 220" d="M384.779,168.65a.246.246,0,0,0,.212-.069,1.857,1.857,0,0,1,1.582-.619.235.235,0,0,0,.269-.189.241.241,0,0,0-.189-.275,2.333,2.333,0,0,0-2.006.757.229.229,0,0,0,0,.332A.206.206,0,0,0,384.779,168.65Z" transform="translate(-342.727 -159.544)" fill="#263238"/>
      <path id="Path_221" data-name="Path 221" d="M398.735,192.66s-3.319,4.013-7.635,4.23a5.7,5.7,0,0,1,2.935,4.013,9.8,9.8,0,0,0,6.409-7.377A2.1,2.1,0,0,0,398.735,192.66Z" transform="translate(-345.511 -170.29)" fill="#fff"/>
      <path id="Path_222" data-name="Path 222" d="M384.979,201.18l-1.892-1.72-2.408.717A3.857,3.857,0,0,0,384.979,201.18Z" transform="translate(-341.064 -173.192)" fill="#ffc100"/>
      <path id="Path_223" data-name="Path 223" d="M384.979,201.18l-1.892-1.72-2.408.717A3.857,3.857,0,0,0,384.979,201.18Z" transform="translate(-341.064 -173.192)" opacity="0.3"/>
      <path id="Path_224" data-name="Path 224" d="M384.452,193.654s-1.68,1.943-1.76,3.348c-2.018.573-2.992,3.531-2.992,3.531s-.367-4.236,2.8-6.518a3.382,3.382,0,0,1,1.949-.361Z" transform="translate(-340.641 -170.704)" fill="#fff"/>
      <path id="Path_225" data-name="Path 225" d="M416.005,413.157h-1.634l-.441-.665-.86.671h-9.86a4.443,4.443,0,0,1,.424-2.259s2.946-.269,4.081-1.72a.361.361,0,0,1,.361-.149c.986.206,4.884.946,7.028.172a.355.355,0,0,1,.487.321A23.547,23.547,0,0,0,416.005,413.157Z" transform="translate(-350.674 -262.629)" fill="#263238"/>
      <path id="Path_226" data-name="Path 226" d="M387.084,203.492c.464-.722.705-1.49.183-1.834-.373-.241-1.49-.573-1.72.178a1.8,1.8,0,0,0,.115,1.72.963.963,0,0,0,1.422-.063Z" transform="translate(-343.078 -174.008)" fill="#263238"/>
      <path id="Path_227" data-name="Path 227" d="M388.592,201.153c.974-1.353,3.841-1.834,3.841-.722,0,2.138-.069,4.3-.986,4.8s-2.362-2.8-3.067-2.866Z" transform="translate(-344.35 -173.343)" fill="#263238"/>
      <path id="Path_228" data-name="Path 228" d="M383.656,200.929c-.573-1.427-2.39-1.932-2.688-.871-.573,2.035-.653,3.72,0,4.3s2.087-2.213,2.665-2.19Z" transform="translate(-340.99 -173.205)" fill="#263238"/>
      <path id="Path_229" data-name="Path 229" d="M327.658,194.145c.722-2.62-1.106-4.242-2.121-5.939-.178-.287-1.055-.132-1.1.476a2.786,2.786,0,0,0,.533,2.115,3.366,3.366,0,0,0,.533,4.506A3.439,3.439,0,0,0,327.658,194.145Z" transform="translate(-317.019 -168.33)" fill="#b55b52"/>
      <path id="Path_230" data-name="Path 230" d="M410.136,195.51a2.23,2.23,0,0,0-1.72-.269c-1.789,2.058-9.556,17.036-6.363,44.8h1.817C400.66,212.271,408.347,197.568,410.136,195.51Z" transform="translate(-349.861 -171.362)" fill="#fff"/>
      <path id="Path_231" data-name="Path 231" d="M404.69,275.6l-.161-2.046a.418.418,0,0,0-.453-.367l-.877.046a.407.407,0,0,0-.39.418l.16,2.052a.424.424,0,0,0,.453.367l.877-.052a.4.4,0,0,0,.39-.418Z" transform="translate(-350.508 -204.656)" fill="#fff"/>
      <path id="Path_232" data-name="Path 232" d="M404.273,273.966h-1.96a.464.464,0,0,1-.441-.373l-.126-.791a.31.31,0,0,1,.315-.373h1.96a.459.459,0,0,1,.436.373l.132.791a.31.31,0,0,1-.315.373Z" transform="translate(-350.051 -204.333)" fill="#263238"/>
      <path id="Path_233" data-name="Path 233" d="M371.493,194.9a2.374,2.374,0,0,0-1.937.189c-1.874,2.058-10.318,17.036-8.346,44.8h1.817C361.06,212.094,369.619,196.932,371.493,194.9Z" transform="translate(-332.628 -171.185)" fill="#fff"/>
      <path id="Path_234" data-name="Path 234" d="M363.414,275.6l-.069-2.046a.4.4,0,0,0-.436-.367l-.883.046a.43.43,0,0,0-.407.418l.069,2.052a.407.407,0,0,0,.436.367l.883-.052a.424.424,0,0,0,.407-.418Z" transform="translate(-332.93 -204.656)" fill="#fff"/>
      <path id="Path_235" data-name="Path 235" d="M363.074,273.966h-1.961a.441.441,0,0,1-.424-.373l-.092-.791a.327.327,0,0,1,.332-.373h1.96a.441.441,0,0,1,.424.373l.092.791a.327.327,0,0,1-.332.373Z" transform="translate(-332.492 -204.333)" fill="#263238"/>
      <path id="Path_236" data-name="Path 236" d="M394.258,154.022c-2.224-1.771-5.91,2.964-1.043,5.595,6.1,3.3,5.365,8.633,13.253,7.074-3.376-2.367-1.232-4.173-2.66-7.59C402.214,155.266,397.864,156.888,394.258,154.022Z" transform="translate(-345.39 -153.635)" fill="#f5f5f5"/>
      <path id="Path_237" data-name="Path 237" d="M390.9,159.26a6.331,6.331,0,0,0,2.413,3.961,9.4,9.4,0,0,1-1.21-2.964Z" transform="translate(-345.426 -156.035)" fill="#f5f5f5"/>
      <path id="Path_238" data-name="Path 238" d="M385.2,180.813a33.376,33.376,0,0,1,6.369.573,3.765,3.765,0,0,1-4.322,1.932,2.19,2.19,0,0,1-2.046-2.505Z" transform="translate(-342.984 -165.229)" fill="#263238"/>
      <path id="Path_239" data-name="Path 239" d="M388.99,183.461a4.414,4.414,0,0,0-2.7.292,2.608,2.608,0,0,0,1.427.642,4.362,4.362,0,0,0,2.694-.292,2.511,2.511,0,0,0-1.422-.642Z" transform="translate(-343.458 -166.325)" fill="#a02724"/>
      <path id="Path_240" data-name="Path 240" d="M385.6,180.81a.98.98,0,0,0,.625.8,25.463,25.463,0,0,0,4.173.264,1.347,1.347,0,0,0,1.146-.533A38.722,38.722,0,0,0,385.6,180.81Z" transform="translate(-343.164 -165.232)" fill="#fff"/>
      <path id="Path_241" data-name="Path 241" d="M385.05,186.618c.046,1.244,1.3,2.293.969,3.073a7.779,7.779,0,0,0,4.437-1,.642.642,0,0,0-.264-1.146,5.881,5.881,0,0,1-2.74-1,.573.573,0,0,0-.74,0A1.2,1.2,0,0,1,385.05,186.618Z" transform="translate(-342.929 -167.624)" fill="#f5f5f5"/>
      <path id="Path_242" data-name="Path 242" d="M400.6,261.519l-29.1-20.275.321-.464L401.2,260.642Z" transform="translate(-337.146 -190.826)" fill="#263238"/>
      <path id="Path_243" data-name="Path 243" d="M414.1,262.42l2.82,1.427c2.247,2.453-1.41,4.792-1.41,4.792l-1.3,1.834a1.674,1.674,0,0,1-2.132.4l-1.983-.986a1.72,1.72,0,0,1-.946-2.247l.86-1.76a3.44,3.44,0,0,1,1.083-1.3Z" transform="translate(-353.157 -200.061)" fill="#b55b52"/>
    </g>
  </g>
</svg>
