<svg xmlns="http://www.w3.org/2000/svg" width="385.173" height="287" viewBox="0 0 385.173 287">
  <g id="Telecommuting-rafiki" transform="translate(0 -55)">
    <g id="freepik--background-complete--inject-21" transform="translate(0 55)">
      <rect id="Rectangle_523" data-name="Rectangle 523" width="385.173" height="0.193" transform="translate(0 252.211)" fill="#ebebeb"/>
      <rect id="Rectangle_524" data-name="Rectangle 524" width="40.882" height="0.193" transform="translate(305.696 264.606)" fill="#ebebeb"/>
      <rect id="Rectangle_525" data-name="Rectangle 525" width="45.188" height="0.193" transform="translate(209.965 262.195)" fill="#ebebeb"/>
      <rect id="Rectangle_526" data-name="Rectangle 526" width="14.783" height="0.193" transform="translate(292.885 261.086)" fill="#ebebeb"/>
      <rect id="Rectangle_527" data-name="Rectangle 527" width="33.271" height="0.193" transform="translate(77.397 258.751)" fill="#ebebeb"/>
      <rect id="Rectangle_528" data-name="Rectangle 528" width="11.894" height="0.193" transform="translate(61.212 258.751)" fill="#ebebeb"/>
      <rect id="Rectangle_529" data-name="Rectangle 529" width="41.753" height="0.193" transform="translate(101.277 262.002)" fill="#ebebeb"/>
      <path id="Path_1099" data-name="Path 1099" d="M191.347,272.854H42.6a4.4,4.4,0,0,1-4.391-4.4V59.36A4.4,4.4,0,0,1,42.6,55H191.347a4.4,4.4,0,0,1,4.4,4.4V268.455A4.4,4.4,0,0,1,191.347,272.854ZM42.6,55.154a4.206,4.206,0,0,0-4.2,4.206V268.455a4.206,4.206,0,0,0,4.2,4.206H191.347a4.214,4.214,0,0,0,4.206-4.206V59.36a4.214,4.214,0,0,0-4.206-4.206Z" transform="translate(-8.775 -55)" fill="#ebebeb"/>
      <path id="Path_1100" data-name="Path 1100" d="M407.652,272.854H258.9a4.406,4.406,0,0,1-4.4-4.4V59.36A4.406,4.406,0,0,1,258.9,55H407.652a4.4,4.4,0,0,1,4.383,4.36V268.455A4.4,4.4,0,0,1,407.652,272.854ZM258.9,55.154a4.214,4.214,0,0,0-4.206,4.206V268.455a4.214,4.214,0,0,0,4.206,4.206H407.652a4.214,4.214,0,0,0,4.206-4.206V59.36a4.214,4.214,0,0,0-4.206-4.206Z" transform="translate(-58.447 -55)" fill="#ebebeb"/>
      <rect id="Rectangle_530" data-name="Rectangle 530" width="8.096" height="96.316" transform="translate(213.555 245.694) rotate(180)" fill="#f0f0f0"/>
      <rect id="Rectangle_531" data-name="Rectangle 531" width="160.571" height="6.417" transform="translate(210.443 252.111) rotate(180)" fill="#f0f0f0"/>
      <rect id="Rectangle_532" data-name="Rectangle 532" width="158.691" height="96.316" transform="translate(46.768 149.378)" fill="#f5f5f5"/>
      <rect id="Rectangle_533" data-name="Rectangle 533" width="8.366" height="6.07" transform="translate(215.735 149.378) rotate(180)" fill="#e0e0e0"/>
      <rect id="Rectangle_534" data-name="Rectangle 534" width="162.774" height="6.07" transform="translate(44.595 143.307)" fill="#ebebeb"/>
      <rect id="Rectangle_535" data-name="Rectangle 535" width="145.957" height="33.225" rx="7.78" transform="translate(53.131 156.85)" fill="#fff"/>
      <rect id="Rectangle_536" data-name="Rectangle 536" width="145.957" height="33.225" rx="7.78" transform="translate(53.131 199.997)" fill="#fff"/>
      <rect id="Rectangle_537" data-name="Rectangle 537" width="71.719" height="4.553" rx="1.77" transform="translate(161.973 160.401) rotate(180)" fill="#f5f5f5"/>
      <rect id="Rectangle_538" data-name="Rectangle 538" width="71.719" height="4.553" rx="1.77" transform="translate(161.973 203.548) rotate(180)" fill="#f5f5f5"/>
      <rect id="Rectangle_539" data-name="Rectangle 539" width="24.42" height="4.668" transform="translate(320.071 180.977)" fill="#e6e6e6"/>
      <rect id="Rectangle_540" data-name="Rectangle 540" width="4.507" height="159.77" transform="translate(305.866 252.211) rotate(180)" fill="#e6e6e6"/>
      <rect id="Rectangle_541" data-name="Rectangle 541" width="34.327" height="4.668" transform="translate(320.079 185.638) rotate(180)" fill="#f5f5f5"/>
      <rect id="Rectangle_542" data-name="Rectangle 542" width="24.42" height="4.668" transform="translate(320.071 223.963)" fill="#e6e6e6"/>
      <rect id="Rectangle_543" data-name="Rectangle 543" width="34.327" height="4.668" transform="translate(320.079 228.631) rotate(180)" fill="#f5f5f5"/>
      <rect id="Rectangle_544" data-name="Rectangle 544" width="24.42" height="4.668" transform="translate(320.071 94.999)" fill="#e6e6e6"/>
      <rect id="Rectangle_545" data-name="Rectangle 545" width="34.327" height="4.668" transform="translate(320.079 99.667) rotate(180)" fill="#f5f5f5"/>
      <rect id="Rectangle_546" data-name="Rectangle 546" width="24.42" height="4.668" transform="translate(320.071 137.984)" fill="#e6e6e6"/>
      <rect id="Rectangle_547" data-name="Rectangle 547" width="34.327" height="4.668" transform="translate(320.079 142.66) rotate(180)" fill="#f5f5f5"/>
      <rect id="Rectangle_548" data-name="Rectangle 548" width="4.507" height="159.77" transform="translate(340.192 252.211) rotate(180)" fill="#e6e6e6"/>
      <rect id="Rectangle_549" data-name="Rectangle 549" width="4.507" height="159.77" transform="translate(320.071 252.211) rotate(180)" fill="#f5f5f5"/>
      <rect id="Rectangle_550" data-name="Rectangle 550" width="4.507" height="159.77" transform="translate(290.259 252.211) rotate(180)" fill="#f5f5f5"/>
      <rect id="Rectangle_551" data-name="Rectangle 551" width="203.525" height="108.056" transform="translate(271.231 129.911) rotate(180)" fill="#e0e0e0"/>
      <rect id="Rectangle_552" data-name="Rectangle 552" width="205.759" height="108.056" transform="translate(268.327 129.911) rotate(180)" fill="#f5f5f5"/>
      <rect id="Rectangle_553" data-name="Rectangle 553" width="91.024" height="191.015" transform="translate(260.947 30.367) rotate(90)" fill="#fff"/>
    </g>
    <g id="freepik--Shadow--inject-21" transform="translate(43.224 324.559)">
      <ellipse id="freepik--path--inject-21" cx="149.362" cy="8.72" rx="149.362" ry="8.72" fill="#f5f5f5"/>
    </g>
    <g id="freepik--Desk--inject-21" transform="translate(77.127 169.396)">
      <path id="Path_1101" data-name="Path 1101" d="M323.377,262.691h-213.6a2.573,2.573,0,0,1-2.565-2.565h0a2.573,2.573,0,0,1,2.565-2.565h213.6a2.573,2.573,0,0,1,2.565,2.565h0a2.573,2.573,0,0,1-2.565,2.565Z" transform="translate(-101.748 -215.915)" fill="#ffc100"/>
      <path id="Path_1102" data-name="Path 1102" d="M372.148,262.691h-50a2.573,2.573,0,0,1-2.565-2.565h0a2.573,2.573,0,0,1,2.565-2.565h50a2.573,2.573,0,0,1,2.565,2.565h0a2.573,2.573,0,0,1-2.565,2.565Z" transform="translate(-150.52 -215.915)" fill="#263238" opacity="0.3"/>
      <rect id="Rectangle_554" data-name="Rectangle 554" width="164.276" height="17.88" transform="translate(51.929 53.208)" fill="#263238"/>
      <rect id="Rectangle_555" data-name="Rectangle 555" width="164.276" height="17.88" transform="translate(51.929 53.208)" fill="#fff" opacity="0.1"/>
      <path id="Path_1103" data-name="Path 1103" d="M377.055,377.769h4.915l-.2-113.549h-6.81Z" transform="translate(-163.238 -217.445)" fill="#263238"/>
      <path id="Path_1104" data-name="Path 1104" d="M377.055,377.769h4.915l-.2-113.549h-6.81Z" transform="translate(-163.238 -217.445)" fill="#fff" opacity="0.1"/>
      <path id="Path_1105" data-name="Path 1105" d="M317.413,377.769H312.49L323.614,264.22h6.81Z" transform="translate(-148.892 -217.445)" fill="#263238"/>
      <path id="Path_1106" data-name="Path 1106" d="M317.413,377.769H312.49L323.614,264.22h6.81Z" transform="translate(-148.892 -217.445)" fill="#fff" opacity="0.2"/>
      <path id="Path_1107" data-name="Path 1107" d="M164.685,377.769H169.6l-.2-113.549h-6.81Z" transform="translate(-114.467 -217.445)" fill="#263238"/>
      <path id="Path_1108" data-name="Path 1108" d="M164.685,377.769H169.6l-.2-113.549h-6.81Z" transform="translate(-114.467 -217.445)" fill="#fff" opacity="0.1"/>
      <path id="Path_1109" data-name="Path 1109" d="M105.043,377.769H100.12L111.244,264.22h6.81Z" transform="translate(-100.12 -217.445)" fill="#263238"/>
      <path id="Path_1110" data-name="Path 1110" d="M105.043,377.769H100.12L111.244,264.22h6.81Z" transform="translate(-100.12 -217.445)" fill="#fff" opacity="0.2"/>
      <path id="Path_1111" data-name="Path 1111" d="M281.377,250.951H270.037L265.5,228.78h11.34Z" transform="translate(-138.1 -209.306)" fill="#263238"/>
      <path id="Path_1112" data-name="Path 1112" d="M290.141,240.577H240.946a2.766,2.766,0,0,1-2.789-2.966l1.88-31.145a3.2,3.2,0,0,1,3.143-2.966h49.2a2.773,2.773,0,0,1,2.789,2.966l-1.88,31.145A3.2,3.2,0,0,1,290.141,240.577Z" transform="translate(-131.819 -203.5)" fill="#263238"/>
      <path id="Path_1113" data-name="Path 1113" d="M289.141,240.577H239.946a2.766,2.766,0,0,1-2.789-2.966l1.88-31.145a3.2,3.2,0,0,1,3.143-2.966h49.2a2.773,2.773,0,0,1,2.789,2.966l-1.88,31.145A3.2,3.2,0,0,1,289.141,240.577Z" transform="translate(-131.59 -203.5)" fill="#ffc100"/>
      <path id="Path_1114" data-name="Path 1114" d="M240.4,239.488a1.263,1.263,0,0,1-.917-.385,1.286,1.286,0,0,1-.331-.948l1.88-31.145a1.656,1.656,0,0,1,1.61-1.541h49.2a1.233,1.233,0,0,1,1.248,1.333l-1.88,31.145a1.649,1.649,0,0,1-1.61,1.541Z" transform="translate(-132.048 -203.952)" fill="#fff"/>
      <path id="Path_1115" data-name="Path 1115" d="M268.82,203.5l3.2,10.947,9.491-10.947Z" transform="translate(-138.863 -203.5)" opacity="0.2"/>
    </g>
    <g id="freepik--Character--inject-21" transform="translate(96.455 125.879)">
      <path id="Path_1116" data-name="Path 1116" d="M169.547,168.662c.077.593.447,1.04.84,1.009s.639-.539.562-1.132-.447-1.04-.832-1.009S169.477,168.084,169.547,168.662Z" transform="translate(-135.389 -151.721)" fill="#263238"/>
      <path id="Path_1117" data-name="Path 1117" d="M170.39,170.15a18.9,18.9,0,0,0,2.665,4.275,2.888,2.888,0,0,1-2.4.508Z" transform="translate(-135.586 -152.323)" fill="#a02724"/>
      <path id="Path_1118" data-name="Path 1118" d="M166.882,165.313a.485.485,0,0,1-.177,0,.362.362,0,0,1-.193-.462,3.4,3.4,0,0,1,2.388-2.072.347.347,0,0,1,.4.285.354.354,0,0,1-.285.408,2.627,2.627,0,0,0-1.849,1.649.37.37,0,0,1-.285.193Z" transform="translate(-134.69 -150.629)" fill="#263238"/>
      <path id="Path_1119" data-name="Path 1119" d="M146.828,181.07l4.622,3.544,6.309,4.83a6.533,6.533,0,0,0-.616,2.311c-.223,1.772-.447,3.081,3.49,4.168a2.242,2.242,0,0,1,1.679,1.749c.154,1.048-.485,2.311-4.121,2.935a16.709,16.709,0,0,1-10.269-1.749c-1.541-.77-1.541-1.695-.894-3.259C148.969,191.154,148.03,185.484,146.828,181.07Z" transform="translate(-130.127 -154.831)" fill="#b55b52"/>
      <path id="Path_1120" data-name="Path 1120" d="M140,200.108a32.1,32.1,0,0,0,2.188-5.331s11.709-.639,15.576.516,6.271,6.163,6.271,6.163Z" transform="translate(-128.607 -157.939)" fill="#ffc100"/>
      <path id="Path_1121" data-name="Path 1121" d="M141.944,211.971c-.285.863-.6,1.918-.9,2.889l-.87,3c-.539,2-1.063,4.014-1.471,6.016a57.406,57.406,0,0,0-.994,5.932,28.146,28.146,0,0,0-.169,5.523,12.457,12.457,0,0,0,.354,2.311c.046.154.085.324.139.47l.154.416h0a1.956,1.956,0,0,0-.123-.216,3.694,3.694,0,0,0-.254-.324,1.843,1.843,0,0,0-.339-.316c-.154-.108-.177-.092-.146-.054a3.782,3.782,0,0,0,.724.408c.347.154.77.308,1.194.454.87.293,1.833.562,2.827.824,3.975,1,8.312,1.779,12.541,2.681l-.139,5.339a68,68,0,0,1-6.81.562,65.484,65.484,0,0,1-6.933-.116,33.291,33.291,0,0,1-3.644-.447c-.632-.116-1.286-.247-1.98-.439a12.123,12.123,0,0,1-2.311-.855,8.289,8.289,0,0,1-1.541-.963,7.011,7.011,0,0,1-.932-.894,7.235,7.235,0,0,1-.493-.655c-.077-.131-.162-.262-.231-.393l-.1-.185-.532-1.086c-.162-.362-.293-.716-.431-1.078a21.656,21.656,0,0,1-1.048-4.16,45.8,45.8,0,0,1,.639-14.775c.431-2.311.94-4.622,1.541-6.818.308-1.117.632-2.234.978-3.336s.716-2.165,1.163-3.374Z" transform="translate(-125.651 -161.089)" fill="#b55b52"/>
      <path id="Path_1122" data-name="Path 1122" d="M134.377,200.4c7.28-1.926,11.6,4.037,9.136,13.866s-3.289,10.2-3.289,10.2l-15.014-2.5C127.059,212.335,126.912,202.367,134.377,200.4Z" transform="translate(-125.21 -159.188)" fill="#ffc100"/>
      <path id="Path_1123" data-name="Path 1123" d="M165.357,249.23l-1.132-.1c-3.22,0-3.775.878-5.754,2.719l-.77,4.052c5.2,2.658,7.988-.262,8-.262h4.815l-1.695-3.852a4.237,4.237,0,0,0-3.459-2.558Z" transform="translate(-132.671 -170.461)" fill="#b55b52"/>
      <path id="Path_1124" data-name="Path 1124" d="M144.255,167.6c1.31,7.018,1.718,11.193,5.739,14.328,6.039,4.707,14.359.231,15.176-7.072.732-6.571-1.541-16.948-8.8-18.789A9.922,9.922,0,0,0,144.255,167.6Z" transform="translate(-129.542 -149.022)" fill="#b55b52"/>
      <path id="Path_1125" data-name="Path 1125" d="M155.817,168.032c5.007-.4,3.544-5.677,2-6.779a4.636,4.636,0,0,0,1.71-7.18c1.325-3.459-2.465-7.626-9.113-7-4.853.447-5.392,3.012-5.392,3.012s-5.816-.609-8.235,4.191c-2.065,4.114.439,6.309.439,6.309s-4.345,1.263-3.143,6.933c1.279,6.117,5.978,4.7,5.978,4.7s-1.055,5.608,5.3,5.685c5.493.069,5.562-4.044,5.562-4.044S158.035,173.194,155.817,168.032Z" transform="translate(-127.198 -147.009)" fill="#263238"/>
      <path id="Path_1126" data-name="Path 1126" d="M157.454,173.72a6.525,6.525,0,0,0,3.081,3.5c1.833.94,3.235-1.009,2.912-3.012-.293-1.795-1.857-4.1-3.79-4.206S156.768,171.855,157.454,173.72Z" transform="translate(-132.564 -152.288)" fill="#b55b52"/>
      <path id="Path_1127" data-name="Path 1127" d="M253.028,394.438l6.848-2.781-4.838-16.447-6.848,2.773Z" transform="translate(-153.453 -199.416)" fill="#b55b52"/>
      <path id="Path_1128" data-name="Path 1128" d="M250.54,385.964l6.918-2.542-2.419-8.212-6.848,2.773Z" transform="translate(-153.453 -199.416)" opacity="0.2"/>
      <path id="Path_1129" data-name="Path 1129" d="M260.144,392.74l-7.834,2.719a.524.524,0,0,0-.347.655l1.772,6.332a1.317,1.317,0,0,0,1.656.817c2.7-1,3.8-1.541,7.141-2.989a105.527,105.527,0,0,0,9.645-4.622c2.611-1.541,1.04-4.168-.231-3.736-3.012,1.017-7.95,1.679-10.454.817A2.072,2.072,0,0,0,260.144,392.74Z" transform="translate(-154.314 -203.242)" fill="#263238"/>
      <path id="Path_1130" data-name="Path 1130" d="M175.13,276.658s51.76,4.622,53.1,19.513c2.7,30.3,6.833,59.509,6.833,59.509l-10.531,3.852s-12.888-33.279-12.718-57.006c-14.929-4.214-54.186,1.972-60.6-9.545-5.67-10.169-.693-17.471-.693-17.471Z" transform="translate(-130.558 -176.52)" fill="#263238"/>
      <path id="Path_1131" data-name="Path 1131" d="M245.512,384.59l13.111-4.429-.57-5.97-14.783,4.761Z" transform="translate(-152.323 -199.182)" fill="#ffc100"/>
      <path id="Path_1132" data-name="Path 1132" d="M265.7,392.781a8.948,8.948,0,0,1-1.941.393.169.169,0,0,1-.169-.085.177.177,0,0,1,0-.185c.169-.231,1.679-2.265,2.642-2.234a.67.67,0,0,1,.539.331.948.948,0,0,1,.1.955,2,2,0,0,1-1.171.824Zm-1.541,0c1.333-.185,2.242-.539,2.45-.978a.6.6,0,0,0-.085-.616.3.3,0,0,0-.262-.169c-.555-.023-1.51.971-2.142,1.764Z" transform="translate(-156.984 -202.967)" fill="#ffc100"/>
      <path id="Path_1133" data-name="Path 1133" d="M263.64,392.85a.154.154,0,0,1-.085,0,.177.177,0,0,1-.131-.1c0-.085-.886-2.034-.424-2.958a.87.87,0,0,1,.609-.462.655.655,0,0,1,.77.285c.424.709-.108,2.519-.655,3.174A.177.177,0,0,1,263.64,392.85Zm0-3.158a.516.516,0,0,0-.3.27,3.81,3.81,0,0,0,.316,2.373,3.514,3.514,0,0,0,.454-2.534c-.054-.085-.146-.185-.393-.131Z" transform="translate(-156.823 -202.651)" fill="#ffc100"/>
      <path id="Path_1134" data-name="Path 1134" d="M206.9,401.266l7.318-.347,1.194-17.279-7.318.347Z" transform="translate(-143.97 -201.352)" fill="#b55b52"/>
      <path id="Path_1135" data-name="Path 1135" d="M213.8,404.371l-8.289-.262a.524.524,0,0,0-.562.485l-.609,6.54a1.317,1.317,0,0,0,1.279,1.363c2.889.039,4.268-.085,7.911,0a66.962,66.962,0,0,0,9.729,0c3.074-.4,2.6-3.413,1.263-3.528-3.166-.254-7.411-2.442-9.437-4.144a2.041,2.041,0,0,0-1.286-.455Z" transform="translate(-143.382 -206.053)" fill="#263238"/>
      <path id="Path_1136" data-name="Path 1136" d="M219.377,405.67a9.336,9.336,0,0,1-1.957-.324.169.169,0,0,1-.054-.308c.239-.162,2.373-1.541,3.266-1.14a.655.655,0,0,1,.385.5.948.948,0,0,1-.246.924A1.941,1.941,0,0,1,219.377,405.67Zm-1.479-.562c1.31.308,2.311.3,2.642,0a.624.624,0,0,0,.139-.616.316.316,0,0,0-.185-.247c-.508-.231-1.756.347-2.658.863Z" transform="translate(-146.356 -205.988)" fill="#ffc100"/>
      <path id="Path_1137" data-name="Path 1137" d="M217.418,404.83a.177.177,0,0,1-.085,0,.185.185,0,0,1-.085-.146c0-.085-.1-2.211.662-2.9a.832.832,0,0,1,.77-.216.655.655,0,0,1,.609.539c.139.809-1.009,2.311-1.756,2.727A.154.154,0,0,1,217.418,404.83Zm1.1-2.935a.493.493,0,0,0-.377.139,3.8,3.8,0,0,0-.555,2.311c.655-.524,1.425-1.672,1.333-2.2,0-.1-.077-.216-.324-.254Z" transform="translate(-146.346 -205.463)" fill="#ffc100"/>
      <path id="Path_1138" data-name="Path 1138" d="M208.253,383.987l7.326-.347-.693,9.884-7.3-.008Z" transform="translate(-144.129 -201.352)" opacity="0.2"/>
      <path id="Path_1139" data-name="Path 1139" d="M153.549,275.641s55.773,8.528,54.887,21.369c-1.595,23.11-9.344,68.276-9.344,68.276l-10.985.154s-2.6-46.329,1.541-63.215c-13.72,0-52.422-.478-57.7-7.526-5.839-7.788.162-20.029.162-20.029Z" transform="translate(-126.171 -176.327)" fill="#263238"/>
      <path id="Path_1140" data-name="Path 1140" d="M203.739,391.464l13.3-.208.655-7.026-14.59.57Z" transform="translate(-143.098 -201.488)" fill="#ffc100"/>
      <path id="Path_1141" data-name="Path 1141" d="M163.636,199.3c-4.491-.878-24.743-.624-24.743-.624a8.089,8.089,0,0,0-8.258,7.172c-.709,6.247,3.259,20.206,3.4,27.324.169,8.743-1.5,12.287-1.672,24.058l38.648,1.772c0-23.673-1.032-43.27-1.964-52.669C168.713,203.032,168.127,200.174,163.636,199.3Z" transform="translate(-126.436 -158.867)" fill="#ffc100"/>
      <path id="Path_1142" data-name="Path 1142" d="M163.636,199.3c-4.491-.878-24.743-.624-24.743-.624a8.089,8.089,0,0,0-8.258,7.172c-.709,6.247,3.259,20.206,3.4,27.324.169,8.743-1.5,12.287-1.672,24.058l38.648,1.772c0-23.673-1.032-43.27-1.964-52.669C168.713,203.032,168.127,200.174,163.636,199.3Z" transform="translate(-126.436 -158.867)" fill="#fff" opacity="0.3"/>
      <path id="Path_1143" data-name="Path 1143" d="M177.231,209.18c1.209,4.16,2.427,8.435,3.682,12.611s2.542,8.374,3.99,12.326c.354,1.009.77,1.949,1.109,2.92l.593,1.364.077.169v.131h0v-.054a2.911,2.911,0,0,0-.493-.647c-.262-.254-.362-.277-.385-.277a1.918,1.918,0,0,0,.585.362,9.575,9.575,0,0,0,1.163.47c.87.3,1.849.57,2.843.84,4.029,1.025,8.428,1.81,12.711,2.727l-.139,5.338a65.473,65.473,0,0,1-6.933.562,61.756,61.756,0,0,1-7.041-.131,33.123,33.123,0,0,1-3.713-.478c-.647-.123-1.317-.277-2.041-.485a11.325,11.325,0,0,1-2.465-1.017,7.988,7.988,0,0,1-1.695-1.3,6.355,6.355,0,0,1-.986-1.325l-.262-.485-.87-1.649c-.508-1.078-1.063-2.165-1.541-3.235-.948-2.165-1.779-4.306-2.611-6.456s-1.541-4.3-2.257-6.456c-1.425-4.337-2.712-8.628-3.852-13.1Z" transform="translate(-134.738 -161.287)" fill="#b55b52"/>
      <path id="Path_1144" data-name="Path 1144" d="M165.421,202.814c5.285-5.392,12.041-2.45,14.945,7.287s2.38,10.446,2.38,10.446l-14.2,5.508C165.2,216.78,160.013,208.306,165.421,202.814Z" transform="translate(-133.906 -159.211)" fill="#ffc100"/>
      <path id="Path_1145" data-name="Path 1145" d="M216.58,249.23l-1.132-.1c-3.22,0-3.767.878-5.747,2.719l-.77,4.052c5.2,2.658,7.988-.262,7.988-.262h4.822l-1.7-3.852a4.221,4.221,0,0,0-3.459-2.558Z" transform="translate(-144.437 -170.461)" fill="#b55b52"/>
      <rect id="Rectangle_556" data-name="Rectangle 556" width="53.293" height="7.103" rx="2.55" transform="translate(58.947 128.718) rotate(180)" fill="#ffc100"/>
      <path id="Path_1146" data-name="Path 1146" d="M134.738,393.174H132.55l2.519-79.084H138.1Z" transform="translate(-126.896 -185.38)" fill="#ffc100"/>
      <path id="Path_1147" data-name="Path 1147" d="M134.738,393.174H132.55l2.519-79.084H138.1Z" transform="translate(-126.896 -185.38)" fill="#fff" opacity="0.4"/>
      <path id="Path_1148" data-name="Path 1148" d="M160.511,393.174H162.7l-2.511-79.084H157.16Z" transform="translate(-132.547 -185.38)" fill="#ffc100"/>
      <path id="Path_1149" data-name="Path 1149" d="M160.511,393.174H162.7l-2.511-79.084H157.16Z" transform="translate(-132.547 -185.38)" fill="#fff" opacity="0.4"/>
      <path id="Path_1150" data-name="Path 1150" d="M172.118,393.174H169.93l2.519-79.084h3.027Z" transform="translate(-135.48 -185.38)" fill="#ffc100"/>
      <path id="Path_1151" data-name="Path 1151" d="M172.118,393.174H169.93l2.519-79.084h3.027Z" transform="translate(-135.48 -185.38)" fill="#fff" opacity="0.4"/>
      <path id="Path_1152" data-name="Path 1152" d="M197.891,393.174h2.188l-2.511-79.084H194.54Z" transform="translate(-141.132 -185.38)" fill="#ffc100"/>
      <path id="Path_1153" data-name="Path 1153" d="M197.891,393.174h2.188l-2.511-79.084H194.54Z" transform="translate(-141.132 -185.38)" fill="#fff" opacity="0.4"/>
      <g id="Group_36" data-name="Group 36" transform="translate(8.066 128.71)" opacity="0.3">
        <path id="Path_1154" data-name="Path 1154" d="M135.788,314.09h3.027l-.146,3.359H135.68Z" transform="translate(-135.68 -314.09)" fill="#ffc100"/>
        <path id="Path_1155" data-name="Path 1155" d="M160.288,317.449H157.3l-.139-3.359h3.02Z" transform="translate(-140.613 -314.09)" fill="#ffc100"/>
        <path id="Path_1156" data-name="Path 1156" d="M176.188,314.09l-.139,3.359H173.06l.108-3.359Z" transform="translate(-144.264 -314.09)" fill="#ffc100"/>
        <path id="Path_1157" data-name="Path 1157" d="M197.675,317.449h-3l-.139-3.359h3.027Z" transform="translate(-149.197 -314.09)" fill="#ffc100"/>
      </g>
    </g>
    <g id="freepik--Telecommuting--inject-21" transform="translate(168.157 63.851)">
      <path id="Path_1158" data-name="Path 1158" d="M350.128,160.9H226.742a6.933,6.933,0,0,1-6.987-7.434l4.707-78.09a8.027,8.027,0,0,1,7.888-7.434H355.705a6.933,6.933,0,0,1,6.987,7.434l-4.715,78.121a8.019,8.019,0,0,1-7.85,7.4Z" transform="translate(-218.62 -66.823)" fill="#ffc100"/>
      <path id="Path_1159" data-name="Path 1159" d="M250.26,167.18l11.378,38.926,33.757-38.926Z" transform="translate(-225.63 -89.614)" fill="#ffc100"/>
      <path id="Path_1160" data-name="Path 1160" d="M359.4,132.286H290.258a3.89,3.89,0,0,1-3.921-4.168l2.642-43.771A4.5,4.5,0,0,1,293.4,80.18h69.146a3.852,3.852,0,0,1,3.921,4.168l-2.642,43.771A4.5,4.5,0,0,1,359.4,132.286Z" transform="translate(-233.913 -69.633)" fill="#fff" opacity="0.1"/>
      <path id="Path_1161" data-name="Path 1161" d="M311.384,156.8H242.23a3.89,3.89,0,0,1-3.913-4.168l2.642-43.771a4.5,4.5,0,0,1,4.414-4.168h69.154a3.852,3.852,0,0,1,3.913,4.168L315.8,152.628a4.5,4.5,0,0,1-4.414,4.168Z" transform="translate(-222.885 -75.262)" fill="#fff" opacity="0.1"/>
      <g id="Group_37" data-name="Group 37" transform="translate(14.314 5.601)" opacity="0.5">
        <path id="Path_1162" data-name="Path 1162" d="M240.983,76.071a2.373,2.373,0,0,1-2.211,2.311,2,2,0,0,1-1.88-2.311A2.388,2.388,0,0,1,239.1,73.76a2,2,0,0,1,1.88,2.311Z" transform="translate(-236.869 -73.76)" fill="#fff"/>
        <path id="Path_1163" data-name="Path 1163" d="M250.771,76.071a2.38,2.38,0,0,1-2.211,2.311,2,2,0,0,1-1.887-2.311,2.388,2.388,0,0,1,2.211-2.311,2.011,2.011,0,0,1,1.887,2.311Z" transform="translate(-239.115 -73.76)" fill="#fff"/>
        <path id="Path_1164" data-name="Path 1164" d="M260.633,76.071a2.373,2.373,0,0,1-2.211,2.311,2,2,0,0,1-1.88-2.311,2.388,2.388,0,0,1,2.211-2.311,2,2,0,0,1,1.88,2.311Z" transform="translate(-241.381 -73.76)" fill="#fff"/>
      </g>
      <path id="Path_1165" data-name="Path 1165" d="M348.84,159.84H225.484a7.141,7.141,0,0,1-7.18-7.642l4.715-78.09a8.212,8.212,0,0,1,8.073-7.619H354.417a7.141,7.141,0,0,1,7.18,7.642l-4.707,78.09A8.22,8.22,0,0,1,348.84,159.84ZM231.092,66.883a7.819,7.819,0,0,0-7.7,7.257l-4.715,78.09a6.741,6.741,0,0,0,6.794,7.234H348.84a7.827,7.827,0,0,0,7.7-7.257l4.707-78.09a6.756,6.756,0,0,0-6.833-7.234Z" transform="translate(-218.287 -66.49)" fill="#263238" opacity="0.3"/>
      <path id="Path_1166" data-name="Path 1166" d="M291.375,126.167c-.524,1.109-1,2.057-1.541,3.081s-1.078,1.949-1.633,2.912c-1.132,1.918-2.311,3.852-3.574,5.654q-.955,1.387-1.957,2.75c-.7.894-1.363,1.8-2.111,2.673a54.1,54.1,0,0,1-4.707,5.115c-.424.416-.886.77-1.333,1.209a14.976,14.976,0,0,1-1.4,1.163l-1.479,1.117-.455.316a6.156,6.156,0,0,1-.624.347,6.323,6.323,0,0,1-6.571-.678,6.58,6.58,0,0,1-.994-.971l-.208-.277-.1-.139-.039-.062-.139-.247-.555-1c-.169-.324-.285-.632-.424-.948a24.953,24.953,0,0,1-1.186-3.582,47.923,47.923,0,0,1-1.125-6.771,58.45,58.45,0,0,1-.293-6.687,2.658,2.658,0,0,1,5.208-.678v.092a98.174,98.174,0,0,0,3.782,11.555,18.365,18.365,0,0,0,1.194,2.311c.1.154.2.339.3.47l.293.354.069.092h0l-.039-.062-.085-.116a2.4,2.4,0,0,0-.416-.424,2.743,2.743,0,0,0-1.048-.524,2.811,2.811,0,0,0-1.163,0,2.681,2.681,0,0,0-.578.193c-.1,0-.185.1-.277.146s-.231.162-.131.077l.963-.94c.324-.293.639-.647.955-.986s.639-.67.948-1.032a80.841,80.841,0,0,0,6.918-9.66c1.055-1.718,2.1-3.467,3.081-5.238l1.487-2.665,1.41-2.6.077-.139a5.315,5.315,0,0,1,9.483,4.784Z" transform="translate(-227.619 -78.467)" fill="#263238"/>
      <path id="Path_1167" data-name="Path 1167" d="M258.752,132.561,255,130.411l4.037-4.121a23.042,23.042,0,0,1,3.274,2.95,2.188,2.188,0,0,1-.616,3.459h0A3.182,3.182,0,0,1,258.752,132.561Z" transform="translate(-226.718 -80.223)" fill="#ffc3bd"/>
      <path id="Path_1168" data-name="Path 1168" d="M253.734,125.4l2.041-1.456a1.248,1.248,0,0,1,1.733.262l1.117,1.487-4.037,4.121-1.271-2.9a1.248,1.248,0,0,1,.416-1.518Z" transform="translate(-226.308 -79.631)" fill="#ffc3bd"/>
      <path id="Path_1169" data-name="Path 1169" d="M289.59,122.513a5.724,5.724,0,0,1,4.453-3.967,34.891,34.891,0,0,1,4.537-.693,121.212,121.212,0,0,1,13.781.247c2.4.162,4.861.5,6.818.824h.069a3.967,3.967,0,0,1,3.266,4.553c-.963,5.562-3.79,15.237-4.1,24.366-.408,11.987-.223,18.889-.431,21.778l-30.852-.593C284.983,139.73,287.656,129.146,289.59,122.513Z" transform="translate(-233.915 -78.264)" fill="#fff"/>
      <path id="Path_1170" data-name="Path 1170" d="M319.352,118.4h-.1c-2.065-.339-4.622-.7-7.187-.87l-1.371-.077c-1.348,5.577-9.383,14.96-11.817,29.181-.94-11.886-1.664-24.312-.285-29.158a61.328,61.328,0,0,0-6.517.547,6.633,6.633,0,0,0-4.884,4.545c-1.9,5.577-5.516,18.072-3.289,48.794h34.288c.223-3.081-.578-9.552.662-19.513,1.194-9.645,2.912-22.771,3.921-28.634A4.191,4.191,0,0,0,319.352,118.4Z" transform="translate(-233.195 -78.193)" fill="#263238"/>
      <path id="Path_1171" data-name="Path 1171" d="M302.475,178.91a.2.2,0,0,1-.208-.185c-.724-8.666.632-21.107.647-21.238a.2.2,0,0,1,.223-.177.208.208,0,0,1,.185.223c0,.123-1.371,12.534-.647,21.154a.2.2,0,0,1-.185.223Z" transform="translate(-237.525 -87.347)" fill="#fff" opacity="0.2"/>
      <path id="Path_1172" data-name="Path 1172" d="M328.359,133.112c-1.271,5.762-.593,13.743.77,21.023,1.009-8.173,2.388-18.781,3.4-25.344C331.117,127.85,329.368,128.513,328.359,133.112Z" transform="translate(-243.411 -80.713)" opacity="0.3"/>
      <path id="Path_1173" data-name="Path 1173" d="M303.031,113.308c4-.878,4.691-3.343,4.406-6.07a17.328,17.328,0,0,0-.331-2.026l4.992-4.083,3.675-2.989c-1,4.422-2.1,12.487.917,15.5,0,0-2.465,4.044-9.321,3.551C301.575,116.775,303.031,113.308,303.031,113.308Z" transform="translate(-237.712 -73.758)" fill="#ffc3bd"/>
      <path id="Path_1174" data-name="Path 1174" d="M310.639,121.55,309.53,122.6l3.544,1.333-.462-1.348Z" transform="translate(-239.241 -79.135)" fill="#e0e0e0"/>
      <path id="Path_1175" data-name="Path 1175" d="M313.682,124.676s-1.394-3.52-2.712-4.268a14.636,14.636,0,0,0,6.864-3.8l2.1.84S320.6,121.533,313.682,124.676Z" transform="translate(-239.572 -78)" fill="#f5f5f5"/>
      <path id="Path_1176" data-name="Path 1176" d="M307.587,121.19l.832,1.325-3.728.324.747-1.179Z" transform="translate(-238.13 -79.052)" fill="#e0e0e0"/>
      <path id="Path_1177" data-name="Path 1177" d="M301.914,123.723a16.786,16.786,0,0,1,4.768-3.544c-2.026-.6-2.149-3.39-2.149-3.39l-1.964.377S298.964,120.673,301.914,123.723Z" transform="translate(-237.226 -78.041)" fill="#f5f5f5"/>
      <path id="Path_1178" data-name="Path 1178" d="M308.37,106.1a17.721,17.721,0,0,1,.331,2.034c1.864-.339,4.36-2.311,4.622-4.2a8.644,8.644,0,0,0,.054-1.91Z" transform="translate(-238.975 -74.649)" opacity="0.2"/>
      <path id="Path_1179" data-name="Path 1179" d="M300.172,80.929c-1.787,2.2-1.618,10.138,2.165,10.23S303.423,76.923,300.172,80.929Z" transform="translate(-236.84 -69.643)" fill="#263238"/>
      <path id="Path_1180" data-name="Path 1180" d="M316.513,86.031c-.378,6.016-.3,9.552-3.336,12.664-4.56,4.676-11.956,1.987-13.381-4-1.271-5.392-.439-14.321,5.439-16.763a8.112,8.112,0,0,1,11.278,8.1Z" transform="translate(-236.888 -68.968)" fill="#ffc3bd"/>
      <path id="Path_1181" data-name="Path 1181" d="M317.37,81.69c-3.782,3.752,1.132,6.5-.77,8.52,3.567,1.864,2.257,3.235,2.257,3.235a4.684,4.684,0,0,0,0,3.174c4.021-1.032,11.486-14.39,3.336-16.439C317.316,82.352,317.37,81.69,317.37,81.69Z" transform="translate(-240.703 -69.634)" fill="#263238"/>
      <path id="Path_1182" data-name="Path 1182" d="M314.856,82.917c-3.582.555-8.089-1.156-10.885-2.6s-3.2,1.286-2.172,2.118c-1.795.062-4.067-1.356-3.505-4.522.516-2.889,4.3-5.624,9.683-3.182,3.813,1.726,8.512-.547,10.346,1.448S317.245,82.54,314.856,82.917Z" transform="translate(-236.641 -68.165)" fill="#263238"/>
      <path id="Path_1183" data-name="Path 1183" d="M323,79.211c2.4-.316,2.5-1.833,1.833-4.491,2.6,3.69,1.541,4.822,0,5.716C323.116,79.858,323,79.211,323,79.211Z" transform="translate(-242.335 -68.38)" fill="#263238"/>
      <path id="Path_1184" data-name="Path 1184" d="M322.386,93.688a5.5,5.5,0,0,1-2.627,2.688c-1.487.67-2.242-.7-1.841-2.311.362-1.456,1.541-3.551,3.081-3.536S323.056,92.2,322.386,93.688Z" transform="translate(-241.143 -72.011)" fill="#ffc3bd"/>
      <path id="Path_1185" data-name="Path 1185" d="M309.125,90.736c0,.485-.262.886-.578.894s-.547-.393-.547-.894.262-.886.578-.886S309.125,90.243,309.125,90.736Z" transform="translate(-238.89 -71.854)" fill="#263238"/>
      <path id="Path_1186" data-name="Path 1186" d="M301.955,90.8c0,.493-.262.886-.585.894s-.578-.393-.57-.886.254-.886.578-.886S301.955,90.313,301.955,90.8Z" transform="translate(-237.236 -71.871)" fill="#263238"/>
      <path id="Path_1187" data-name="Path 1187" d="M304.311,91.28A17.717,17.717,0,0,1,302,95.486a2.812,2.812,0,0,0,2.311.424Z" transform="translate(-237.512 -72.183)" fill="#ed847e"/>
      <path id="Path_1188" data-name="Path 1188" d="M307.309,98.446a4.06,4.06,0,0,0,2.827-1.641.142.142,0,1,0-.239-.154,3.929,3.929,0,0,1-3.158,1.541.143.143,0,1,0,.008.285A3.585,3.585,0,0,1,307.309,98.446Z" transform="translate(-238.569 -73.401)" fill="#263238"/>
      <path id="Path_1189" data-name="Path 1189" d="M312.22,87.985a.216.216,0,0,0,.131-.054.277.277,0,0,0,.054-.4,2.835,2.835,0,0,0-2.311-1.171.277.277,0,0,0-.254.308.3.3,0,0,0,.316.27,2.2,2.2,0,0,1,1.826.94.285.285,0,0,0,.239.108Z" transform="translate(-239.312 -71.053)" fill="#263238"/>
      <path id="Path_1190" data-name="Path 1190" d="M299.3,88.169a.285.285,0,0,0,.216-.154,2.311,2.311,0,0,1,1.625-1.325.27.27,0,0,0,.239-.324.3.3,0,0,0-.324-.247h0a2.881,2.881,0,0,0-2.065,1.633.293.293,0,0,0,.131.385.347.347,0,0,0,.177.031Z" transform="translate(-236.815 -70.997)" fill="#263238"/>
      <path id="Path_1191" data-name="Path 1191" d="M331.9,122.273c.94,1.98,1.726,3.852,2.5,5.778s1.456,3.89,2.142,5.855a98.32,98.32,0,0,1,3.251,12.233c.177,1.071.377,2.118.508,3.22l.1.817.054.408v.493a12.478,12.478,0,0,1,0,2.4,10.785,10.785,0,0,1-1.749,4.876,10.931,10.931,0,0,1-3.5,3.274,14.637,14.637,0,0,1-3.713,1.541,19.836,19.836,0,0,1-3.544.632,25.345,25.345,0,0,1-6.771-.27,2.65,2.65,0,0,1-.139-5.2l.277-.062c.77-.177,1.78-.393,2.642-.624s1.741-.5,2.558-.77a11.4,11.4,0,0,0,3.89-2.157,2.557,2.557,0,0,0,.67-1.017,2.1,2.1,0,0,0,0-.824,5.178,5.178,0,0,0-.116-.616L330.687,151c-.177-.878-.431-1.787-.662-2.681-.478-1.81-1.017-3.621-1.633-5.439s-1.248-3.628-1.918-5.439-1.379-3.621-2.1-5.392-1.471-3.636-2.188-5.323v-.077a5.31,5.31,0,1,1,9.691-4.345Z" transform="translate(-241.409 -78.587)" fill="#263238"/>
      <path id="Path_1192" data-name="Path 1192" d="M317.667,172.755l-3.4,1.633,5.87,2.088s3.913-1.248,2.018-3.42l-1.055-.331C319.408,172.169,318.576,172.231,317.667,172.755Z" transform="translate(-240.33 -90.797)" fill="#ffc3bd"/>
      <path id="Path_1193" data-name="Path 1193" d="M314.44,179.144l2.581.493a1.8,1.8,0,0,0,1.9-.886l.94-1.687L313.986,175l-.77,1.61a1.787,1.787,0,0,0,1.225,2.534Z" transform="translate(-240.046 -91.41)" fill="#ffc3bd"/>
    </g>
  </g>
</svg>
