<svg id="Group_11" data-name="Group 11" xmlns="http://www.w3.org/2000/svg" width="556.556" height="549.685" viewBox="0 0 556.556 549.685">
  <path id="Path_2" data-name="Path 2" d="M654.307,261.944l15.368-2.088L651.93,238.892l-6.7-10.584-7.307-5.973-3.769-4.436L443.3,204.56v54.658l36.274,6.5c10.613,1.769,14.817,3.538,16.354,4.378-.522,3.857-6.176,16.035-13.947,24.386l-83.394,89.483V214.39l-34.1,47.235a191.469,191.469,0,0,0,0,150.317l2.523,5.915-.232.261,1.479,2.639,30.3,70.78v-26.59A190.913,190.913,0,0,0,579.41,524.216l25.952-5.364L505.788,371.289C588.456,278.791,607.681,268.294,654.307,261.944Z" transform="translate(-245.197 -92.75)" fill="#ffc104"/>
  <path id="Path_3" data-name="Path 3" d="M574.046,475.589a51.889,51.889,0,0,1-20.3-4.291l-2.349-.986-72.288-72.839,6.466-8.351L444.2,348.208l12.41-9.279c6.466-4.814,24.763-19.921,31.577-31.606l8.7-14.933,41.754,41.755,6.959-7.423,66.257,72.259c7.858,9.859,17.369,35.346-2.668,61.24l-.725.87A48.541,48.541,0,0,1,574.046,475.589ZM566.3,447.579a24.032,24.032,0,0,0,7.742,1.334,22.136,22.136,0,0,0,14.556-5.654c10.178-13.715,4.639-24.3,2.61-27.343l-45.089-50.831-6.9,7.365L501.062,334.29a184.1,184.1,0,0,1-16.586,16.267l36.651,36.216-6.437,8.293Z" transform="translate(-64.579 74.096)" fill="#193074"/>
  <path id="Path_4" data-name="Path 4" d="M451.23,335.438s25.4-18.935,35.086-35.578l39.261,39.261,6.93-7.394,55.557,61.385s16.18,20.326-2.783,44.8c0,0-15.716,17.079-39.725,6.93l-62.023-62.748,6.437-8.322Z" transform="translate(-51.224 88.286)" fill="#193074"/>
  <path id="Path_5" data-name="Path 5" d="M538.919,593.018c-112.013,0-203.149-91.136-203.149-203.149S426.906,186.72,538.919,186.72s203.149,91.136,203.149,203.149S650.932,593.018,538.919,593.018Zm0-379.65c-97.341,0-176.5,79.189-176.5,176.5s79.16,176.5,176.5,176.5c97.312,0,176.5-79.189,176.5-176.5C715.42,292.528,636.26,213.368,538.919,213.368Zm0,345.9c-93.4,0-169.4-76-169.4-169.4s76-169.4,169.4-169.4,169.4,76,169.4,169.4S632.345,559.266,538.919,559.266Zm0-312.146c-78.725,0-142.749,64.024-142.749,142.749s64.024,142.749,142.749,142.749c78.7,0,142.749-64.024,142.749-142.749C681.7,311.144,617.644,247.119,538.919,247.119Z" transform="translate(-270.557 -126.639)" fill="none"/>
  <path id="Path_6" data-name="Path 6" d="M390.194,451.775v-4.958l2.581-2.9a168.939,168.939,0,0,1-2.61-216.864v-10.9a176.08,176.08,0,0,0,.029,235.625Z" transform="translate(-253.099 -70.733)"/>
  <path id="Path_7" data-name="Path 7" d="M539.086,368.588,508.437,323.18a201.764,201.764,0,0,1-110.418,5.335l1.015,1.508c13.193,19.689,17.6,29.113,17.6,35.4,0,9.424-10.265,14.179-30.794,14.962v18.876H557.412V380.39C549.351,380.39,545.7,378.041,539.086,368.588Z" transform="translate(-175.442 132.586)" fill="#193074"/>
  <path id="Path_8" data-name="Path 8" d="M505.252,327.407l-4.176-6.176A168.705,168.705,0,0,1,379.35,308.82l7.539,11.424a175.857,175.857,0,0,0,118.363,7.162Z" transform="translate(-187.771 105.307)"/>
  <path id="Path_9" data-name="Path 9" d="M450.375,631.769v-47.7a202.764,202.764,0,0,1,0-309.682V166H313.28v18.877c24.937,2.349,35.2,15.745,35.2,45.64V631.769c0,30.678-10.99,44.857-35.2,47.206v18.877H488.505V678.975C454.029,673.466,450.375,668.74,450.375,631.769Z" transform="translate(-313.28 -166)" fill="#193074"/>
  <path id="Path_10" data-name="Path 10" d="M530.18,191.31c-104.851,0-189.81,84.989-189.81,189.811s84.96,189.81,189.81,189.81c104.822,0,189.811-84.988,189.811-189.81C720.02,276.3,635.031,191.31,530.18,191.31Zm0,345.9A156.088,156.088,0,1,1,686.268,381.121,156.061,156.061,0,0,1,530.18,537.208Z" transform="translate(-261.819 -117.92)" fill="#193074"/>
</svg>
