<svg xmlns="http://www.w3.org/2000/svg" width="100" height="125.952" viewBox="0 0 100 125.952">
  <path id="Path_16" data-name="Path 16" d="M129.65,58.926,98.832,28.376A6.458,6.458,0,0,0,94.008,26.5H40.679A9.5,9.5,0,0,0,31.3,35.879V143.073a9.321,9.321,0,0,0,9.379,9.379h81.2a9.5,9.5,0,0,0,9.379-9.379V63.75C131.526,61.874,130.454,60.266,129.65,58.926ZM52.739,83.581H77.661a3.484,3.484,0,1,1,0,6.968H52.739a3.484,3.484,0,1,1,0-6.968Zm53.329,49.845H52.739a3.484,3.484,0,0,1,0-6.968h53.329a3.237,3.237,0,0,1,3.484,3.484A3.378,3.378,0,0,1,106.068,133.426Zm0-21.439H52.739a3.484,3.484,0,1,1,0-6.968h53.329a3.484,3.484,0,0,1,0,6.968Zm-5.9-53.329a1.266,1.266,0,0,1-1.34-1.34V40.167l18.491,18.491Z" transform="translate(-31.3 -26.5)"/>
</svg>
