<svg id="Group_14" data-name="Group 14" xmlns="http://www.w3.org/2000/svg" width="102.4" height="111.134" viewBox="0 0 102.4 111.134">
  <path id="Path_17" data-name="Path 17" d="M63.425,264.095a7.985,7.985,0,0,0,7.976,7.976h86.448a7.985,7.985,0,0,0,7.976-7.976V202.2H63.425Z" transform="translate(-63.425 -160.937)"/>
  <path id="Path_19" data-name="Path 19" d="M81.65,47a2.659,2.659,0,0,0-2.659,2.659V61.3H71.4a7.985,7.985,0,0,0-7.976,7.976V82.946h102.4V69.28a7.985,7.985,0,0,0-7.976-7.976h-7.591V49.659a2.659,2.659,0,1,0-5.317,0V61.3H84.309V49.659A2.659,2.659,0,0,0,81.65,47Z" transform="translate(-63.425 -47)"/>
</svg>
