<svg xmlns="http://www.w3.org/2000/svg" width="101.476" height="93.705" viewBox="0 0 101.476 93.705">
  <g id="Icon_ionic-ios-book" data-name="Icon ionic-ios-book" transform="translate(-3.382 -4.5)">
    <path id="Path_7" data-name="Path 7" d="M27.275,4.507c13.2,0,24.405,6.809,24.405,20.012v3.9h0V97.71a.48.48,0,0,1-.927.171v-.024c-2.514-8.347-9.323-16.5-20.085-17.206C22.32,80.114,14.34,83.8,7.946,89.705a2.63,2.63,0,0,1-1.611.708h-1.1c-.9,0-1.855-.659-1.855-1.489V18.2C3.358,10.364,14.071,4.507,27.275,4.507Z" transform="translate(0 0.017)"/>
    <path id="Path_8" data-name="Path 8" d="M43.108,4.5C29.905,4.5,18.7,11.309,18.7,24.512v3.9h0V97.7a.48.48,0,0,0,.927.171v-.024c2.514-8.347,9.616-16.571,20.085-17.206,8.029-.488,15.595,2.685,22.721,9.054a2.776,2.776,0,0,0,1.611.708h1.1c.9,0,1.855-.659,1.855-1.489V18.167C67.025,10.357,56.311,4.5,43.108,4.5Z" transform="translate(37.858)"/>
  </g>
</svg>
