<svg xmlns="http://www.w3.org/2000/svg" width="100" height="88.871" viewBox="0 0 100 88.871">
  <path id="Icon_awesome-edit" data-name="Icon awesome-edit" d="M69.9,14.434l15.66,15.66a1.7,1.7,0,0,1,0,2.4L47.639,70.406,31.528,72.195A3.377,3.377,0,0,1,27.8,68.462l1.788-16.111L67.5,14.434A1.7,1.7,0,0,1,69.9,14.434Zm28.125-3.976L89.549,1.986a6.79,6.79,0,0,0-9.583,0L73.819,8.132a1.7,1.7,0,0,0,0,2.4l15.66,15.66a1.7,1.7,0,0,0,2.4,0l6.146-6.146a6.79,6.79,0,0,0,0-9.583ZM66.667,60.094V77.767H11.111V22.212h39.9a2.135,2.135,0,0,0,1.476-.608l6.944-6.944A2.083,2.083,0,0,0,57.951,11.1H8.333A8.335,8.335,0,0,0,0,19.434V80.545a8.335,8.335,0,0,0,8.333,8.333H69.444a8.335,8.335,0,0,0,8.333-8.333v-27.4a2.087,2.087,0,0,0-3.559-1.476l-6.944,6.944A2.135,2.135,0,0,0,66.667,60.094Z" transform="translate(0 -0.007)"/>
</svg>
