<svg xmlns="http://www.w3.org/2000/svg" width="100" height="122.268" viewBox="0 0 100 122.268">
  <path id="Path_20" data-name="Path 20" d="M229.942,77.458a1.177,1.177,0,0,0-.2-.811h0c-.013-.013-.026-.039-.039-.052h0c-.013-.013-.026-.039-.039-.052s-.026-.039-.039-.052l-.039-.039a.013.013,0,0,0-.013-.013L225.742,72.6q-4.436-4.456-8.886-8.886-5.006-5.006-9.985-10l-7.145-7.145c-.419-.419-.824-.864-1.269-1.269a2.165,2.165,0,0,0-1.688-.393h-56.73c-2.2,0-4.41-.2-6.412.916a7.322,7.322,0,0,0-3.664,6.321V159.3c0,.222-.013.432,0,.654a7.254,7.254,0,0,0,6.295,7.119,28.7,28.7,0,0,0,3.677.065H220.3a14.923,14.923,0,0,0,4.646-.34,7.317,7.317,0,0,0,5.012-6.87V77.458Zm-19.734,66.781H149.7a2.617,2.617,0,1,1,0-5.235h4.083V114.558a5.092,5.092,0,0,1,.249-2.264c.811-1.61,2.814-1.3,4.305-1.3h5.536c.563,0,1.139.013,1.7.026a1.126,1.126,0,0,1,.209.013c.039,0,.079.013.118.013s.079.013.118.013.052.013.079.013a1.089,1.089,0,0,1,.2.052h.013a2.361,2.361,0,0,1,.275.1h0a2.324,2.324,0,0,1,1.309,1.6,1.838,1.838,0,0,1,.118.406c0,.026.013.039.013.052v.013a.491.491,0,0,0,.013.131c0,.013-.013.026-.013.039V138.99h5.365v-.144c0-.222.026-.458.026-.681s.013-.471.013-.707c.013-.707.039-1.413.052-2.107,0-.2.013-.406.013-.6,0-.17,0-.327.013-.5V98.906c0-.327-.026-.641-.026-.968a3.439,3.439,0,0,1,.026-.366c.013-.079.026-.144.039-.209l.079-.275c.013-.026.026-.065.039-.092l.039-.079.118-.236c.013-.013.013-.039.026-.052a.794.794,0,0,1,.092-.131,2.274,2.274,0,0,1,1.583-.929c.065-.013.144-.013.222-.026.236-.013.484-.026.72-.026h.17c1.322-.026,2.643.013,3.965.039h4.2c.2,0,.38-.026.576-.013a2.332,2.332,0,0,1,.694.131c.013,0,.039.013.052.013a1.857,1.857,0,0,1,.458.222,1.372,1.372,0,0,1,.144.1h0c.052.039.092.079.144.118l.065.065.065.065a2.407,2.407,0,0,1,.222.288c.013.026.039.052.052.079a1.491,1.491,0,0,1,.131.249.638.638,0,0,1,.039.092,1.711,1.711,0,0,1,.118.366c.013.039.026.092.039.131s.013.065.026.092a1.45,1.45,0,0,1,.026.249V139H193.2c0-1.675.079-3.35.079-5.025V104.861a3.453,3.453,0,0,1,.065-.968,2.448,2.448,0,0,1,2.67-1.662h8.807a2.673,2.673,0,0,1,1.937.707c.065.065.131.144.2.222a1.952,1.952,0,0,1,.236.393h0a4.727,4.727,0,0,1,.17.458,1.32,1.32,0,0,1,.065.327V139h2.774a2.668,2.668,0,0,1,2.617,2.617A2.639,2.639,0,0,1,210.208,144.238Zm-6.5-68.181h-1.727c-.1,0-.222-.013-.327-.013-.157-.039-.314-.065-.471-.1-.131-.039-.707-.157-.34-.1.039,0,.079.013.1.013a1.027,1.027,0,0,1-.183-.065c-.131-.065-.249-.131-.38-.209l-.2-.131c-.026-.039-.353-.3-.419-.353-.026-.026-.144-.131-.249-.236a.273.273,0,0,0-.052-.079l-.039-.079c-.052-.065-.092-.144-.144-.209-.026-.039-.131-.209-.209-.353h0a.607.607,0,0,1-.039-.118,1.026,1.026,0,0,0-.065-.183c-.013-.026-.013-.039-.026-.065-.052-.157,0-.314-.131-.471h0v-.17h0a1.1,1.1,0,0,1-.026-.131.59.59,0,0,0,.026.1c0-.092-.013-.17-.013-.222,0-.222,0-.432.013-.654V59.176c0-1.767.026-3.533.039-5.3l6.072,6.072,16.11,16.11Z" transform="translate(-129.956 -44.898)"/>
</svg>
