<svg xmlns="http://www.w3.org/2000/svg" width="30" height="33.75" viewBox="0 0 30 33.75">
  <path id="Icon_material-date-range" data-name="Icon material-date-range" d="M14.5,18.187H11.167v3.375H14.5Zm6.667,0H17.833v3.375h3.333Zm6.667,0H24.5v3.375h3.333ZM31.167,6.375H29.5V3H26.167V6.375H12.833V3H9.5V6.375H7.833A3.339,3.339,0,0,0,4.517,9.75L4.5,33.375A3.353,3.353,0,0,0,7.833,36.75H31.167A3.364,3.364,0,0,0,34.5,33.375V9.75A3.364,3.364,0,0,0,31.167,6.375Zm0,27H7.833V14.812H31.167Z" transform="translate(-4.5 -3)"/>
</svg>
