<svg xmlns="http://www.w3.org/2000/svg" width="30" height="31.557" viewBox="0 0 30 31.557">
  <path id="Icon_map-school" data-name="Icon map-school" d="M19.7,5.285V26.807H4.049V5.285H19.7M22.31,2.677H1.44V30.068H22.31V2.677ZM6.005,7.894H17.744V10.5H6.005Zm0,4.565H17.744v2.609H6.005Zm0,4.565H17.744v2.609H6.005Zm0,4.565H17.744V24.2H6.005Zm20.217-13.7H31.44V26.155H26.223ZM28.835.72a2.6,2.6,0,0,0-2.613,2.568v2.65H31.44V3.288A2.6,2.6,0,0,0,28.835.72ZM26.182,28.111l2.635,4.165,2.622-4.165Z" transform="translate(-1.44 -0.72)"/>
</svg>
