<svg xmlns="http://www.w3.org/2000/svg" width="83" height="58.1" viewBox="0 0 83 58.1">
  <path id="Icon_awesome-users" data-name="Icon awesome-users" d="M12.45,27.15a8.3,8.3,0,1,0-8.3-8.3A8.308,8.308,0,0,0,12.45,27.15Zm58.1,0a8.3,8.3,0,1,0-8.3-8.3A8.308,8.308,0,0,0,70.55,27.15ZM74.7,31.3H66.4a8.276,8.276,0,0,0-5.849,2.412A18.97,18.97,0,0,1,70.291,47.9H78.85A4.146,4.146,0,0,0,83,43.75V39.6A8.308,8.308,0,0,0,74.7,31.3Zm-33.2,0A14.525,14.525,0,1,0,26.975,16.775,14.518,14.518,0,0,0,41.5,31.3Zm9.96,4.15H50.384a20.054,20.054,0,0,1-17.767,0H31.54A14.944,14.944,0,0,0,16.6,50.39v3.735a6.227,6.227,0,0,0,6.225,6.225h37.35A6.227,6.227,0,0,0,66.4,54.125V50.39A14.944,14.944,0,0,0,51.46,35.45ZM22.449,33.712A8.276,8.276,0,0,0,16.6,31.3H8.3A8.308,8.308,0,0,0,0,39.6v4.15A4.146,4.146,0,0,0,4.15,47.9H12.7A19.018,19.018,0,0,1,22.449,33.712Z" transform="translate(0 -2.25)" fill="#aaa"/>
</svg>
