<svg xmlns="http://www.w3.org/2000/svg" width="36" height="36" viewBox="0 0 36 36">
  <path id="Icon_metro-question" data-name="Icon metro-question" d="M17.883,25.991h4.375v4.375H17.883Zm8.75-15.313a2.188,2.188,0,0,1,2.188,2.188v6.563L22.258,23.8H17.883V21.616l6.562-4.375V15.053H13.508V10.678H26.633ZM20.071,5.209A14.219,14.219,0,1,0,30.125,9.374,14.126,14.126,0,0,0,20.071,5.209Zm0-3.281a17.5,17.5,0,1,1-17.5,17.5,17.5,17.5,0,0,1,17.5-17.5Z" transform="translate(-2.071 -1.428)" fill="#828282" stroke="#828282" stroke-width="1"/>
</svg>
