<svg xmlns="http://www.w3.org/2000/svg" width="174.421" height="121.839" viewBox="0 0 174.421 121.839">
  <path id="Icon_metro-books" data-name="Icon metro-books" d="M38.108,8.571H7.648a5.092,5.092,0,0,0-5.077,5.077V125.334a5.092,5.092,0,0,0,5.077,5.077h30.46a5.092,5.092,0,0,0,5.077-5.077V13.648a5.092,5.092,0,0,0-5.077-5.077Zm-5.077,30.46H12.725V28.878H33.031V39.031ZM88.874,8.571H58.414a5.092,5.092,0,0,0-5.077,5.077V125.334a5.092,5.092,0,0,0,5.077,5.077h30.46a5.092,5.092,0,0,0,5.077-5.077V13.648a5.092,5.092,0,0,0-5.077-5.077ZM83.8,39.031H63.491V28.878H83.8Zm40.151-22.61-27.2,13.706A5.092,5.092,0,0,0,94.5,36.945l45.686,90.673c1.256,2.494,4.324,3.506,34.02-11.456a5.092,5.092,0,0,0,2.249-6.818L130.766,18.671a5.092,5.092,0,0,0-6.818-2.25Z" transform="translate(-2.571 -8.571)"/>
</svg>
