<svg id="live-fill" xmlns="http://www.w3.org/2000/svg" width="30" height="30" viewBox="0 0 30 30">
  <path id="Path_1097" data-name="Path 1097" d="M0,0H30V30H0Z" fill="none"/>
  <path id="Path_1098" data-name="Path 1098" d="M18.839,4a1.08,1.08,0,0,1,1.189.916V8.763l6.2-3.343a.747.747,0,0,1,.616-.031.459.459,0,0,1,.32.407V16.86a.459.459,0,0,1-.32.407.747.747,0,0,1-.616-.031l-6.2-3.343v3.847a1.08,1.08,0,0,1-1.189.916H2.189A1.08,1.08,0,0,1,1,17.739V4.916A1.08,1.08,0,0,1,2.189,4ZM8.611,8.423a.463.463,0,0,0-.466.293l-.009.072v5.076a.352.352,0,0,0,.206.3.6.6,0,0,0,.439.041l.087-.033,5.179-2.539a.368.368,0,0,0,.217-.272.323.323,0,0,0-.142-.3l-.075-.046L8.867,8.479a.586.586,0,0,0-.256-.055Z" transform="translate(0.918 3.672)"/>
</svg>
