<svg xmlns="http://www.w3.org/2000/svg" width="100" height="99.998" viewBox="0 0 100 99.998">
  <path id="Icon_ionic-md-settings" data-name="Icon ionic-md-settings" d="M91.347,58.374a31.268,31.268,0,0,0,.255-5c0-1.75-.255-3.249-.255-5l10.737-8.249a2.3,2.3,0,0,0,.512-3.249L92.368,19.625a2.49,2.49,0,0,0-3.069-1l-12.785,5a37.216,37.216,0,0,0-8.692-5L66.032,5.375a2.74,2.74,0,0,0-2.557-2H43.019a2.74,2.74,0,0,0-2.557,2L38.416,18.624a43.3,43.3,0,0,0-8.695,5l-12.785-5a2.4,2.4,0,0,0-3.069,1L3.64,36.876a3.019,3.019,0,0,0,.512,3.249l11,8.249c0,1.75-.255,3.249-.255,5s.255,3.249.255,5L4.41,66.623A2.3,2.3,0,0,0,3.9,69.873L14.125,87.124a2.49,2.49,0,0,0,3.069,1l12.785-5a37.211,37.211,0,0,0,8.692,5l2.045,13.249a2.478,2.478,0,0,0,2.557,2H63.73a2.74,2.74,0,0,0,2.557-2l2.048-13.249a43.275,43.275,0,0,0,8.692-5l12.785,5a2.4,2.4,0,0,0,3.069-1l10.228-17.251a3.015,3.015,0,0,0-.512-3.249Zm-38.1,12.5a17.5,17.5,0,1,1,0-35,17.5,17.5,0,1,1,0,35Z" transform="translate(-3.375 -3.375)"/>
</svg>
