<svg xmlns="http://www.w3.org/2000/svg" width="100.864" height="70.605" viewBox="0 0 100.864 70.605">
  <path id="Icon_awesome-users" data-name="Icon awesome-users" d="M15.13,32.509A10.086,10.086,0,1,0,5.043,22.423,10.1,10.1,0,0,0,15.13,32.509Zm70.6,0A10.086,10.086,0,1,0,75.648,22.423,10.1,10.1,0,0,0,85.735,32.509Zm5.043,5.043H80.691a10.057,10.057,0,0,0-7.108,2.931A23.053,23.053,0,0,1,85.419,57.725h10.4a5.038,5.038,0,0,0,5.043-5.043V47.639A10.1,10.1,0,0,0,90.778,37.552Zm-40.346,0A17.651,17.651,0,1,0,32.781,19.9,17.642,17.642,0,0,0,50.432,37.552Zm12.1,5.043H61.228a24.37,24.37,0,0,1-21.591,0H38.328A18.16,18.16,0,0,0,20.173,60.751V65.29a7.567,7.567,0,0,0,7.565,7.565H73.127a7.567,7.567,0,0,0,7.565-7.565V60.751A18.16,18.16,0,0,0,62.536,42.6ZM27.281,40.484a10.057,10.057,0,0,0-7.108-2.931H10.086A10.1,10.1,0,0,0,0,47.639v5.043a5.038,5.038,0,0,0,5.043,5.043H15.429A23.111,23.111,0,0,1,27.281,40.484Z" transform="translate(0 -2.25)"/>
</svg>
