<svg xmlns="http://www.w3.org/2000/svg" width="100.9" height="70.63" viewBox="0 0 100.9 70.63">
  <path id="Icon_awesome-user-friends" data-name="Icon awesome-user-friends" d="M30.27,37.565A17.657,17.657,0,1,0,12.612,19.907,17.649,17.649,0,0,0,30.27,37.565ZM42.378,42.61H41.069a24.379,24.379,0,0,1-21.6,0H18.162A18.167,18.167,0,0,0,0,60.772v4.54A7.569,7.569,0,0,0,7.567,72.88h45.4a7.569,7.569,0,0,0,7.567-7.567v-4.54A18.167,18.167,0,0,0,42.378,42.61Zm33.3-5.045A15.135,15.135,0,1,0,60.54,22.43,15.139,15.139,0,0,0,75.675,37.565Zm7.567,5.045h-.6a19.881,19.881,0,0,1-13.937,0h-.6a17.511,17.511,0,0,0-8.781,2.428,23.072,23.072,0,0,1,6.259,15.734v6.054c0,.347-.079.678-.095,1.009H93.332a7.569,7.569,0,0,0,7.567-7.567A17.649,17.649,0,0,0,83.242,42.61Z" transform="translate(0 -2.25)"/>
</svg>
