<svg id="user-add-line" xmlns="http://www.w3.org/2000/svg" width="33" height="33" viewBox="0 0 33 33">
  <path id="Path_2152" data-name="Path 2152" d="M0,0H33V33H0Z" fill="none"/>
  <path id="Path_2153" data-name="Path 2153" d="M17.75,19.222V22.1a8.25,8.25,0,0,0-11,7.78H4A11,11,0,0,1,17.75,19.22ZM15,17.5a8.25,8.25,0,1,1,8.25-8.25A8.248,8.248,0,0,1,15,17.5Zm0-2.75a5.5,5.5,0,1,0-5.5-5.5A5.5,5.5,0,0,0,15,14.75ZM23.25,23V18.875H26V23h4.125v2.75H26v4.125H23.25V25.75H19.125V23Z" transform="translate(1.5 0.375)"/>
</svg>
