<svg width="49" height="38" viewBox="0 0 49 38" fill="none" xmlns="http://www.w3.org/2000/svg">
<rect x="36.2266" y="10.3643" width="9.34646" height="9.34646" rx="4.67323" fill="#193074"/>
<path fill-rule="evenodd" clip-rule="evenodd" d="M32.916 28.3897H48.8837C48.5444 24.2775 45.0995 21.046 40.8998 21.046C36.7002 21.046 33.2553 24.2775 32.916 28.3897Z" fill="#193074"/>
<rect x="26.8804" y="0.350098" width="9.34646" height="9.34646" rx="4.67323" fill="#193074"/>
<rect x="14.1958" y="0.350098" width="9.34646" height="9.34646" rx="4.67323" fill="#193074"/>
<rect x="4.18213" y="10.3643" width="9.34646" height="9.34646" rx="4.67323" fill="#193074"/>
<path fill-rule="evenodd" clip-rule="evenodd" d="M0.871582 28.3895H16.8392C16.5 24.2774 13.0551 21.0459 8.85541 21.0459C4.65574 21.0459 1.21083 24.2774 0.871582 28.3895Z" fill="#193074"/>
<rect x="20.2056" y="19.0428" width="9.34646" height="9.34646" rx="4.67323" fill="#193074"/>
<path fill-rule="evenodd" clip-rule="evenodd" d="M16.8926 37.0682H32.8602C32.521 32.956 29.0761 29.7245 24.8764 29.7245C20.6767 29.7245 17.2318 32.956 16.8926 37.0682Z" fill="#193074"/>
</svg>
