<svg width="25" height="25" viewBox="0 0 25 25" fill="none" xmlns="http://www.w3.org/2000/svg">
<g clip-path="url(#clip0)">
<path d="M6.70238 4.29757C6.70238 2.56877 8.10391 1.16724 9.83294 1.16724C11.5617 1.16724 12.9634 2.56877 12.9634 4.29757C12.9634 6.02638 11.5617 7.42787 9.83294 7.42787C8.10391 7.42791 6.70238 6.02638 6.70238 4.29757ZM11.3373 9.56056C11.3687 8.87892 11.6034 8.24803 11.9809 7.72648C11.7159 7.67099 11.4421 7.64152 11.1611 7.64152H8.50511C8.22495 7.64152 7.95149 7.67076 7.68791 7.72557C8.08965 8.28279 8.32996 8.96333 8.33387 9.70005C8.82222 9.43145 9.38254 9.27853 9.97771 9.27853C10.4605 9.27853 10.9201 9.37911 11.3373 9.56056ZM11.8672 9.84154C12.7765 10.4117 13.4141 11.3762 13.5308 12.4962C13.9013 12.6693 14.313 12.7692 14.7492 12.7692C16.3421 12.7692 17.6333 11.478 17.6333 9.88504C17.6333 8.29195 16.3421 7.00093 14.7492 7.00093C13.1708 7.00097 11.8912 8.26908 11.8672 9.84154ZM9.97767 15.7471C11.5704 15.7471 12.8616 14.4554 12.8616 12.863C12.8616 11.2703 11.5704 9.97884 9.97767 9.97884C8.38485 9.97884 7.09305 11.2702 7.09305 12.863C7.0931 14.4554 8.38485 15.7471 9.97767 15.7471ZM11.2011 15.9434H8.75402C6.71786 15.9434 5.06095 17.6001 5.06095 19.6366V22.6297L5.06874 22.6765L5.27474 22.7406C7.21801 23.3475 8.90627 23.5505 10.296 23.5505C13.0097 23.5505 14.5833 22.7767 14.6802 22.7271L14.873 22.6296H14.8934V19.6365C14.8935 17.6001 13.2375 15.9434 11.2011 15.9434ZM15.9732 12.9661H13.5445C13.5181 13.9379 13.1034 14.813 12.4475 15.442C14.2575 15.9802 15.5818 17.6585 15.5818 19.6411V20.5634C17.9793 20.4751 19.3611 19.796 19.4521 19.7502L19.6449 19.6522H19.6654V16.6585C19.6657 14.6226 18.0089 12.9661 15.9732 12.9661ZM16.6224 6.93943C17.5317 7.50973 18.1693 8.47421 18.2857 9.59422C18.6562 9.76737 19.0679 9.86709 19.5041 9.86709C21.0974 9.86709 22.3884 8.57598 22.3884 6.9833C22.3884 5.39016 21.0973 4.09918 19.5041 4.09918C17.9259 4.099 16.6464 5.36738 16.6224 6.93943ZM20.7279 10.064H18.2997C18.2733 11.0358 17.8586 11.9109 17.2027 12.5398C19.0126 13.0779 20.3369 14.7564 20.3369 16.739V17.6613C22.7342 17.5732 24.1163 16.8941 24.2073 16.848L24.3998 16.7503H24.4206V13.7563C24.4208 11.7206 22.7641 10.064 20.7279 10.064ZM4.91704 12.7693C5.48128 12.7693 6.00594 12.6045 6.45087 12.3239C6.59236 11.4018 7.08672 10.5959 7.79264 10.0473C7.7956 9.99319 7.80056 9.93975 7.80056 9.88509C7.80056 8.29199 6.50904 7.00097 4.91704 7.00097C3.32367 7.00097 2.0327 8.29195 2.0327 9.88509C2.0327 11.4783 3.32363 12.7693 4.91704 12.7693ZM7.50719 15.442C6.85435 14.816 6.44103 13.9457 6.4106 12.9795C6.32081 12.9728 6.23166 12.9661 6.13987 12.9661H3.69308C1.65664 12.9661 0 14.6226 0 16.6588V19.6522L0.00756208 19.6988L0.213834 19.7631C1.77244 20.2505 3.164 20.4745 4.37262 20.5445V19.6408C4.37284 17.6585 5.6968 15.9799 7.50719 15.442Z" fill="white"/>
</g>
<defs>
<clipPath id="clip0">
<rect width="24.4206" height="24.4205" fill="white" transform="translate(0 0.148682)"/>
</clipPath>
</defs>
</svg>
